<?xml version="1.0" standalone="no"?>
<!DOCTYPE svg PUBLIC "-//W3C//DTD SVG 1.1//EN" "http://www.w3.org/Graphics/SVG/1.1/DTD/svg11.dtd" >
<svg xmlns="http://www.w3.org/2000/svg" xmlns:xlink="http://www.w3.org/1999/xlink" version="1.1">
<metadata>
Created by FontForge 20170910 at Wed Aug  1 14:21:40 2018
 By Jimmy Wärting
Copyright Chequered Ink Ltd. 2018
</metadata>
<defs>
<font id="Nightmare-Codehack" horiz-adv-x="1638" >
  <font-face 
    font-family="Nightmare Codehack"
    font-weight="400"
    font-stretch="normal"
    units-per-em="4096"
    panose-1="0 0 4 0 0 0 0 0 0 0"
    ascent="3276"
    descent="-820"
    x-height="2244"
    cap-height="3227"
    bbox="-327 -819 2457 3276"
    underline-thickness="204"
    underline-position="307"
    unicode-range="U+0020-2122"
  />
<missing-glyph 
d="M196 360v98h98v-98h-98zM1015 1998v99h99v-99h-99zM704 2015v65h66v-65h-66zM180 1818v131h131v-131h-131zM835 1654v131h131v-131h-131zM360 1507v98h98v-98h-98zM704 1196v65h66v-65h-66zM180 999v131h131v-131h-131zM1015 1015v99h99v-99h-99zM999 671v131h131v-131
h-131zM376 704v66h66v-66h-66zM1179 524v98h98v-98h-98zM688 524v98h98v-98h-98zM1032 540v66h65v-66h-65zM655 2129v-163h164v163h-164zM1146 1966v163h-163v-163h163zM327 1802v164h-164v-164h164zM983 1638v164h-164v-164h164zM491 1474v164h-164v-164h164zM819 1146v164
h-164v-164h164zM1146 983v163h-163v-163h163zM1310 491v164h-164v164h-163v-328h327zM491 655v164h-164v-164h164zM819 491v164h-164v-164h164zM327 327v164h-164v-164h164zM163 983h164v163h-164v-163zM655 2129v164h655v-164h164v-327h-164v-164h164v-164h-164v-164h164
v-1310h-164v163h-164v-163h-327v163h-328v-163h-328v163h-163v656h163v164h-163v1146h163v164h328v-164h164zM524 2162v98h98v-98h-98zM32 2162v98h99v-98h-99zM1359 2179v65h66v-65h-66zM1343 1671v98h98v-98h-98zM1359 1359v66h66v-66h-66zM49 868v65h65v-65h-65zM1163 16
v131h131v-131h-131zM16 16v131h131v-131h-131zM688 32v99h98v-99h-98zM540 49v65h66v-65h-66z" />
    <glyph glyph-name=".notdef" 
d="M196 360v98h98v-98h-98zM1015 1998v99h99v-99h-99zM704 2015v65h66v-65h-66zM180 1818v131h131v-131h-131zM835 1654v131h131v-131h-131zM360 1507v98h98v-98h-98zM704 1196v65h66v-65h-66zM180 999v131h131v-131h-131zM1015 1015v99h99v-99h-99zM999 671v131h131v-131
h-131zM376 704v66h66v-66h-66zM1179 524v98h98v-98h-98zM688 524v98h98v-98h-98zM1032 540v66h65v-66h-65zM655 2129v-163h164v163h-164zM1146 1966v163h-163v-163h163zM327 1802v164h-164v-164h164zM983 1638v164h-164v-164h164zM491 1474v164h-164v-164h164zM819 1146v164
h-164v-164h164zM1146 983v163h-163v-163h163zM1310 491v164h-164v164h-163v-328h327zM491 655v164h-164v-164h164zM819 491v164h-164v-164h164zM327 327v164h-164v-164h164zM163 983h164v163h-164v-163zM655 2129v164h655v-164h164v-327h-164v-164h164v-164h-164v-164h164
v-1310h-164v163h-164v-163h-327v163h-328v-163h-328v163h-163v656h163v164h-163v1146h163v164h328v-164h164zM524 2162v98h98v-98h-98zM32 2162v98h99v-98h-99zM1359 2179v65h66v-65h-66zM1343 1671v98h98v-98h-98zM1359 1359v66h66v-66h-66zM49 868v65h65v-65h-65zM1163 16
v131h131v-131h-131zM16 16v131h131v-131h-131zM688 32v99h98v-99h-98zM540 49v65h66v-65h-66z" />
    <glyph glyph-name="glyph1" horiz-adv-x="0" 
 />
    <glyph glyph-name="glyph2" horiz-adv-x="655" 
 />
    <glyph glyph-name="space" unicode=" " horiz-adv-x="706" 
 />
    <glyph glyph-name="exclam" unicode="!" horiz-adv-x="655" 
d="M0 0v491h491v-491h-491zM32 1343v98h99v-98h-99zM344 1490v132h131v-132h-131zM16 1982v131h131v-131h-131zM360 2162v98h98v-98h-98zM0 819v491h163v164h-163v492h163v163h-163v328h491v-164h-164v-164h164v-491h-164v-164h164v-655h-491zM49 2506v66h65v-66h-65z
M196 2654v98h98v-98h-98zM32 2981v99h99v-99h-99zM344 3129v131h131v-131h-131z" />
    <glyph glyph-name="quotedbl" unicode="&#x22;" horiz-adv-x="1310" 
d="M16 1818v131h131v-131h-131zM671 1982v131h131v-131h-131zM196 2162v98h98v-98h-98zM327 2129v164h-164v-164h164zM835 2310v131h131v-131h-131zM163 1638v328h-163v491h491v-655h-164v-164h-164zM819 1638v164h-164v164h164v163h-164v328h164v-164h164v164h163v-655
h-163v-164h-164z" />
    <glyph glyph-name="numbersign" unicode="#" 
d="M999 1490v132h131v-132h-131zM1163 1818v131h131v-131h-131zM344 1654v131h131v-131h-131zM1310 1966h-164v-164h164v164zM491 1638v164h-164v-164h164zM1146 1474v164h-163v-164h163zM819 983v491h-164v-491h164zM1310 1966h164v-492h-164v-491h164v-492h-164v-491h-491
v491h-164v-491h-492v491h-163v492h163v491h-163v492h163v163h164v164h-164v164h492v-491h164v491h164v-164h163v164h164v-491zM1179 3145v99h98v-99h-98zM212 3162v65h66v-65h-66zM32 2981v99h99v-99h-99zM1359 2998v65h66v-65h-66zM835 2801v131h131v-131h-131zM540 2834
v65h66v-65h-66zM196 2654v98h98v-98h-98zM1032 2670v66h65v-66h-65zM344 2473v132h131v-132h-131zM1179 2490v98h98v-98h-98zM1015 2326v98h99v-98h-99zM180 2146v131h131v-131h-131zM49 2015v65h65v-65h-65z" />
    <glyph glyph-name="dollar" unicode="$" 
d="M196 1671v98h98v-98h-98zM524 2162v98h98v-98h-98zM327 1638v164h-164v-164h164zM655 2129v164h-164v-164h164zM327 1638v-164h983v-164h164v-1147h-164v-163h-327v-327h-492v327h-328v163h-163v492h491v-164h492v492h-820v163h-163v983h163v328h328v328h164v-164h164
v164h164v-328h327v-164h164v-164h-164v-163h164v-164h-491v164h-492v-328h-164zM16 3129v131h131v-131h-131zM524 3145v99h98v-99h-98zM1359 3162v65h66v-65h-66zM999 2965v131h131v-131h-131zM1359 2834v65h66v-65h-66zM704 2834v65h66v-65h-66zM376 2834v65h66v-65h-66z
M671 2637v131h131v-131h-131zM1179 2654v98h98v-98h-98zM196 2654v98h98v-98h-98zM1359 2506v66h66v-66h-66zM49 2506v66h65v-66h-65zM16 2146v131h131v-131h-131zM1327 1982v131h131v-131h-131zM344 1490v132h131v-132h-131z" />
    <glyph glyph-name="percent" unicode="%" horiz-adv-x="1802" 
d="M180 2146v131h131v-131h-131zM163 2293v-164h164v164h-164zM163 2293v164h328v-491h-491v327h163zM507 3129v131h131v-131h-131zM1196 3162v65h65v-65h-65zM32 2981v99h99v-99h-99zM524 2818v98h98v-98h-98zM1359 2834v65h66v-65h-66zM376 2834v65h66v-65h-66zM999 2637
v131h131v-131h-131zM1343 2490v98h98v-98h-98zM196 2490v98h98v-98h-98zM1523 2506v66h66v-66h-66zM0 0v327h163v328h164v328h164v327h328v164h-164v164h164v328h164v327h163v164h492v-164h-164v-327h-328v-164h164v-164h-164v-328h-163v-327h-164v-328h-164v-328h-164v-327
h-491zM32 2326v98h99v-98h-99zM655 2129v164h164v-164h-164zM1163 1818v131h131v-131h-131zM671 1327v131h131v-131h-131zM983 0v491h491v-491h-491z" />
    <glyph glyph-name="ampersand" unicode="&#x26;" horiz-adv-x="1802" 
d="M196 1343v98h98v-98h-98zM671 2146v131h131v-131h-131zM180 1982v131h131v-131h-131zM1179 1998v99h98v-99h-98zM1163 1490v132h131v-132h-131zM163 1310h164v164h-164v-164zM819 2129v164h-164v-164h164zM1310 1966v163h-164v-163h164zM327 1966v163h-164v-163h164z
M983 1474v492h-492v-492h492zM1310 1474v164h-164v-164h164zM983 491v492h-492v-492h492zM163 1310h-163v983h163v164h164v-164h164v328h164v-164h655v-164h164v-819h164v-491h-164v-492h164v-491h-1475v163h-163v983h163v164zM360 3145v99h98v-99h-98zM1196 3162v65h65v-65
h-65zM671 2965v131h131v-131h-131zM16 2801v131h131v-131h-131zM1179 2818v98h98v-98h-98zM376 2834v65h66v-65h-66zM851 2490v98h99v-98h-99zM1359 2506v66h66v-66h-66zM49 2506v66h65v-66h-65zM360 2326v98h98v-98h-98z" />
    <glyph glyph-name="quotesingle" unicode="'" horiz-adv-x="655" 
d="M360 1998v99h98v-99h-98zM16 2146v131h131v-131h-131zM163 1638v164h-163v327h163v164h-163v164h491v-328h-164v-163h164v-164h-164v-164h-164z" />
    <glyph glyph-name="parenleft" unicode="(" horiz-adv-x="983" 
d="M360 1343v98h98v-98h-98zM180 1654v131h131v-131h-131zM327 1638v164h-164v-164h164zM32 2162v98h99v-98h-99zM507 2146v131h131v-131h-131zM655 2129v164h-164v-164h164zM163 0v163h-163v1966h163v328h656v-491h-328v-492h-164v-164h164v-819h328v-491h-656zM524 2490
v98h98v-98h-98zM704 2670v66h66v-66h-66zM180 2637v131h131v-131h-131zM49 2834v65h65v-65h-65zM212 2998v65h66v-65h-66zM507 2965v131h131v-131h-131zM32 3145v99h99v-99h-99z" />
    <glyph glyph-name="parenright" unicode=")" horiz-adv-x="983" 
d="M524 2162v98h98v-98h-98zM655 2293h-164v-164h164v164zM655 2293h164v-655h-164v-164h164v-1311h-164v-163h-655v491h327v1311h164v164h-491v327h163v164h492v-164zM212 3162v65h66v-65h-66zM16 2965v131h131v-131h-131zM524 2981v99h98v-99h-98zM704 2834v65h66v-65h-66
zM196 2654v98h98v-98h-98zM671 2473v132h131v-132h-131zM49 2506v66h65v-66h-65zM16 2310v131h131v-131h-131zM344 1818v131h131v-131h-131zM688 1507v98h98v-98h-98z" />
    <glyph glyph-name="asterisk" unicode="*" 
d="M1179 851v99h98v-99h-98zM344 999v131h131v-131h-131zM491 983v163h-164v-163h164zM688 1343v98h98v-98h-98zM819 1310v164h-164v-164h164zM180 1654v131h131v-131h-131zM999 1654v131h131v-131h-131zM327 1638v164h-164v-164h164zM1146 1638v164h-163v-164h163z
M688 1835v98h98v-98h-98zM819 1802v164h-164v-164h164zM851 2162v98h99v-98h-99zM163 819v491h164v164h-327v492h491v327h328v-164h164v-163h491v-492h-328v-164h164v-327h-164v-164h-327v164h-164v-164h-492z" />
    <glyph glyph-name="plus" unicode="+" 
d="M851 1015v99h99v-99h-99zM180 1163v131h131v-131h-131zM983 983v163h-164v-163h164zM327 1146v164h-164v-164h164zM983 983v-492h-492v492h-491v491h491v492h164v-164h164v164h164v-492h163v-164h164v164h164v-491h-491zM704 2506v66h66v-66h-66zM212 2506v66h66v-66h-66
zM851 2162v98h99v-98h-99zM32 2162v98h99v-98h-99zM540 2179v65h66v-65h-66zM344 1982v131h131v-131h-131zM1196 2015v65h65v-65h-65zM671 1818v131h131v-131h-131zM1359 1851v65h66v-65h-66zM180 1654v131h131v-131h-131zM1179 1507v98h98v-98h-98zM49 1523v66h65v-66h-65z
M1179 1343v98h98v-98h-98z" />
    <glyph glyph-name="comma" unicode="," horiz-adv-x="655" 
d="M16 16v131h131v-131h-131zM196 360v98h98v-98h-98zM0 -327v164h163v326h-163v328h163v-164h164v164h164v-654h-164v-164h-327zM32 688v98h99v-98h-99zM344 671v131h131v-131h-131zM196 1015v99h98v-99h-98zM49 1359v66h65v-66h-65z" />
    <glyph glyph-name="hyphen" unicode="-" 
d="M688 1015v99h98v-99h-98zM180 1163v131h131v-131h-131zM327 1146v164h-164v-164h164zM999 1327v131h131v-131h-131zM0 983v491h983v-164h163v164h328v-491h-655v163h-164v-163h-655zM868 1523v66h65v-66h-65zM196 1507v98h98v-98h-98zM1359 1687v66h66v-66h-66zM344 1654
v131h131v-131h-131zM999 1654v131h131v-131h-131zM49 2015v65h65v-65h-65zM1015 1998v99h99v-99h-99zM507 1982v131h131v-131h-131z" />
    <glyph glyph-name="period" unicode="." horiz-adv-x="655" 
d="M344 180v131h131v-131h-131zM32 360v98h99v-98h-99zM0 0v327h163v164h328v-164h-164v-164h164v-163h-491zM32 688v98h99v-98h-99zM344 671v131h131v-131h-131zM196 1015v99h98v-99h-98zM49 1359v66h65v-66h-65z" />
    <glyph glyph-name="slash" unicode="/" horiz-adv-x="1802" 
d="M376 1359v66h66v-66h-66zM671 1327v131h131v-131h-131zM851 1835v98h99v-98h-99zM1163 1818v131h131v-131h-131zM671 1982v131h131v-131h-131zM1343 2326v98h98v-98h-98zM0 0v327h163v328h164v328h164v327h328v164h-164v164h164v164h164v491h163v164h164v-164h164v-327
h-328v-164h164v-164h-164v-328h-163v-327h-164v-328h-164v-328h-164v-327h-491zM1474 2293v164h164v-164h-164zM819 2457v164h164v-164h-164zM1179 2654v98h98v-98h-98zM1523 2834v65h66v-65h-66zM1015 2981v99h99v-99h-99zM1343 3145v99h98v-99h-98z" />
    <glyph glyph-name="zero" unicode="0" 
d="M1343 1507v98h98v-98h-98zM180 1490v132h131v-132h-131zM327 1474v164h-164v-164h164zM983 491v1475h-492v-1475h492zM32 1998v99h99v-99h-99zM49 2342v66h65v-66h-65zM835 2310v131h131v-131h-131zM163 0v163h-163v1803h163v163h-163v164h163v164h656v-164h164v164h327
v-164h164v-655h-164v-164h164v-1311h-164v-163h-1147zM1032 2506v66h65v-66h-65zM1343 2490v98h98v-98h-98zM180 2637v131h131v-131h-131zM655 2621v164h164v-164h-164zM49 2834v65h65v-65h-65zM1015 2981v99h99v-99h-99zM1359 3162v65h66v-65h-66zM344 3129v131h131v-131
h-131z" />
    <glyph glyph-name="one" unicode="1" horiz-adv-x="819" 
d="M180 1327v131h131v-131h-131zM360 1835v98h98v-98h-98zM491 1802v164h-164v-164h164zM344 2310v131h131v-131h-131zM163 0v1310h164v164h-164v492h-163v491h327v-164h164v164h164v-2457h-492zM212 2506v66h66v-66h-66zM32 2490v98h99v-98h-99zM507 2473v132h131v-132
h-131zM180 2801v131h131v-131h-131zM360 2981v99h98v-99h-98zM49 3162v65h65v-65h-65z" />
    <glyph glyph-name="two" unicode="2" 
d="M688 1343v98h98v-98h-98zM1163 1654v131h131v-131h-131zM1310 1638v164h-164v-164h164zM16 1818v131h131v-131h-131zM507 2146v131h131v-131h-131zM655 2129v164h-164v-164h164zM49 2342v66h65v-66h-65zM851 2326v98h99v-98h-99zM0 0v1310h163v164h492v-164h164v164h164
v492h-492v-164h-328v164h-163v327h163v164h656v-164h164v164h327v-164h164v-1147h-164v-163h-819v-492h983v-491h-1474zM868 2506v66h65v-66h-65zM1163 2473v132h131v-132h-131zM524 2654v98h98v-98h-98zM196 2981v99h98v-99h-98zM671 2965v131h131v-131h-131zM49 3162v65
h65v-65h-65zM1179 3145v99h98v-99h-98z" />
    <glyph glyph-name="three" unicode="3" 
d="M688 1343v98h98v-98h-98zM1163 1490v132h131v-132h-131zM1310 1474v164h-164v-164h164zM180 1818v131h131v-131h-131zM851 2162v98h99v-98h-99zM983 2129v164h-164v-164h164zM507 2310v131h131v-131h-131zM704 2506v66h66v-66h-66zM32 2490v98h99v-98h-99zM344 2473v132
h131v-132h-131zM163 0v163h-163v492h491v-164h492v492h-492v491h164v-164h164v164h164v492h-492v-164h-164v164h-164v-164h-163v491h163v164h328v-164h164v164h328v164h163v-164h164v-164h164v-983h-328v-164h328v-983h-164v-163h-1147zM688 2818v98h98v-98h-98zM1179 2818
v98h98v-98h-98zM16 2965v131h131v-131h-131zM1032 3162v65h65v-65h-65zM360 3145v99h98v-99h-98z" />
    <glyph glyph-name="four" unicode="4" 
d="M196 1179v98h98v-98h-98zM671 1163v131h131v-131h-131zM327 1146v164h-164v-164h164zM819 1146v164h-164v-164h164zM1179 1507v98h98v-98h-98zM1310 1474v164h-164v-164h164zM16 1654v131h131v-131h-131zM1327 1982v131h131v-131h-131zM344 2146v131h131v-131h-131z
M32 2326v98h99v-98h-99zM983 0v983h-983v655h163v164h-163v491h163v164h328v-164h-164v-164h164v-655h492v983h491v-328h-164v-163h164v-1966h-491zM1359 2506v66h66v-66h-66zM32 2654v98h99v-98h-99zM344 2637v131h131v-131h-131zM1163 2637v131h131v-131h-131zM1032 2834
v65h65v-65h-65zM1359 2998v65h66v-65h-66zM16 2965v131h131v-131h-131zM376 3162v65h66v-65h-66zM1179 3145v99h98v-99h-98z" />
    <glyph glyph-name="five" unicode="5" 
d="M851 1179v98h99v-98h-99zM983 1146v164h-164v-164h164zM180 1818v131h131v-131h-131zM327 1802v164h-164v-164h164zM688 2162v98h98v-98h-98zM819 2129v164h-164v-164h164zM32 2326v98h99v-98h-99zM999 2310v131h131v-131h-131zM1179 2490v98h98v-98h-98zM163 0v163h-163
v492h491v-164h492v492h-983v1310h163v164h164v164h164v-164h492v-164h163v164h328v-491h-983v-492h819v-164h164v-1147h-164v-163h-1147zM704 2670v66h66v-66h-66zM32 2654v98h99v-98h-99zM835 2801v131h131v-131h-131zM1196 2998v65h65v-65h-65zM180 2965v131h131v-131
h-131zM49 3162v65h65v-65h-65zM868 3162v65h65v-65h-65zM524 3145v99h98v-99h-98z" />
    <glyph glyph-name="six" unicode="6" 
d="M983 491v492h-492v-492h492zM851 1343v98h99v-98h-99zM16 1327v131h131v-131h-131zM196 1835v98h98v-98h-98zM327 1802v164h-164v-164h164zM1179 1998v99h98v-99h-98zM1310 1966v163h-164v-163h164zM507 2310v131h131v-131h-131zM1196 2506v66h65v-66h-65zM163 0v163
h-163v1147h163v164h-163v819h163v164h328v-164h164v164h164v164h164v-164h327v-164h164v-491h-491v164h-492v-492h328v-164h164v164h327v-164h164v-1147h-164v-163h-1147zM524 2654v98h98v-98h-98zM16 2637v131h131v-131h-131zM868 2834v65h65v-65h-65zM196 2981v99h98v-99
h-98zM49 3162v65h65v-65h-65zM1179 3145v99h98v-99h-98zM671 3129v131h131v-131h-131z" />
    <glyph glyph-name="seven" unicode="7" 
d="M1015 1179v98h99v-98h-99zM1163 1490v132h131v-132h-131zM1310 1474v164h-164v-164h164zM180 2146v131h131v-131h-131zM327 2129v164h-164v-164h164zM851 2326v98h99v-98h-99zM1359 2506v66h66v-66h-66zM983 0v1146h163v164h-163v656h-983v491h327v164h164v-164h328v-164
h164v164h491v-2457h-491zM540 2670v66h66v-66h-66zM32 2654v98h99v-98h-99zM851 2654v98h99v-98h-99zM999 2801v131h131v-131h-131zM1359 2998v65h66v-65h-66zM344 2965v131h131v-131h-131zM704 3162v65h66v-65h-66zM32 3145v99h99v-99h-99z" />
    <glyph glyph-name="eight" unicode="8" 
d="M983 491v492h-492v-492h492zM688 1179v98h98v-98h-98zM819 1146v164h-164v-164h164zM32 1507v98h99v-98h-99zM1327 1490v132h131v-132h-131zM983 1474v492h-492v-492h492zM180 1982v131h131v-131h-131zM327 1966v163h-164v-163h164zM524 2326v98h98v-98h-98zM999 2310
v131h131v-131h-131zM163 0v163h-163v983h163v164h-163v164h163v164h-163v655h163v164h328v-164h164v164h328v-164h163v164h164v-164h164v-655h-164v-164h164v-164h-164v-164h164v-983h-164v-163h-1147zM376 2506v66h66v-66h-66zM1179 2490v98h98v-98h-98zM32 2654v98h99v-98
h-99zM671 2637v131h131v-131h-131zM1196 2834v65h65v-65h-65zM704 2998v65h66v-65h-66zM180 2965v131h131v-131h-131zM376 3162v65h66v-65h-66zM1179 3145v99h98v-99h-98z" />
    <glyph glyph-name="nine" unicode="9" 
d="M360 1179v98h98v-98h-98zM491 1146v164h-164v-164h164zM835 1327v131h131v-131h-131zM1179 1671v98h98v-98h-98zM16 1654v131h131v-131h-131zM1310 1638v164h-164v-164h164zM983 1310v656h-492v-492h328v-164h164zM196 1998v99h98v-99h-98zM327 1966v163h-164v-163h164z
M507 2146v131h131v-131h-131zM655 2129v164h-164v-164h164zM1015 2326v98h99v-98h-99zM524 2490v98h98v-98h-98zM163 0v163h-163v492h491v-164h492v492h-820v163h-163v492h163v164h-163v491h163v164h656v164h164v-328h163v164h164v-164h164v-2130h-164v-163h-1147zM704 2670
v66h66v-66h-66zM1359 2670v66h66v-66h-66zM180 2637v131h131v-131h-131zM49 2834v65h65v-65h-65zM1015 2818v98h99v-98h-99zM507 2965v131h131v-131h-131zM212 3162v65h66v-65h-66zM1179 3145v99h98v-99h-98z" />
    <glyph glyph-name="colon" unicode=":" horiz-adv-x="655" 
d="M360 32v99h98v-99h-98zM16 180v131h131v-131h-131zM0 0v163h163v164h-163v164h491v-328h-164v-163h-327zM212 540v66h66v-66h-66zM49 704v66h65v-66h-65zM344 1163v131h131v-131h-131zM32 1343v98h99v-98h-99zM0 983v327h163v164h328v-164h-164v-164h164v-163h-491z
M180 1654v131h131v-131h-131zM376 1851v65h66v-65h-66zM16 1982v131h131v-131h-131zM196 2162v98h98v-98h-98z" />
    <glyph glyph-name="semicolon" unicode=";" horiz-adv-x="655" 
d="M180 1163v131h131v-131h-131zM163 1146h164v164h-164v-164zM163 1146h-163v328h491v-491h-328v163zM49 2015v65h65v-65h-65zM360 1835v98h98v-98h-98zM32 1671v98h99v-98h-99zM212 1523v66h66v-66h-66zM32 1015v99h99v-99h-99zM212 704v66h66v-66h-66zM49 540v66h65v-66
h-65zM0 -327v164h163v163h-163v327h163v164h328v-164h-164v-164h164v-326h-164v-164h-327zM32 360v98h99v-98h-99zM344 180v131h131v-131h-131z" />
    <glyph glyph-name="less" unicode="&#x3c;" horiz-adv-x="1310" 
d="M360 851v99h98v-99h-98zM360 1507v98h98v-98h-98zM180 1163v131h131v-131h-131zM327 1638v-164h164v164h-164zM327 1146v164h-164v-164h164zM327 819h164v164h-164v-164zM327 1638v164h164v164h492v-164h163v-328h-491v-328h164v-163h327v-492h-163v164h-164v-164h-328
v164h-164v164h-164v164h-163v491h163v164h164zM868 2506v66h65v-66h-65zM16 2310v131h131v-131h-131zM360 2326v98h98v-98h-98zM1032 2179v65h65v-65h-65zM540 2179v65h66v-65h-66zM835 1982v131h131v-131h-131zM180 1982v131h131v-131h-131zM999 1818v131h131v-131h-131z
M32 1835v98h99v-98h-99zM688 1343v98h98v-98h-98zM835 507v131h131v-131h-131z" />
    <glyph glyph-name="equal" unicode="=" 
d="M851 688v98h99v-98h-99zM180 835v131h131v-131h-131zM327 819v164h-164v-164h164zM999 999v131h131v-131h-131zM0 655v491h983v-163h163v163h328v-491h-491v164h-164v-164h-819zM1179 1343v98h98v-98h-98zM344 1490v132h131v-132h-131zM491 1474v164h-164v-164h164z
M688 1671v98h98v-98h-98zM0 1310v492h655v-164h164v164h655v-492h-164v164h-164v-164h-1146zM868 1851v65h65v-65h-65zM196 1835v98h98v-98h-98zM1359 2015v65h66v-65h-66zM344 1982v131h131v-131h-131zM999 1982v131h131v-131h-131zM49 2342v66h65v-66h-65zM1015 2326v98
h99v-98h-99zM507 2310v131h131v-131h-131z" />
    <glyph glyph-name="greater" unicode="&#x3e;" horiz-adv-x="1310" 
d="M851 1015v99h99v-99h-99zM524 1507v98h98v-98h-98zM983 983v163h-164v-163h164zM655 1474v164h-164v-164h164zM983 983v-164h-164v-164h-164v-164h-328v164h-164v-164h-163v492h327v163h164v164h-164v164h-327v492h163v-164h164v164h328v-164h164v-164h164v-164h163v-491
h-163zM540 2506v66h66v-66h-66zM851 2326v98h99v-98h-99zM32 2326v98h99v-98h-99zM344 2146v131h131v-131h-131zM704 2179v65h66v-65h-66zM212 2015v65h66v-65h-66zM835 1818v131h131v-131h-131zM180 1818v131h131v-131h-131zM1015 1507v98h99v-98h-99zM180 507v131h131
v-131h-131z" />
    <glyph glyph-name="question" unicode="?" 
d="M327 0v491h492v-491h-492zM688 1343v98h98v-98h-98zM180 1818v131h131v-131h-131zM1163 1818v131h131v-131h-131zM1310 1802v164h-164v-164h164zM524 1998v99h98v-99h-98zM851 2326v98h99v-98h-99zM327 655v819h328v-164h164v164h164v492h-328v163h-164v-327h-164v164
h-164v-164h-163v491h163v164h656v-164h164v164h327v-164h164v-1147h-164v-163h-491v-328h-492zM1032 2506v66h65v-66h-65zM524 2490v98h98v-98h-98zM16 2473v132h131v-132h-131zM671 2637v131h131v-131h-131zM376 2834v65h66v-65h-66zM1179 2818v98h98v-98h-98zM32 2981v99
h99v-99h-99zM868 3162v65h65v-65h-65zM1359 3162v65h66v-65h-66zM344 3129v131h131v-131h-131z" />
    <glyph glyph-name="at" unicode="@" horiz-adv-x="1966" 
d="M999 999v131h131v-131h-131zM1163 2146v131h131v-131h-131zM344 1982v131h131v-131h-131zM491 1966v163h-164v-163h164zM1310 2129v164h-164v-164h164zM1146 1146h-163v-163h163v163zM491 1966v-1475h655v-491h-983v163h-163v1147h163v164h-163v492h163v163h-163v164h163
v164h492v164h164v-328h164v164h655v-164h164v-655h-164v-164h164v-328h-164v-163h164v-164h-164v-164h-819v164h-164v327h164v164h-164v492h491v-656h164v820h-819zM999 3129v131h131v-131h-131zM1359 3162v65h66v-65h-66zM212 3162v65h66v-65h-66zM1671 2981v99h98v-99h-98
zM688 2981v99h98v-99h-98zM32 2981v99h99v-99h-99zM540 2834v65h66v-65h-66zM16 2637v131h131v-131h-131zM1032 2670v66h65v-66h-65zM1490 2473v132h132v-132h-132zM1179 2490v98h98v-98h-98zM360 2490v98h98v-98h-98zM851 2326v98h99v-98h-99zM1687 2342v66h66v-66h-66z
M32 1998v99h99v-99h-99zM1654 1490v132h131v-132h-131zM16 1327v131h131v-131h-131zM688 1179v98h98v-98h-98zM1671 1015v99h98v-99h-98z" />
    <glyph glyph-name="A" unicode="A" 
d="M1179 1179v98h98v-98h-98zM851 2162v98h99v-98h-99zM180 1982v131h131v-131h-131zM196 1507v98h98v-98h-98zM983 2293h-164v-164h164v164zM327 1966v163h-164v-163h164zM983 1474v492h-492v-492h492zM327 1474v164h-164v-164h164zM1310 1146v164h-164v-164h164zM983 2293
h163v164h164v-164h164v-327h-164v-164h164v-1802h-491v983h-492v-983h-491v2293h163v164h164v-164h164v164h492v-164zM1032 3162v65h65v-65h-65zM1146 2949v163h164v-163h-164zM507 2965v131h131v-131h-131zM212 2998v65h66v-65h-66zM999 2637v131h131v-131h-131zM16 2637
v131h131v-131h-131zM540 2670v66h66v-66h-66zM999 2310v131h131v-131h-131zM360 2326v98h98v-98h-98zM1327 1818v131h131v-131h-131z" />
    <glyph glyph-name="B" unicode="B" 
d="M983 491v492h-492v-492h492zM1179 1507v98h98v-98h-98zM1310 1474v164h-164v-164h164zM196 1671v98h98v-98h-98zM327 1638v164h-164v-164h164zM983 1474v492h-492v-492h492zM1179 1998v99h98v-99h-98zM180 1982v131h131v-131h-131zM327 1966v163h-164v-163h164z
M1310 1966v163h-164v-163h164zM671 2146v131h131v-131h-131zM819 2129v164h-164v-164h164zM360 2326v98h98v-98h-98zM16 2310v131h131v-131h-131zM999 2310v131h131v-131h-131zM0 0v2293h163v164h164v-164h164v164h492v-164h163v164h164v-164h164v-983h-328v-164h328v-983
h-164v-163h-1310zM344 2473v132h131v-132h-131zM196 2654v98h98v-98h-98zM983 2621v164h163v-164h-163zM671 2801v131h131v-131h-131zM1015 2981v99h99v-99h-99zM163 2949v163h164v-163h-164zM540 3162v65h66v-65h-66z" />
    <glyph glyph-name="C" unicode="C" 
d="M16 1490v132h131v-132h-131zM196 1835v98h98v-98h-98zM1343 1835v98h98v-98h-98zM327 1802v164h-164v-164h164zM16 2146v131h131v-131h-131zM360 2326v98h98v-98h-98zM999 2310v131h131v-131h-131zM163 0v163h-163v1311h163v164h-163v491h163v328h164v-164h164v164h492
v-164h163v164h164v-164h164v-327h-164v-164h-327v164h-492v-1475h492v164h491v-492h-164v-163h-1147zM835 2473v132h131v-132h-131zM1196 2670v66h65v-66h-65zM524 2654v98h98v-98h-98zM163 2621v164h164v-164h-164zM212 2998v65h66v-65h-66zM851 2981v99h99v-99h-99z
M1146 2949v163h164v-163h-164zM540 3162v65h66v-65h-66z" />
    <glyph glyph-name="D" unicode="D" 
d="M1163 1327v131h131v-131h-131zM1310 1310v164h-164v-164h164zM360 1507v98h98v-98h-98zM16 1818v131h131v-131h-131zM983 491v1475h-492v-328h-164v-164h164v-983h492zM1163 1982v131h131v-131h-131zM1310 1966v163h-164v-163h164zM688 2162v98h98v-98h-98zM344 2146v131
h131v-131h-131zM491 2129v164h-164v-164h164zM819 2129v164h-164v-164h164zM32 2326v98h99v-98h-99zM999 2473v132h131v-132h-131zM0 0v1802h163v164h-163v327h163v164h492v164h164v-164h491v-164h164v-2130h-164v-163h-1310zM851 2654v98h99v-98h-99zM163 2621v164h164
v-164h-164zM507 2801v131h131v-131h-131zM196 2981v99h98v-99h-98zM983 2949v163h163v-163h-163zM704 3162v65h66v-65h-66z" />
    <glyph glyph-name="E" unicode="E" 
d="M851 1343v98h99v-98h-99zM180 1490v132h131v-132h-131zM327 1474v164h-164v-164h164zM196 1835v98h98v-98h-98zM327 1802v164h-164v-164h164zM835 1982v131h131v-131h-131zM524 2326v98h98v-98h-98zM16 2310v131h131v-131h-131zM1163 2310v131h131v-131h-131zM0 0v2293
h163v164h328v-164h164v164h164v164h164v-164h163v-164h164v164h164v-491h-491v163h-164v-163h-328v-492h328v-164h164v164h163v-491h-655v-492h983v-491h-1474zM1343 2654v98h98v-98h-98zM180 2637v131h131v-131h-131zM999 2801v131h131v-131h-131zM491 2785v164h164v-164
h-164zM360 2981v99h98v-99h-98zM868 3162v65h65v-65h-65z" />
    <glyph glyph-name="F" unicode="F" 
d="M32 1343v98h99v-98h-99zM180 1818v131h131v-131h-131zM327 1802v164h-164v-164h164zM1163 1982v131h131v-131h-131zM851 2326v98h99v-98h-99zM344 2310v131h131v-131h-131zM0 0v1310h163v164h-163v983h327v-164h164v164h328v-164h164v164h491v-491h-164v163h-164v-163
h-655v-492h655v-491h-655v-983h-491zM1343 2490v98h98v-98h-98zM671 2473v132h131v-132h-131zM163 2621v164h164v-164h-164zM688 2818v98h98v-98h-98zM983 2785v164h163v-164h-163zM32 2981v99h99v-99h-99zM344 2965v131h131v-131h-131zM835 3129v131h131v-131h-131z" />
    <glyph glyph-name="G" unicode="G" 
d="M32 1343v98h99v-98h-99zM180 1818v131h131v-131h-131zM1163 1818v131h131v-131h-131zM327 1802v164h-164v-164h164zM851 2326v98h99v-98h-99zM344 2310v131h131v-131h-131zM163 0v163h-163v1147h163v164h-163v819h163v164h164v-164h164v164h328v-164h164v164h327v-164
h164v-491h-164v164h-164v-164h-163v164h-492v-1475h492v492h-328v491h819v-1311h-164v-163h-1147zM671 2473v132h131v-132h-131zM540 2670v66h66v-66h-66zM1179 2654v98h98v-98h-98zM163 2621v164h164v-164h-164zM524 2981v99h98v-99h-98zM819 2949v163h164v-163h-164z
M1196 3162v65h65v-65h-65zM32 3145v99h99v-99h-99z" />
    <glyph glyph-name="H" unicode="H" 
d="M196 1343v98h98v-98h-98zM327 1310v164h-164v-164h164zM1163 1490v132h131v-132h-131zM1310 1474v164h-164v-164h164zM1179 1835v98h98v-98h-98zM16 1818v131h131v-131h-131zM1310 1802v164h-164v-164h164zM32 2326v98h99v-98h-99zM344 2310v131h131v-131h-131z
M1327 2310v131h131v-131h-131zM0 0v1802h163v164h-163v327h163v164h164v-164h164v-819h492v983h327v-164h164v-2293h-491v983h-492v-983h-491zM1179 2490v98h98v-98h-98zM868 2670v66h65v-66h-65zM163 2621v164h164v-164h-164zM1163 2801v131h131v-131h-131zM49 2998v65h65
v-65h-65zM851 2981v99h99v-99h-99zM344 2965v131h131v-131h-131zM1196 3162v65h65v-65h-65z" />
    <glyph glyph-name="I" unicode="I" horiz-adv-x="655" 
d="M344 1327v131h131v-131h-131zM360 1671v98h98v-98h-98zM16 1818v131h131v-131h-131zM180 2310v131h131v-131h-131zM0 0v1802h163v164h-163v491h163v-164h164v164h164v-655h-164v-164h164v-164h-164v-164h164v-1310h-491zM344 2473v132h131v-132h-131zM0 2621v164h163
v-164h-163zM360 2818v98h98v-98h-98zM49 2998v65h65v-65h-65zM212 3162v65h66v-65h-66z" />
    <glyph glyph-name="J" unicode="J" 
d="M1015 1343v98h99v-98h-99zM1327 1654v131h131v-131h-131zM1015 1835v98h99v-98h-99zM1163 2146v131h131v-131h-131zM1310 2129v164h-164v-164h164zM163 0v163h-163v492h491v-164h492v819h163v164h-163v328h163v164h-163v491h491v-655h-164v-164h164v-1475h-164v-163
h-1147zM1179 2490v98h98v-98h-98zM1359 2670v66h66v-66h-66zM983 2785v164h163v-164h-163zM1327 2965v131h131v-131h-131zM1179 3145v99h98v-99h-98z" />
    <glyph glyph-name="K" unicode="K" 
d="M344 1327v131h131v-131h-131zM491 1474h-164v-164h164v164zM491 1474h492v328h163v164h-163v327h163v164h328v-164h-164v-164h164v-491h-164v-164h164v-164h-328v-164h328v-1146h-491v983h-492v-983h-491v1802h163v164h-163v491h163v-164h164v164h164v-491h-164v-164h164
v-328zM1196 3162v65h65v-65h-65zM49 3162v65h65v-65h-65zM360 2981v99h98v-99h-98zM1310 2785v164h164v-164h-164zM16 2801v131h131v-131h-131zM1015 2818v98h99v-98h-99zM163 2621v164h164v-164h-164zM999 2473v132h131v-132h-131zM376 2506v66h66v-66h-66zM180 2310v131
h131v-131h-131zM1015 2326v98h99v-98h-99zM1327 2146v131h131v-131h-131zM999 1818v131h131v-131h-131zM16 1818v131h131v-131h-131zM360 1835v98h98v-98h-98zM1343 1507v98h98v-98h-98z" />
    <glyph glyph-name="L" unicode="L" 
d="M360 1343v98h98v-98h-98zM16 1654v131h131v-131h-131zM32 2162v98h99v-98h-99zM344 2146v131h131v-131h-131zM0 0v1638h163v164h-163v327h163v164h-163v164h491v-164h-164v-164h164v-655h-164v-164h164v-819h983v-491h-1474zM49 2506v66h65v-66h-65zM163 2621v164h164
v-164h-164zM344 2801v131h131v-131h-131zM32 2981v99h99v-99h-99zM212 3162v65h66v-65h-66z" />
    <glyph glyph-name="M" unicode="M" horiz-adv-x="2293" 
d="M1015 1835v98h99v-98h-99zM1490 2146v131h132v-131h-132zM360 1998v99h98v-99h-98zM491 1966v163h-164v-163h164zM1638 2129v164h-164v-164h164zM1146 1802v164h-163v-164h163zM491 1966v-492h-164v-164h164v-1310h-491v1638h163v164h-163v491h163v164h492v-164h164v164
h164v-164h163v164h820v-328h163v-327h-163v-164h163v-1638h-491v1966h-328v-328h-164v-164h164v-1474h-491v1966h-328zM868 3162v65h65v-65h-65zM376 3162v65h66v-65h-66zM1638 2949v163h164v-163h-164zM655 2949v163h164v-163h-164zM1343 2981v99h98v-99h-98zM32 2981v99
h99v-99h-99zM360 2818v98h98v-98h-98zM1032 2834v65h65v-65h-65zM1146 2621v164h164v-164h-164zM671 2637v131h131v-131h-131zM180 2637v131h131v-131h-131zM1835 2654v98h98v-98h-98zM1490 2473v132h132v-132h-132zM671 2310v131h131v-131h-131zM32 2326v98h99v-98h-99z
M1998 2162v98h99v-98h-99zM1982 1654v131h131v-131h-131zM16 1654v131h131v-131h-131zM1163 1490v132h131v-132h-131zM360 1343v98h98v-98h-98z" />
    <glyph glyph-name="N" unicode="N" 
d="M32 1343v98h99v-98h-99zM1179 1343v98h98v-98h-98zM1310 1310v164h-164v-164h164zM180 1654v131h131v-131h-131zM327 1638v164h-164v-164h164zM1179 1998v99h98v-99h-98zM1310 1966v163h-164v-163h164zM16 2310v131h131v-131h-131zM671 2310v131h131v-131h-131zM0 0v1310
h163v164h-163v819h163v164h492v-164h164v164h491v-164h164v-2293h-491v1966h-492v-1966h-491zM32 2490v98h99v-98h-99zM1343 2490v98h98v-98h-98zM999 2473v132h131v-132h-131zM327 2621v164h164v-164h-164zM1015 2818v98h99v-98h-99zM671 2801v131h131v-131h-131zM196 2981
v99h98v-99h-98zM540 3162v65h66v-65h-66zM1196 3162v65h65v-65h-65z" />
    <glyph glyph-name="O" unicode="O" 
d="M180 1654v131h131v-131h-131zM1327 1654v131h131v-131h-131zM327 1638v164h-164v-164h164zM32 1998v99h99v-99h-99zM507 1982v131h131v-131h-131zM983 491v1475h-328v163h-164v-1638h492zM999 2146v131h131v-131h-131zM1146 2129v164h-163v-164h163zM360 2326v98h98v-98
h-98zM688 2326v98h98v-98h-98zM163 0v163h-163v1803h163v163h-163v164h163v164h164v-164h164v164h164v-164h164v164h491v-164h164v-491h-164v-164h164v-1475h-164v-163h-1147zM540 2506v66h66v-66h-66zM868 2670v66h65v-66h-65zM163 2621v164h164v-164h-164zM1146 2621v164
h164v-164h-164zM212 2998v65h66v-65h-66zM1359 2998v65h66v-65h-66zM507 2965v131h131v-131h-131zM32 3145v99h99v-99h-99zM999 3129v131h131v-131h-131z" />
    <glyph glyph-name="P" unicode="P" 
d="M32 1343v98h99v-98h-99zM1327 1490v132h131v-132h-131zM180 1654v131h131v-131h-131zM327 1638v164h-164v-164h164zM1179 1835v98h98v-98h-98zM983 1474v492h-492v-492h492zM1310 1802v164h-164v-164h164zM671 2146v131h131v-131h-131zM819 2129v164h-164v-164h164z
M1015 2326v98h99v-98h-99zM16 2310v131h131v-131h-131zM0 0v1310h163v164h-163v819h163v164h820v-164h163v164h164v-164h164v-655h-164v-164h164v-328h-164v-163h-819v-983h-491zM212 2506v66h66v-66h-66zM835 2473v132h131v-132h-131zM32 2654v98h99v-98h-99zM1179 2654v98
h98v-98h-98zM327 2621v164h164v-164h-164zM868 2834v65h65v-65h-65zM524 2981v99h98v-99h-98zM1163 2965v131h131v-131h-131zM868 3162v65h65v-65h-65zM180 3129v131h131v-131h-131z" />
    <glyph glyph-name="Q" unicode="Q" 
d="M180 1327v131h131v-131h-131zM327 1310v164h-164v-164h164zM1327 1490v132h131v-132h-131zM32 1835v98h99v-98h-99zM655 491v164h328v1311h-492v-1475h164zM1179 1998v99h98v-99h-98zM1310 1966v163h-164v-163h164zM835 2146v131h131v-131h-131zM983 2129v164h-164v-164
h164zM344 2310v131h131v-131h-131zM655 -163v163h-492v163h-163v1639h163v164h-163v327h163v164h164v-164h164v164h819v-164h164v-655h-164v-164h164v-1311h-164v-163h-164v-163h-491zM540 2506v66h66v-66h-66zM1179 2490v98h98v-98h-98zM16 2473v132h131v-132h-131z
M1032 2670v66h65v-66h-65zM360 2654v98h98v-98h-98zM655 2621v164h164v-164h-164zM1163 2801v131h131v-131h-131zM688 2981v99h98v-99h-98zM180 2965v131h131v-131h-131zM540 3162v65h66v-65h-66zM1015 3145v99h99v-99h-99z" />
    <glyph glyph-name="R" unicode="R" 
d="M32 1343v98h99v-98h-99zM1327 1327v131h131v-131h-131zM196 1835v98h98v-98h-98zM1179 1835v98h98v-98h-98zM327 1802v164h-164v-164h164zM1310 1802v164h-164v-164h164zM507 1982v131h131v-131h-131zM983 1474v492h-328v163h-164v-655h492zM851 2326v98h99v-98h-99z
M16 2310v131h131v-131h-131zM0 0v1310h163v164h-163v819h163v164h656v-164h164v164h327v-164h164v-819h-164v-164h-164v-164h328v-1146h-491v983h-492v-983h-491zM212 2506v66h66v-66h-66zM1343 2490v98h98v-98h-98zM835 2473v132h131v-132h-131zM1032 2670v66h65v-66h-65z
M32 2654v98h99v-98h-99zM491 2621v164h164v-164h-164zM212 2834v65h66v-65h-66zM851 2818v98h99v-98h-99zM540 2998v65h66v-65h-66zM1179 2981v99h98v-99h-98zM180 3129v131h131v-131h-131zM999 3129v131h131v-131h-131z" />
    <glyph glyph-name="S" unicode="S" 
d="M32 1343v98h99v-98h-99zM851 1343v98h99v-98h-99zM180 1818v131h131v-131h-131zM1327 1818v131h131v-131h-131zM327 1802v164h-164v-164h164zM360 2326v98h98v-98h-98zM671 2310v131h131v-131h-131zM32 2490v98h99v-98h-99zM999 2473v132h131v-132h-131zM163 0v163h-163
v492h491v-164h492v492h-820v163h-163v164h163v164h-163v819h163v164h164v-164h164v328h164v-328h164v164h491v-164h164v-327h-164v-164h-327v164h-492v-492h328v-164h164v164h327v-164h164v-1147h-164v-163h-1147zM540 2670v66h66v-66h-66zM1343 2654v98h98v-98h-98z
M851 2818v98h99v-98h-99zM163 2785v164h164v-164h-164zM1163 2965v131h131v-131h-131zM212 3162v65h66v-65h-66zM1032 3162v65h65v-65h-65zM507 3129v131h131v-131h-131z" />
    <glyph glyph-name="T" unicode="T" 
d="M851 1343v98h99v-98h-99zM507 1490v132h131v-132h-131zM688 1835v98h98v-98h-98zM819 1802v164h-164v-164h164zM32 2162v98h99v-98h-99zM671 2146v131h131v-131h-131zM819 2129v164h-164v-164h164zM1179 2326v98h98v-98h-98zM344 2310v131h131v-131h-131zM491 0v1474h164
v164h-164v328h-491v163h163v164h-163v164h327v-164h164v164h655v-164h164v164h164v-491h-491v-492h-164v-164h164v-1310h-492zM1359 2506v66h66v-66h-66zM32 2490v98h99v-98h-99zM524 2490v98h98v-98h-98zM999 2473v132h131v-132h-131zM327 2621v164h164v-164h-164z
M851 2818v98h99v-98h-99zM16 2801v131h131v-131h-131zM1163 2801v131h131v-131h-131zM1032 2998v65h65v-65h-65zM507 2965v131h131v-131h-131zM212 3162v65h66v-65h-66zM1359 3162v65h66v-65h-66z" />
    <glyph glyph-name="U" unicode="U" 
d="M16 1490v132h131v-132h-131zM1163 1490v132h131v-132h-131zM1310 1474v164h-164v-164h164zM1343 1835v98h98v-98h-98zM32 1998v99h99v-99h-99zM344 2146v131h131v-131h-131zM999 2146v131h131v-131h-131zM163 0v163h-163v1311h163v164h-163v328h163v163h-163v328h491
v-164h-164v-164h164v-1638h492v1638h163v164h-163v164h491v-491h-164v-164h164v-1639h-164v-163h-1147zM49 2506v66h65v-66h-65zM1015 2490v98h99v-98h-99zM1359 2670v66h66v-66h-66zM180 2637v131h131v-131h-131zM32 2818v98h99v-98h-99zM1163 2965v131h131v-131h-131z
M49 3162v65h65v-65h-65zM1032 3162v65h65v-65h-65zM360 3145v99h98v-99h-98z" />
    <glyph glyph-name="V" unicode="V" 
d="M1015 1343v98h99v-98h-99zM344 1490v132h131v-132h-131zM1163 1654v131h131v-131h-131zM1310 1638v164h-164v-164h164zM16 1982v131h131v-131h-131zM360 2162v98h98v-98h-98zM1163 2310v131h131v-131h-131zM1343 2490v98h98v-98h-98zM491 0v163h-164v164h-164v164h-163
v1475h163v163h-163v328h163v164h164v-164h164v-164h-164v-164h164v-491h-164v-164h164v-655h164v-164h164v164h164v491h163v164h-163v983h163v-164h164v164h164v-1966h-164v-164h-164v-164h-163v-163h-492zM360 2654v98h98v-98h-98zM983 2621v164h163v-164h-163zM1196 2834
v65h65v-65h-65zM16 2801v131h131v-131h-131zM1032 2998v65h65v-65h-65zM196 2981v99h98v-99h-98zM49 3162v65h65v-65h-65zM1163 3129v131h131v-131h-131z" />
    <glyph glyph-name="W" unicode="W" horiz-adv-x="2293" 
d="M1015 1507v98h99v-98h-99zM1818 2146v131h131v-131h-131zM1818 1490v132h131v-132h-131zM1966 1474v164h-164v-164h164zM1966 2129v164h-164v-164h164zM1146 1474v164h-163v-164h163zM1966 1474v-164h163v-1147h-163v-163h-820v163h-163v-163h-820v163h-163v1147h163v164
h-163v655h163v164h-163v164h491v-655h-164v-164h164v-1147h328v1475h164v163h-164v328h164v-164h163v164h164v-1966h328v1311h164v164h-164v491h491v-983h-163zM1851 3162v65h65v-65h-65zM1196 3162v65h65v-65h-65zM376 3162v65h66v-65h-66zM1982 2965v131h131v-131h-131z
M16 2965v131h131v-131h-131zM851 2981v99h99v-99h-99zM1671 2818v98h98v-98h-98zM1179 2818v98h98v-98h-98zM360 2818v98h98v-98h-98zM983 2621v164h163v-164h-163zM2015 2670v66h65v-66h-65zM49 2670v66h65v-66h-65zM1818 2473v132h131v-132h-131zM180 2473v132h131v-132
h-131zM868 2506v66h65v-66h-65zM1015 2326v98h99v-98h-99zM16 2146v131h131v-131h-131zM835 1982v131h131v-131h-131zM1671 1835v98h98v-98h-98zM344 1654v131h131v-131h-131zM1998 1343v98h99v-98h-99zM32 1343v98h99v-98h-99z" />
    <glyph glyph-name="X" unicode="X" 
d="M671 1327v131h131v-131h-131zM360 1507v98h98v-98h-98zM1343 1671v98h98v-98h-98zM16 1818v131h131v-131h-131zM1163 1982v131h131v-131h-131zM1310 1966v163h-164v-163h164zM1015 2326v98h99v-98h-99zM180 2310v131h131v-131h-131zM0 0v1146h327v164h-327v492h163v164
h-163v491h163v-164h164v164h164v-819h-164v-164h328v-164h164v164h164v819h163v164h328v-655h-164v-164h164v-328h-328v-164h328v-1146h-491v983h-492v-983h-491zM196 2490v98h98v-98h-98zM1163 2473v132h131v-132h-131zM1343 2654v98h98v-98h-98zM327 2621v164h164v-164
h-164zM1015 2818v98h99v-98h-99zM16 2801v131h131v-131h-131zM360 2981v99h98v-99h-98zM1327 2965v131h131v-131h-131zM49 3162v65h65v-65h-65zM1196 3162v65h65v-65h-65z" />
    <glyph glyph-name="Y" unicode="Y" 
d="M32 1343v98h99v-98h-99zM1163 1490v132h131v-132h-131zM1310 1474v164h-164v-164h164zM180 1654v131h131v-131h-131zM327 1638v164h-164v-164h164zM1179 1835v98h98v-98h-98zM1310 1802v164h-164v-164h164zM360 2162v98h98v-98h-98zM16 2310v131h131v-131h-131z
M1163 2310v131h131v-131h-131zM491 0v983h-328v163h-163v164h163v164h-163v819h163v164h328v-164h-164v-164h164v-655h492v983h163v-164h164v164h164v-1311h-164v-163h-327v-983h-492zM376 2506v66h66v-66h-66zM999 2473v132h131v-132h-131zM1343 2654v98h98v-98h-98z
M180 2637v131h131v-131h-131zM1032 2834v65h65v-65h-65zM1179 2981v99h98v-99h-98zM344 2965v131h131v-131h-131zM1032 3162v65h65v-65h-65zM32 3145v99h99v-99h-99z" />
    <glyph glyph-name="Z" unicode="Z" 
d="M32 1343v98h99v-98h-99zM1343 1507v98h98v-98h-98zM999 1654v131h131v-131h-131zM360 2162v98h98v-98h-98zM851 2162v98h99v-98h-99zM491 2129v164h-164v-164h164zM983 2129v164h-164v-164h164zM1327 2310v131h131v-131h-131zM868 2506v66h65v-66h-65zM32 2490v98h99v-98
h-99zM1163 2473v132h131v-132h-131zM0 0v1310h163v164h820v164h163v164h-163v164h-983v491h327v164h164v-164h819v-164h164v-655h-164v-164h164v-491h-983v-492h983v-491h-1474zM1359 2670v66h66v-66h-66zM671 2637v131h131v-131h-131zM360 2818v98h98v-98h-98zM1015 2818
v98h99v-98h-99zM704 2998v65h66v-65h-66zM16 2965v131h131v-131h-131zM212 3162v65h66v-65h-66zM1343 3145v99h98v-99h-98zM835 3129v131h131v-131h-131z" />
    <glyph glyph-name="bracketleft" unicode="[" horiz-adv-x="819" 
d="M344 1163v131h131v-131h-131zM32 1671v98h99v-98h-99zM344 1818v131h131v-131h-131zM16 1982v131h131v-131h-131zM360 2326v98h98v-98h-98zM0 0v1638h163v164h-163v164h163v163h-163v328h327v-164h164v164h164v-491h-328v-164h164v-492h-164v-164h164v-655h164v-491h-655
zM212 2506v66h66v-66h-66zM344 2637v131h131v-131h-131zM16 2801v131h131v-131h-131zM540 2998v65h66v-65h-66zM196 3145v99h98v-99h-98z" />
    <glyph glyph-name="backslash" unicode="\" horiz-adv-x="1802" 
d="M1196 1359v66h65v-66h-65zM835 1327v131h131v-131h-131zM688 1835v98h98v-98h-98zM344 1818v131h131v-131h-131zM835 1982v131h131v-131h-131zM196 2326v98h98v-98h-98zM0 2293v164h163v-164h-163zM1146 0v327h-163v328h-164v328h-164v327h-164v328h-164v164h164v164
h-328v327h164v164h164v-164h164v-491h164v-164h164v-164h-164v-164h327v-327h164v-328h164v-328h164v-327h-492zM655 2457v164h164v-164h-164zM360 2654v98h98v-98h-98zM49 2834v65h65v-65h-65zM524 2981v99h98v-99h-98zM196 3145v99h98v-99h-98z" />
    <glyph glyph-name="bracketright" unicode="]" horiz-adv-x="819" 
d="M360 1343v98h98v-98h-98zM180 1982v131h131v-131h-131zM491 1474h-164v-164h164v164zM163 1966h164v163h-164v-163zM491 1474h164v-1474h-655v491h163v1475h-163v327h163v164h492v-819h-164v-164zM212 3162v65h66v-65h-66zM360 2981v99h98v-99h-98zM32 2654v98h99v-98
h-99zM540 2670v66h66v-66h-66zM344 2473v132h131v-132h-131zM32 2326v98h99v-98h-99zM507 1490v132h131v-132h-131z" />
    <glyph glyph-name="asciicircum" unicode="^" 
d="M1343 1507v98h98v-98h-98zM16 1490v132h131v-132h-131zM360 1835v98h98v-98h-98zM999 1818v131h131v-131h-131zM491 1802v164h-164v-164h164zM1146 1802v164h-163v-164h163zM49 2179v65h65v-65h-65zM1359 2179v65h66v-65h-66zM688 2162v98h98v-98h-98zM819 2129v164h-164
v-164h164zM180 2310v131h131v-131h-131zM0 1310v164h163v164h-163v328h163v163h164v164h164v164h492v-164h163v-164h164v-163h164v-328h-164v-164h164v-164h-491v328h-164v164h-164v-164h-164v-328h-491zM688 2490v98h98v-98h-98zM1163 2473v132h131v-132h-131zM868 2834v65
h65v-65h-65zM196 2818v98h98v-98h-98zM507 2801v131h131v-131h-131z" />
    <glyph glyph-name="underscore" unicode="_" 
d="M835 180v131h131v-131h-131zM983 163v164h-164v-164h164zM180 344v131h131v-131h-131zM1327 344v131h131v-131h-131zM0 0v491h163v-164h164v164h983v-164h164v-327h-1474zM32 524v98h99v-98h-99zM671 507v131h131v-131h-131zM376 704v66h66v-66h-66zM1163 671v131h131
v-131h-131zM1359 868v65h66v-65h-66zM49 1032v65h65v-65h-65zM851 1015v99h99v-99h-99zM344 999v131h131v-131h-131zM704 1359v66h66v-66h-66z" />
    <glyph glyph-name="grave" unicode="`" horiz-adv-x="819" 
d="M196 1835v98h98v-98h-98zM540 2179v65h66v-65h-66zM196 2162v98h98v-98h-98zM327 2129v164h-164v-164h164zM327 1802v164h-327v491h491v-328h164v-327h-328z" />
    <glyph glyph-name="a" unicode="a" 
d="M1179 851v99h98v-99h-98zM983 491v492h-492v-492h492zM1310 819v164h-164v-164h164zM180 999v131h131v-131h-131zM327 983v163h-164v-163h164zM360 1343v98h98v-98h-98zM835 1327v131h131v-131h-131zM163 0v163h-163v1147h163v164h164v-164h164v164h328v-164h164v164h491
v-1474h-1311zM1032 1523v66h65v-66h-65zM1179 1507v98h98v-98h-98zM507 1490v132h131v-132h-131zM376 1687v66h66v-66h-66zM0 1638v164h163v-164h-163zM851 1835v98h99v-98h-99zM1343 1998v99h98v-99h-98zM344 1982v131h131v-131h-131zM999 1982v131h131v-131h-131zM49 2179
v65h65v-65h-65zM704 2179v65h66v-65h-66z" />
    <glyph glyph-name="b" unicode="b" 
d="M851 1015v99h99v-99h-99zM180 2146v131h131v-131h-131zM180 1163v131h131v-131h-131zM1163 999v131h131v-131h-131zM163 1310v-164h164v164h-164zM327 2129v164h-164v-164h164zM1310 983v163h-164v-163h164zM983 491v655h-164v-163h-328v-492h492zM163 1310v164h-163v983
h491v-655h-164v-164h164v-164h819v-164h164v-1147h-164v-163h-1147v163h-163v1147h163zM49 2998v65h65v-65h-65zM180 2801v131h131v-131h-131zM32 2654v98h99v-98h-99zM376 2670v66h66v-66h-66zM1032 2179v65h65v-65h-65zM540 2179v65h66v-65h-66zM835 1982v131h131v-131
h-131zM1163 1818v131h131v-131h-131zM540 1851v65h66v-65h-66zM1015 1671v98h99v-98h-99zM688 1671v98h98v-98h-98zM360 1671v98h98v-98h-98zM835 1490v132h131v-132h-131zM1359 1523v66h66v-66h-66zM32 1343v98h99v-98h-99z" />
    <glyph glyph-name="c" unicode="c" 
d="M688 1015v99h98v-99h-98zM180 999v131h131v-131h-131zM1163 999v131h131v-131h-131zM327 983v163h-164v-163h164zM1310 983v163h-164v-163h164zM507 1327v131h131v-131h-131zM163 0v163h-163v1147h163v164h328v-164h164v164h655v-164h164v-491h-491v164h-164v163h-164
v-163h-164v-492h492v164h491v-492h-164v-163h-1147zM704 1523v66h66v-66h-66zM32 1507v98h99v-98h-99zM851 1671v98h99v-98h-99zM344 1654v131h131v-131h-131zM1163 1654v131h131v-131h-131zM212 1851v65h66v-65h-66zM1359 1851v65h66v-65h-66zM1015 1998v99h99v-99h-99z
M507 1982v131h131v-131h-131zM868 2179v65h65v-65h-65zM32 2162v98h99v-98h-99z" />
    <glyph glyph-name="d" unicode="d" 
d="M32 851v99h99v-99h-99zM688 1015v99h98v-99h-98zM983 491v492h-164v163h-164v-163h-164v-492h492zM1327 1163v131h131v-131h-131zM524 1343v98h98v-98h-98zM868 1523v66h65v-66h-65zM360 1507v98h98v-98h-98zM524 1671v98h98v-98h-98zM49 1851v65h65v-65h-65zM671 1818
v131h131v-131h-131zM344 1982v131h131v-131h-131zM49 2179v65h65v-65h-65zM540 2179v65h66v-65h-66zM1163 2146v131h131v-131h-131zM1310 2129v164h-164v-164h164zM163 0v163h-163v656h163v164h-163v327h163v164h328v-164h164v164h328v983h491v-1147h-164v-164h164v-1146
h-1311zM1359 2670v66h66v-66h-66zM1015 2654v98h99v-98h-99zM1163 2801v131h131v-131h-131zM1032 2998v65h65v-65h-65z" />
    <glyph glyph-name="e" unicode="e" 
d="M180 999v131h131v-131h-131zM1163 999v131h131v-131h-131zM1310 983v163h-164v-163h164zM327 983v163h-164v-163h164zM983 819v164h-492v-164h492zM1310 983v-164h164v-164h-983v-164h983v-328h-164v-163h-1147v163h-163v1147h163v164h164v-164h164v164h164v-164h164v164
h164v164h163v-164h164v-164h164v-327h-164zM704 2179v65h66v-65h-66zM212 2179v65h66v-65h-66zM1163 1982v131h131v-131h-131zM851 1998v99h99v-99h-99zM507 1818v131h131v-131h-131zM196 1835v98h98v-98h-98zM868 1687v66h65v-66h-65zM16 1490v132h131v-132h-131z
M1343 1507v98h98v-98h-98zM524 1507v98h98v-98h-98zM671 1327v131h131v-131h-131zM360 1343v98h98v-98h-98zM1343 851v99h98v-99h-98z" />
    <glyph glyph-name="f" unicode="f" 
d="M344 999v131h131v-131h-131zM1163 1982v131h131v-131h-131zM507 1818v131h131v-131h-131zM327 983h164v163h-164v-163zM1310 1966v163h-164v-163h164zM655 1802v164h-164v-164h164zM327 983h-327v491h327v655h164v328h328v-164h164v164h327v-164h164v-491h-491v164h-164
v-656h164v164h327v-491h-491v-983h-492v983zM868 3162v65h65v-65h-65zM1327 2965v131h131v-131h-131zM671 2965v131h131v-131h-131zM360 2981v99h98v-99h-98zM868 2834v65h65v-65h-65zM327 2621v164h164v-164h-164zM1359 2670v66h66v-66h-66zM999 2473v132h131v-132h-131z
M688 2490v98h98v-98h-98zM851 2326v98h99v-98h-99zM344 2146v131h131v-131h-131zM49 2015v65h65v-65h-65zM212 1687v66h66v-66h-66zM851 1343v98h99v-98h-99z" />
    <glyph glyph-name="g" unicode="g" 
d="M983 491v492h-492v-492h492zM180 999v131h131v-131h-131zM327 983v163h-164v-163h164zM851 1179v98h99v-98h-99zM983 1146v164h-164v-164h164zM49 1359v66h65v-66h-65zM1179 1343v98h98v-98h-98zM507 1327v131h131v-131h-131zM163 -819v164h-163v492h491v-164h492v327
h-820v163h-163v1147h163v164h328v-164h164v164h491v-164h164v164h164v-2129h-164v-164h-1147zM851 1507v98h99v-98h-99zM16 1654v131h131v-131h-131zM1163 1654v131h131v-131h-131zM491 1638v164h164v-164h-164zM868 1851v65h65v-65h-65zM1359 2015v65h66v-65h-66zM344 1982
v131h131v-131h-131zM32 2162v98h99v-98h-99zM851 2162v98h99v-98h-99z" />
    <glyph glyph-name="h" unicode="h" 
d="M1343 851v99h98v-99h-98zM180 1163v131h131v-131h-131zM999 1163v131h131v-131h-131zM327 1146v164h-164v-164h164zM1146 1146v164h-163v-164h163zM32 1507v98h99v-98h-99zM671 1490v132h131v-132h-131zM851 1671v98h99v-98h-99zM1146 1638v164h164v-164h-164zM344 1818
v131h131v-131h-131zM704 2015v65h66v-65h-66zM1343 2162v98h98v-98h-98zM999 2146v131h131v-131h-131zM16 2310v131h131v-131h-131zM0 0v1474h163v164h-163v655h163v164h328v-491h-164v-164h164v-328h819v-164h164v-327h-164v-164h164v-819h-491v983h-492v-983h-491z
M344 2473v132h131v-132h-131zM49 2670v66h65v-66h-65zM196 2818v98h98v-98h-98zM376 3162v65h66v-65h-66zM32 3145v99h99v-99h-99z" />
    <glyph glyph-name="i" unicode="i" horiz-adv-x="655" 
d="M344 835v131h131v-131h-131zM16 1327v131h131v-131h-131zM0 0v1310h163v164h328v-491h-164v-164h164v-819h-491zM49 1523v66h65v-66h-65zM196 1671v98h98v-98h-98zM32 1835v98h99v-98h-99zM196 2162v98h98v-98h-98zM163 1802v164h-163v327h163v-164h164v164h164v-491
h-328zM376 2342v66h66v-66h-66zM32 2490v98h99v-98h-99zM360 2818v98h98v-98h-98zM49 2998v65h65v-65h-65z" />
    <glyph glyph-name="j" unicode="j" horiz-adv-x="655" 
d="M16 835v131h131v-131h-131zM196 1179v98h98v-98h-98zM327 1146v164h-164v-164h164zM0 -491v1310h163v164h-163v491h491v-1801h-164v-164h-327zM360 1507v98h98v-98h-98zM32 1835v98h99v-98h-99zM344 1818v131h131v-131h-131zM196 2162v98h98v-98h-98zM163 1802v164h-163
v327h163v-164h164v164h164v-327h-164v-164h-164zM180 2473v132h131v-132h-131zM376 2670v66h66v-66h-66zM16 2801v131h131v-131h-131zM376 2998v65h66v-65h-66z" />
    <glyph glyph-name="k" unicode="k" 
d="M32 851v99h99v-99h-99zM1179 1015v99h98v-99h-98zM1310 983v163h-164v-163h164zM180 1163v131h131v-131h-131zM327 1146v164h-164v-164h164zM655 1146v164h164v-164h-164zM1163 1327v131h131v-131h-131zM1359 1523v66h66v-66h-66zM524 1507v98h98v-98h-98zM1032 1687v66
h65v-66h-65zM16 1654v131h131v-131h-131zM1146 1802v164h164v-164h-164zM360 1998v99h98v-99h-98zM1032 2179v65h65v-65h-65zM1343 2162v98h98v-98h-98zM180 2310v131h131v-131h-131zM0 0v819h163v164h-163v655h163v164h-163v655h163v-164h164v164h164v-328h-164v-163h164
v-983h492v491h163v-164h164v164h164v-655h-164v-164h164v-655h-491v491h-492v-491h-491zM376 2506v66h66v-66h-66zM16 2637v131h131v-131h-131zM360 2818v98h98v-98h-98zM49 2998v65h65v-65h-65zM212 3162v65h66v-65h-66z" />
    <glyph glyph-name="l" unicode="l" horiz-adv-x="655" 
d="M16 1327v131h131v-131h-131zM360 1671v98h98v-98h-98zM344 1982v131h131v-131h-131zM32 2326v98h99v-98h-99zM0 0v1310h163v164h-163v819h163v164h328v-328h-164v-163h164v-164h-164v-164h164v-1638h-491zM49 2506v66h65v-66h-65zM180 2637v131h131v-131h-131zM360 2818
v98h98v-98h-98zM16 2965v131h131v-131h-131zM212 3162v65h66v-65h-66z" />
    <glyph glyph-name="m" unicode="m" horiz-adv-x="2293" 
d="M999 835v131h131v-131h-131zM1818 1163v131h131v-131h-131zM1343 1179v98h98v-98h-98zM1966 1310h-164v-164h164v164zM1474 1146v164h-164v-164h164zM1146 819v164h-163v-164h163zM1966 1310h163v-327h-163v-164h163v-819h-491v983h-328v-983h-491v983h-328v-983h-491
v983h163v163h-163v164h163v164h328v-164h164v328h164v-164h164v-164h163v164h820v-164zM1818 2146v131h131v-131h-131zM868 2179v65h65v-65h-65zM376 2179v65h66v-65h-66zM1163 1982v131h131v-131h-131zM32 1998v99h99v-99h-99zM327 1802v164h164v-164h-164zM1507 1835v98
h98v-98h-98zM704 1851v65h66v-65h-66zM1998 1671v98h99v-98h-99zM1015 1671v98h99v-98h-99zM1654 1490v132h131v-132h-131zM196 1507v98h98v-98h-98zM1359 1523v66h66v-66h-66zM507 1327v131h131v-131h-131zM32 1343v98h99v-98h-99zM16 999v131h131v-131h-131zM1998 851v99
h99v-99h-99z" />
    <glyph glyph-name="n" unicode="n" 
d="M32 851v99h99v-99h-99zM1163 999v131h131v-131h-131zM1310 983v163h-164v-163h164zM180 1163v131h131v-131h-131zM327 1146v164h-164v-164h164zM688 1343v98h98v-98h-98zM0 0v819h163v164h-163v491h655v-164h164v164h491v-164h164v-1310h-491v983h-492v-983h-491z
M180 1490v132h131v-132h-131zM835 1490v132h131v-132h-131zM524 1671v98h98v-98h-98zM1146 1638v164h164v-164h-164zM704 1851v65h66v-65h-66zM1359 2015v65h66v-65h-66zM32 1998v99h99v-99h-99zM344 1982v131h131v-131h-131zM868 2179v65h65v-65h-65z" />
    <glyph glyph-name="o" unicode="o" 
d="M688 1015v99h98v-99h-98zM1179 1015v99h98v-99h-98zM180 999v131h131v-131h-131zM327 983v163h-164v-163h164zM983 491v492h-164v163h-164v-163h-164v-492h492zM1310 983v163h-164v-163h164zM360 1343v98h98v-98h-98zM999 1327v131h131v-131h-131zM49 1523v66h65v-66h-65
zM1179 1507v98h98v-98h-98zM163 0v163h-163v1147h163v164h164v-164h164v164h164v164h164v-164h164v-164h163v164h164v-164h164v-1147h-164v-163h-1147zM180 1654v131h131v-131h-131zM1343 1835v98h98v-98h-98zM540 2015v65h66v-65h-66zM835 1982v131h131v-131h-131z
M1196 2179v65h65v-65h-65zM196 2162v98h98v-98h-98z" />
    <glyph glyph-name="p" unicode="p" 
d="M1179 851v99h98v-99h-98zM180 835v131h131v-131h-131zM327 819v164h-164v-164h164zM983 491v492h-492v-492h492zM1310 819v164h-164v-164h164zM688 1179v98h98v-98h-98zM819 1146v164h-164v-164h164zM360 1343v98h98v-98h-98zM1163 1327v131h131v-131h-131zM0 -819v2129
h163v164h164v-164h164v164h655v-164h328v-1147h-164v-163h-819v-819h-491zM32 1507v98h99v-98h-99zM999 1490v132h131v-132h-131zM491 1638v164h164v-164h-164zM1196 1851v65h65v-65h-65zM851 1998v99h99v-99h-99zM180 1982v131h131v-131h-131zM49 2179v65h65v-65h-65z
M1343 2162v98h98v-98h-98z" />
    <glyph glyph-name="q" unicode="q" 
d="M1327 835v131h131v-131h-131zM983 491v492h-492v-492h492zM180 999v131h131v-131h-131zM327 983v163h-164v-163h164zM671 1163v131h131v-131h-131zM819 1146v164h-164v-164h164zM360 1343v98h98v-98h-98zM983 -819v819h-820v163h-163v1147h163v164h164v-164h164v164h819
v-164h164v-327h-164v-164h164v-1638h-491zM540 1523v66h66v-66h-66zM1359 1523v66h66v-66h-66zM835 1490v132h131v-132h-131zM180 1654v131h131v-131h-131zM688 1835v98h98v-98h-98zM1163 1818v131h131v-131h-131zM32 1998v99h99v-99h-99zM376 2179v65h66v-65h-66z
M1196 2179v65h65v-65h-65z" />
    <glyph glyph-name="r" unicode="r" 
d="M344 835v131h131v-131h-131zM1343 1015v99h98v-99h-98zM32 1179v98h99v-98h-99zM671 1327v131h131v-131h-131zM1359 1523v66h66v-66h-66zM0 0v1146h163v328h164v164h164v-164h164v-164h164v164h491v-164h164v-164h-164v-163h164v-164h-491v164h-656v-164h164v-819h-491z
M32 1671v98h99v-98h-99zM835 1654v131h131v-131h-131zM376 1851v65h66v-65h-66zM1032 1851v65h65v-65h-65zM688 1998v99h98v-99h-98zM1343 2162v98h98v-98h-98zM180 2146v131h131v-131h-131z" />
    <glyph glyph-name="s" unicode="s" 
d="M32 1015v99h99v-99h-99zM999 999v131h131v-131h-131zM1015 1343v98h99v-98h-99zM507 1327v131h131v-131h-131zM0 0v491h983v164h-820v164h-163v164h163v163h-163v164h163v164h328v-164h164v164h328v-164h163v164h328v-491h-328v163h-163v-163h-492v-164h819v-164h164
v-492h-164v-163h-1310zM1032 1523v66h65v-66h-65zM1343 1507v98h98v-98h-98zM180 1490v132h131v-132h-131zM524 1671v98h98v-98h-98zM212 1851v65h66v-65h-66zM1359 1851v65h66v-65h-66zM835 1818v131h131v-131h-131zM540 2015v65h66v-65h-66zM32 2162v98h99v-98h-99z
M1179 2162v98h98v-98h-98z" />
    <glyph glyph-name="t" unicode="t" horiz-adv-x="1474" 
d="M507 999v131h131v-131h-131zM655 983v163h-164v-163h164zM1015 1179v98h99v-98h-99zM1146 1146v164h-163v-164h163zM32 1343v98h99v-98h-99zM212 1523v66h66v-66h-66zM999 1490v132h131v-132h-131zM671 1654v131h131v-131h-131zM360 1835v98h98v-98h-98zM1179 1835v98h98
v-98h-98zM16 1818v131h131v-131h-131zM491 0v163h-164v820h-327v327h163v164h164v328h164v164h328v-164h-164v-164h164v-164h491v-491h-491v-492h491v-491h-819zM212 2015v65h66v-65h-66zM1032 2015v65h65v-65h-65zM524 2162v98h98v-98h-98zM1032 2342v66h65v-66h-65z
M196 2326v98h98v-98h-98zM671 2473v132h131v-132h-131zM376 2670v66h66v-66h-66zM540 2834v65h66v-65h-66z" />
    <glyph glyph-name="u" unicode="u" 
d="M16 999v131h131v-131h-131zM1163 999v131h131v-131h-131zM1310 983v163h-164v-163h164zM196 1343v98h98v-98h-98zM1343 1343v98h98v-98h-98zM163 0v163h-163v820h163v163h-163v328h163v-164h164v164h164v-983h492v983h327v-164h164v-1147h-164v-163h-1147zM1359 1523v66
h66v-66h-66zM32 1507v98h99v-98h-99zM1015 1507v98h99v-98h-99zM344 1654v131h131v-131h-131zM49 1851v65h65v-65h-65zM1163 1818v131h131v-131h-131zM1359 2015v65h66v-65h-66zM180 1982v131h131v-131h-131zM1032 2179v65h65v-65h-65z" />
    <glyph glyph-name="v" unicode="v" 
d="M32 851v99h99v-99h-99zM1163 835v131h131v-131h-131zM1310 819v164h-164v-164h164zM180 1163v131h131v-131h-131zM327 1146v164h-164v-164h164zM1179 1343v98h98v-98h-98zM491 0v163h-164v164h-164v164h-163v328h163v164h-163v491h491v-655h164v-164h164v164h164v655h163
v-164h164v164h164v-983h-164v-164h-164v-164h-163v-163h-492zM1032 1523v66h65v-66h-65zM32 1671v98h99v-98h-99zM344 1654v131h131v-131h-131zM1163 1654v131h131v-131h-131zM212 1851v65h66v-65h-66zM1015 1835v98h99v-98h-99zM16 1982v131h131v-131h-131zM376 2179v65h66
v-65h-66zM1359 2179v65h66v-65h-66z" />
    <glyph glyph-name="w" unicode="w" horiz-adv-x="2293" 
d="M360 851v99h98v-99h-98zM1654 835v131h131v-131h-131zM851 1015v99h99v-99h-99zM16 999v131h131v-131h-131zM1998 1179v98h99v-98h-99zM999 1327v131h131v-131h-131zM163 0v163h-163v820h163v163h-163v328h491v-491h-164v-164h164v-328h328v492h164v163h-164v328h164
v-164h163v164h164v-983h328v328h164v164h-164v491h491v-164h-163v-164h163v-983h-163v-163h-820v163h-163v-163h-820zM868 1523v66h65v-66h-65zM32 1507v98h99v-98h-99zM1998 1507v98h99v-98h-99zM1179 1671v98h98v-98h-98zM1671 1671v98h98v-98h-98zM344 1654v131h131v-131
h-131zM32 1835v98h99v-98h-99zM835 1818v131h131v-131h-131zM1818 1982v131h131v-131h-131zM212 2179v65h66v-65h-66zM1032 2179v65h65v-65h-65zM1687 2179v65h66v-65h-66z" />
    <glyph glyph-name="x" unicode="x" 
d="M671 835v131h131v-131h-131zM1179 1179v98h98v-98h-98zM16 1163v131h131v-131h-131zM1310 1146v164h-164v-164h164zM360 1343v98h98v-98h-98zM0 0v655h163v164h-163v327h163v164h-163v164h327v-164h164v-327h164v-164h164v164h164v491h491v-655h-164v-164h164v-655h-491
v491h-492v-491h-491zM49 1523v66h65v-66h-65zM1196 1523v66h65v-66h-65zM1015 1671v98h99v-98h-99zM180 1654v131h131v-131h-131zM1327 1818v131h131v-131h-131zM1032 2015v65h65v-65h-65zM32 1998v99h99v-99h-99zM376 2179v65h66v-65h-66zM1359 2179v65h66v-65h-66z" />
    <glyph glyph-name="y" unicode="y" 
d="M32 851v99h99v-99h-99zM999 999v131h131v-131h-131zM180 1163v131h131v-131h-131zM327 1146v164h-164v-164h164zM1343 1343v98h98v-98h-98zM1015 1507v98h99v-98h-99zM163 -819v164h-163v492h491v-164h492v327h-820v163h-163v656h163v164h-163v491h163v164h164v-164h164
v-983h492v492h163v163h-163v328h327v-164h164v-1965h-164v-164h-1147zM49 1687v66h65v-66h-65zM1163 1654v131h131v-131h-131zM360 1835v98h98v-98h-98zM1359 2015v65h66v-65h-66zM16 1982v131h131v-131h-131zM212 2179v65h66v-65h-66zM983 2129v164h163v-164h-163z" />
    <glyph glyph-name="z" unicode="z" 
d="M1343 851v99h98v-99h-98zM180 1163v131h131v-131h-131zM327 1146v164h-164v-164h164zM524 1343v98h98v-98h-98zM835 1327v131h131v-131h-131zM0 0v819h983v164h-983v491h491v-164h164v164h164v-164h164v164h491v-491h-164v-164h164v-164h-983v-164h983v-491h-1474z
M49 1523v66h65v-66h-65zM1015 1507v98h99v-98h-99zM344 1490v132h131v-132h-131zM196 1671v98h98v-98h-98zM1163 1654v131h131v-131h-131zM655 1638v164h164v-164h-164zM688 1998v99h98v-99h-98zM16 1982v131h131v-131h-131zM540 2179v65h66v-65h-66zM1196 2179v65h65v-65
h-65z" />
    <glyph glyph-name="braceleft" unicode="{" horiz-adv-x="983" 
d="M344 1490v132h131v-132h-131zM360 2162v98h98v-98h-98zM327 2293v-164h164v164h-164zM491 1474v164h-164v-164h164zM327 2293v164h328v-164h164v-327h-164v-656h-164v-164h164v-655h164v-491h-492v163h-164v820h-163v491h163v328h164v164h-164v327h164zM212 2998v65h66
v-65h-66zM524 2818v98h98v-98h-98zM32 2654v98h99v-98h-99zM376 2670v66h66v-66h-66zM704 2506v66h66v-66h-66zM671 2310v131h131v-131h-131zM180 1818v131h131v-131h-131zM49 1687v66h65v-66h-65z" />
    <glyph glyph-name="bar" unicode="|" horiz-adv-x="655" 
d="M196 2326v98h98v-98h-98zM327 2293v164h-164v-164h164zM327 2293v-164h164v-491h-164v-164h164v-1637h-491v1965h163v164h-163v655h491v-328h-164zM49 3162v65h65v-65h-65zM196 2981v99h98v-99h-98zM16 2637v131h131v-131h-131zM376 2670v66h66v-66h-66zM344 2146v131
h131v-131h-131zM32 1835v98h99v-98h-99zM344 1490v132h131v-132h-131z" />
    <glyph glyph-name="braceright" unicode="}" horiz-adv-x="983" 
d="M196 1507v98h98v-98h-98zM507 1654v131h131v-131h-131zM524 1998v99h98v-99h-98zM180 2146v131h131v-131h-131zM327 2129v164h-164v-164h164zM0 0v491h163v655h164v164h-164v164h164v164h-164v328h-163v491h491v-164h164v-164h-164v-163h164v-164h-164v-164h164v-164h164
v-491h-164v-820h-164v-163h-491zM540 2506v66h66v-66h-66zM196 2654v98h98v-98h-98zM49 2998v65h65v-65h-65zM524 2981v99h98v-99h-98zM180 3129v131h131v-131h-131z" />
    <glyph glyph-name="asciitilde" unicode="~" 
d="M540 1032v65h66v-65h-66zM16 999v131h131v-131h-131zM999 999v131h131v-131h-131zM507 1327v131h131v-131h-131zM163 983v163h-163v164h163v164h328v-164h164v164h164v-164h164v164h491v-328h-164v-163h-164v163h-163v-163h-328v163h-164v-163h-328zM49 1523v66h65v-66
h-65zM344 1490v132h131v-132h-131zM868 1687v66h65v-66h-65zM524 1671v98h98v-98h-98zM1327 1654v131h131v-131h-131zM180 1818v131h131v-131h-131zM1015 1998v99h99v-99h-99zM49 2179v65h65v-65h-65zM1359 2179v65h66v-65h-66zM671 2146v131h131v-131h-131z" />
    <glyph glyph-name="exclamdown" unicode="&#xa1;" horiz-adv-x="655" 
d="M196 2162v98h98v-98h-98zM163 2293v-164h164v164h-164zM163 2293v164h328v-491h-491v327h163zM16 3129v131h131v-131h-131zM376 2998v65h66v-65h-66zM180 2801v131h131v-131h-131zM49 2670v66h65v-66h-65zM376 2506v66h66v-66h-66zM16 2310v131h131v-131h-131zM212 1851
v65h66v-65h-66zM0 0v1474h163v164h328v-328h-164v-164h164v-1146h-491zM16 1490v132h131v-132h-131zM360 1179v98h98v-98h-98z" />
    <glyph glyph-name="cent" unicode="&#xa2;" 
d="M180 999v131h131v-131h-131zM507 1327v131h131v-131h-131zM1163 999v131h131v-131h-131zM491 1474v-164h164v164h-164zM1310 983v163h-164v-163h164zM327 983v163h-164v-163h164zM491 1474v328h492v-328h327v-164h164v-491h-491v164h-164v163h-164v-163h-164v-492h492
v164h491v-492h-164v-163h-327v-327h-492v327h-328v163h-163v1147h163v164h328zM32 2162v98h99v-98h-99zM868 2179v65h65v-65h-65zM507 1982v131h131v-131h-131zM1015 1998v99h99v-99h-99zM1359 1851v65h66v-65h-66zM212 1851v65h66v-65h-66zM1163 1654v131h131v-131h-131z
M344 1654v131h131v-131h-131zM32 1507v98h99v-98h-99zM688 1015v99h98v-99h-98z" />
    <glyph glyph-name="sterling" unicode="&#xa3;" 
d="M344 1163v131h131v-131h-131zM507 1982v131h131v-131h-131zM655 1966v163h-164v-163h164zM491 1146v164h-164v-164h164zM655 1966v-492h491v-491h-491v-492h328v164h491v-655h-1311v983h-163v491h163v164h164v164h-164v491h164v164h492v-164h327v164h164v-164h164v-491
h-164v164h-164v-164h-163v164h-328zM180 3129v131h131v-131h-131zM1179 2981v99h98v-99h-98zM868 2998v65h65v-65h-65zM360 2818v98h98v-98h-98zM49 2834v65h65v-65h-65zM1032 2670v66h65v-66h-65zM688 2490v98h98v-98h-98zM1359 2506v66h66v-66h-66zM376 2506v66h66v-66
h-66zM999 2310v131h131v-131h-131zM851 2326v98h99v-98h-99zM1163 1818v131h131v-131h-131zM196 1671v98h98v-98h-98z" />
    <glyph glyph-name="currency" unicode="&#xa4;" 
d="M196 360v98h98v-98h-98zM1015 1998v99h99v-99h-99zM704 2015v65h66v-65h-66zM180 1818v131h131v-131h-131zM835 1654v131h131v-131h-131zM360 1507v98h98v-98h-98zM704 1196v65h66v-65h-66zM180 999v131h131v-131h-131zM1015 1015v99h99v-99h-99zM999 671v131h131v-131
h-131zM376 704v66h66v-66h-66zM1179 524v98h98v-98h-98zM688 524v98h98v-98h-98zM1032 540v66h65v-66h-65zM655 2129v-163h164v163h-164zM1146 1966v163h-163v-163h163zM327 1802v164h-164v-164h164zM983 1638v164h-164v-164h164zM491 1474v164h-164v-164h164zM819 1146v164
h-164v-164h164zM1146 983v163h-163v-163h163zM1310 491v164h-164v164h-163v-328h327zM491 655v164h-164v-164h164zM819 491v164h-164v-164h164zM327 327v164h-164v-164h164zM163 983h164v163h-164v-163zM655 2129v164h655v-164h164v-327h-164v-164h164v-164h-164v-164h164
v-1310h-164v163h-164v-163h-327v163h-328v-163h-328v163h-163v656h163v164h-163v1146h163v164h328v-164h164zM524 2162v98h98v-98h-98zM32 2162v98h99v-98h-99zM1359 2179v65h66v-65h-66zM1343 1671v98h98v-98h-98zM1359 1359v66h66v-66h-66zM49 868v65h65v-65h-65zM1163 16
v131h131v-131h-131zM16 16v131h131v-131h-131zM688 32v99h98v-99h-98zM540 49v65h66v-65h-66z" />
    <glyph glyph-name="yen" unicode="&#xa5;" 
d="M32 1343v98h99v-98h-99zM1163 1490v132h131v-132h-131zM1310 1474v164h-164v-164h164zM180 1654v131h131v-131h-131zM327 1638v164h-164v-164h164zM1179 1835v98h98v-98h-98zM1310 1802v164h-164v-164h164zM360 2162v98h98v-98h-98zM16 2310v131h131v-131h-131z
M1163 2310v131h131v-131h-131zM491 0v163h-328v492h328v328h-328v163h-163v164h163v164h-163v819h163v164h328v-164h-164v-164h164v-655h492v983h163v-164h164v164h164v-1311h-164v-163h-327v-328h327v-492h-327v-163h-492zM376 2506v66h66v-66h-66zM999 2473v132h131v-132
h-131zM1343 2654v98h98v-98h-98zM180 2637v131h131v-131h-131zM1032 2834v65h65v-65h-65zM1179 2981v99h98v-99h-98zM344 2965v131h131v-131h-131zM1032 3162v65h65v-65h-65zM32 3145v99h99v-99h-99z" />
    <glyph glyph-name="brokenbar" unicode="&#xa6;" horiz-adv-x="655" 
d="M196 2326v98h98v-98h-98zM327 2293v164h-164v-164h164zM327 2293v-164h164v-491h-164v-164h164v-164h-491v492h163v164h-163v655h491v-328h-164zM49 3162v65h65v-65h-65zM196 2981v99h98v-99h-98zM16 2637v131h131v-131h-131zM376 2670v66h66v-66h-66zM344 2146v131h131
v-131h-131zM32 1835v98h99v-98h-99zM344 1490v132h131v-132h-131zM0 -163v1309h491v-1309h-491z" />
    <glyph glyph-name="section" unicode="&#xa7;" 
d="M196 360v98h98v-98h-98zM1015 1998v99h99v-99h-99zM704 2015v65h66v-65h-66zM180 1818v131h131v-131h-131zM835 1654v131h131v-131h-131zM360 1507v98h98v-98h-98zM704 1196v65h66v-65h-66zM180 999v131h131v-131h-131zM1015 1015v99h99v-99h-99zM999 671v131h131v-131
h-131zM376 704v66h66v-66h-66zM1179 524v98h98v-98h-98zM688 524v98h98v-98h-98zM1032 540v66h65v-66h-65zM655 2129v-163h164v163h-164zM1146 1966v163h-163v-163h163zM327 1802v164h-164v-164h164zM983 1638v164h-164v-164h164zM491 1474v164h-164v-164h164zM819 1146v164
h-164v-164h164zM1146 983v163h-163v-163h163zM1310 491v164h-164v164h-163v-328h327zM491 655v164h-164v-164h164zM819 491v164h-164v-164h164zM327 327v164h-164v-164h164zM163 983h164v163h-164v-163zM655 2129v164h655v-164h164v-327h-164v-164h164v-164h-164v-164h164
v-1310h-164v163h-164v-163h-327v163h-328v-163h-328v163h-163v656h163v164h-163v1146h163v164h328v-164h164zM524 2162v98h98v-98h-98zM32 2162v98h99v-98h-99zM1359 2179v65h66v-65h-66zM1343 1671v98h98v-98h-98zM1359 1359v66h66v-66h-66zM49 868v65h65v-65h-65zM1163 16
v131h131v-131h-131zM16 16v131h131v-131h-131zM688 32v99h98v-99h-98zM540 49v65h66v-65h-66z" />
    <glyph glyph-name="dieresis" unicode="&#xa8;" horiz-adv-x="1310" 
d="M360 1998v99h98v-99h-98zM16 1982v131h131v-131h-131zM835 1982v131h131v-131h-131zM851 2326v98h99v-98h-99zM180 2310v131h131v-131h-131zM163 1966v163h-163v328h163v-164h164v164h164v-328h-164v-163h-164zM655 1966v491h164v-164h164v164h163v-491h-163v163h-164
v-163h-164z" />
    <glyph glyph-name="copyright" unicode="&#xa9;" 
d="M196 360v98h98v-98h-98zM1015 1998v99h99v-99h-99zM704 2015v65h66v-65h-66zM180 1818v131h131v-131h-131zM835 1654v131h131v-131h-131zM360 1507v98h98v-98h-98zM704 1196v65h66v-65h-66zM180 999v131h131v-131h-131zM1015 1015v99h99v-99h-99zM999 671v131h131v-131
h-131zM376 704v66h66v-66h-66zM1179 524v98h98v-98h-98zM688 524v98h98v-98h-98zM1032 540v66h65v-66h-65zM655 2129v-163h164v163h-164zM1146 1966v163h-163v-163h163zM327 1802v164h-164v-164h164zM983 1638v164h-164v-164h164zM491 1474v164h-164v-164h164zM819 1146v164
h-164v-164h164zM1146 983v163h-163v-163h163zM1310 491v164h-164v164h-163v-328h327zM491 655v164h-164v-164h164zM819 491v164h-164v-164h164zM327 327v164h-164v-164h164zM163 983h164v163h-164v-163zM655 2129v164h655v-164h164v-327h-164v-164h164v-164h-164v-164h164
v-1310h-164v163h-164v-163h-327v163h-328v-163h-328v163h-163v656h163v164h-163v1146h163v164h328v-164h164zM524 2162v98h98v-98h-98zM32 2162v98h99v-98h-99zM1359 2179v65h66v-65h-66zM1343 1671v98h98v-98h-98zM1359 1359v66h66v-66h-66zM49 868v65h65v-65h-65zM1163 16
v131h131v-131h-131zM16 16v131h131v-131h-131zM688 32v99h98v-99h-98zM540 49v65h66v-65h-66z" />
    <glyph glyph-name="ordfeminine" unicode="&#xaa;" 
d="M1179 1835v98h98v-98h-98zM983 1474v492h-492v-492h492zM1310 1802v164h-164v-164h164zM180 1982v131h131v-131h-131zM327 1966v163h-164v-163h164zM360 2326v98h98v-98h-98zM835 2310v131h131v-131h-131zM163 983v163h-163v1147h163v164h164v-164h164v164h328v-164h164
v164h491v-1474h-1311zM1032 2506v66h65v-66h-65zM1179 2490v98h98v-98h-98zM507 2473v132h131v-132h-131zM376 2670v66h66v-66h-66zM0 2621v164h163v-164h-163zM851 2818v98h99v-98h-99zM1343 2981v99h98v-99h-98zM344 2965v131h131v-131h-131zM999 2965v131h131v-131h-131z
M49 3162v65h65v-65h-65zM704 3162v65h66v-65h-66z" />
    <glyph glyph-name="guillemotleft" unicode="&#xab;" 
d="M196 360v98h98v-98h-98zM1015 1998v99h99v-99h-99zM704 2015v65h66v-65h-66zM180 1818v131h131v-131h-131zM835 1654v131h131v-131h-131zM360 1507v98h98v-98h-98zM704 1196v65h66v-65h-66zM180 999v131h131v-131h-131zM1015 1015v99h99v-99h-99zM999 671v131h131v-131
h-131zM376 704v66h66v-66h-66zM1179 524v98h98v-98h-98zM688 524v98h98v-98h-98zM1032 540v66h65v-66h-65zM655 2129v-163h164v163h-164zM1146 1966v163h-163v-163h163zM327 1802v164h-164v-164h164zM983 1638v164h-164v-164h164zM491 1474v164h-164v-164h164zM819 1146v164
h-164v-164h164zM1146 983v163h-163v-163h163zM1310 491v164h-164v164h-163v-328h327zM491 655v164h-164v-164h164zM819 491v164h-164v-164h164zM327 327v164h-164v-164h164zM163 983h164v163h-164v-163zM655 2129v164h655v-164h164v-327h-164v-164h164v-164h-164v-164h164
v-1310h-164v163h-164v-163h-327v163h-328v-163h-328v163h-163v656h163v164h-163v1146h163v164h328v-164h164zM524 2162v98h98v-98h-98zM32 2162v98h99v-98h-99zM1359 2179v65h66v-65h-66zM1343 1671v98h98v-98h-98zM1359 1359v66h66v-66h-66zM49 868v65h65v-65h-65zM1163 16
v131h131v-131h-131zM16 16v131h131v-131h-131zM688 32v99h98v-99h-98zM540 49v65h66v-65h-66z" />
    <glyph glyph-name="logicalnot" unicode="&#xac;" 
d="M1327 671v131h131v-131h-131zM180 999v131h131v-131h-131zM1179 1179v98h98v-98h-98zM1310 1146v164h-164v-164h164zM32 1343v98h99v-98h-99zM507 1327v131h131v-131h-131zM983 655v328h-656v163h-164v-163h-163v327h163v164h328v-164h164v164h819v-655h-164v-164h-327z
M1359 1523v66h66v-66h-66zM835 1490v132h131v-132h-131zM540 1687v66h66v-66h-66zM196 1671v98h98v-98h-98zM1015 1671v98h99v-98h-99zM1359 2015v65h66v-65h-66zM851 1998v99h99v-99h-99zM344 1982v131h131v-131h-131zM49 2342v66h65v-66h-65zM999 2310v131h131v-131h-131z
" />
    <glyph glyph-name="uni00AD" unicode="&#xad;" 
d="M180 999v131h131v-131h-131zM1179 1179v98h98v-98h-98zM1310 1146v164h-164v-164h164zM32 1343v98h99v-98h-99zM507 1327v131h131v-131h-131zM0 983v327h163v164h328v-164h164v164h819v-491h-1147v163h-164v-163h-163zM1359 1523v66h66v-66h-66zM835 1490v132h131v-132
h-131zM540 1687v66h66v-66h-66zM196 1671v98h98v-98h-98zM1015 1671v98h99v-98h-99zM1359 2015v65h66v-65h-66zM851 1998v99h99v-99h-99zM344 1982v131h131v-131h-131zM49 2342v66h65v-66h-65zM999 2310v131h131v-131h-131z" />
    <glyph glyph-name="registered" unicode="&#xae;" 
d="M196 360v98h98v-98h-98zM1015 1998v99h99v-99h-99zM704 2015v65h66v-65h-66zM180 1818v131h131v-131h-131zM835 1654v131h131v-131h-131zM360 1507v98h98v-98h-98zM704 1196v65h66v-65h-66zM180 999v131h131v-131h-131zM1015 1015v99h99v-99h-99zM999 671v131h131v-131
h-131zM376 704v66h66v-66h-66zM1179 524v98h98v-98h-98zM688 524v98h98v-98h-98zM1032 540v66h65v-66h-65zM655 2129v-163h164v163h-164zM1146 1966v163h-163v-163h163zM327 1802v164h-164v-164h164zM983 1638v164h-164v-164h164zM491 1474v164h-164v-164h164zM819 1146v164
h-164v-164h164zM1146 983v163h-163v-163h163zM1310 491v164h-164v164h-163v-328h327zM491 655v164h-164v-164h164zM819 491v164h-164v-164h164zM327 327v164h-164v-164h164zM163 983h164v163h-164v-163zM655 2129v164h655v-164h164v-327h-164v-164h164v-164h-164v-164h164
v-1310h-164v163h-164v-163h-327v163h-328v-163h-328v163h-163v656h163v164h-163v1146h163v164h328v-164h164zM524 2162v98h98v-98h-98zM32 2162v98h99v-98h-99zM1359 2179v65h66v-65h-66zM1343 1671v98h98v-98h-98zM1359 1359v66h66v-66h-66zM49 868v65h65v-65h-65zM1163 16
v131h131v-131h-131zM16 16v131h131v-131h-131zM688 32v99h98v-99h-98zM540 49v65h66v-65h-66z" />
    <glyph glyph-name="macron" unicode="&#xaf;" 
d="M180 1982v131h131v-131h-131zM1179 2162v98h98v-98h-98zM1310 2129v164h-164v-164h164zM32 2326v98h99v-98h-99zM507 2310v131h131v-131h-131zM0 1966v327h163v164h328v-164h164v164h819v-491h-1147v163h-164v-163h-163z" />
    <glyph glyph-name="degree" unicode="&#xb0;" 
d="M180 1163v131h131v-131h-131zM180 1982v131h131v-131h-131zM1179 1998v99h98v-99h-98zM688 1998v99h98v-99h-98zM163 1146h164v164h-164v-164zM1310 1966v163h-164v-163h164zM983 1474v492h-164v163h-164v-163h-164v-492h492zM327 1966v163h-164v-163h164zM163 1146h-163
v328h163v164h-163v655h163v164h164v-164h164v164h492v-164h163v164h164v-164h164v-655h-164v-164h164v-328h-328v-163h-327v163h-164v-163h-492v163zM999 2310v131h131v-131h-131zM360 2326v98h98v-98h-98zM1327 1490v132h131v-132h-131zM32 1507v98h99v-98h-99zM1163 999
v131h131v-131h-131zM688 1015v99h98v-99h-98z" />
    <glyph glyph-name="plusminus" unicode="&#xb1;" 
d="M196 360v98h98v-98h-98zM1015 1998v99h99v-99h-99zM704 2015v65h66v-65h-66zM180 1818v131h131v-131h-131zM835 1654v131h131v-131h-131zM360 1507v98h98v-98h-98zM704 1196v65h66v-65h-66zM180 999v131h131v-131h-131zM1015 1015v99h99v-99h-99zM999 671v131h131v-131
h-131zM376 704v66h66v-66h-66zM1179 524v98h98v-98h-98zM688 524v98h98v-98h-98zM1032 540v66h65v-66h-65zM655 2129v-163h164v163h-164zM1146 1966v163h-163v-163h163zM327 1802v164h-164v-164h164zM983 1638v164h-164v-164h164zM491 1474v164h-164v-164h164zM819 1146v164
h-164v-164h164zM1146 983v163h-163v-163h163zM1310 491v164h-164v164h-163v-328h327zM491 655v164h-164v-164h164zM819 491v164h-164v-164h164zM327 327v164h-164v-164h164zM163 983h164v163h-164v-163zM655 2129v164h655v-164h164v-327h-164v-164h164v-164h-164v-164h164
v-1310h-164v163h-164v-163h-327v163h-328v-163h-328v163h-163v656h163v164h-163v1146h163v164h328v-164h164zM524 2162v98h98v-98h-98zM32 2162v98h99v-98h-99zM1359 2179v65h66v-65h-66zM1343 1671v98h98v-98h-98zM1359 1359v66h66v-66h-66zM49 868v65h65v-65h-65zM1163 16
v131h131v-131h-131zM16 16v131h131v-131h-131zM688 32v99h98v-99h-98zM540 49v65h66v-65h-66z" />
    <glyph glyph-name="uni00B2" unicode="&#xb2;" 
d="M1163 999v131h131v-131h-131zM524 1179v98h98v-98h-98zM655 1146v164h-164v-164h164zM16 1327v131h131v-131h-131zM1179 1835v98h98v-98h-98zM1310 1802v164h-164v-164h164zM507 1982v131h131v-131h-131zM851 2326v98h99v-98h-99zM180 2310v131h131v-131h-131zM0 983v327
h163v164h-163v328h983v164h-328v163h-164v-163h-491v491h163v-164h164v164h492v-164h164v164h327v-164h164v-655h-983v-164h983v-491h-164v163h-164v-163h-1146z" />
    <glyph glyph-name="uni00B3" unicode="&#xb3;" 
d="M360 1015v99h98v-99h-98zM999 1327v131h131v-131h-131zM1146 1310v164h-163v-164h163zM1015 1671v98h99v-98h-99zM1146 1638v164h-163v-164h163zM16 1982v131h131v-131h-131zM360 2162v98h98v-98h-98zM491 2129v164h-164v-164h164zM835 2310v131h131v-131h-131zM0 983
v491h819v164h-819v164h819v164h-656v163h-163v328h819v-164h164v164h327v-164h164v-491h-164v-164h164v-492h-164v-163h-819v163h-164v-163h-327z" />
    <glyph glyph-name="acute" unicode="&#xb4;" horiz-adv-x="819" 
d="M344 1818v131h131v-131h-131zM32 2162v98h99v-98h-99zM360 2326v98h98v-98h-98zM0 1802v327h163v328h164v-164h164v164h164v-491h-328v-164h-327z" />
    <glyph glyph-name="mu" unicode="&#xb5;" 
d="M16 999v131h131v-131h-131zM1163 999v131h131v-131h-131zM1310 983v163h-164v-163h164zM196 1343v98h98v-98h-98zM1343 1343v98h98v-98h-98zM0 -327v1310h163v163h-163v328h163v-164h164v164h164v-983h492v983h327v-164h164v-1147h-164v-163h-819v-327h-491zM1359 1523
v66h66v-66h-66zM32 1507v98h99v-98h-99zM1015 1507v98h99v-98h-99zM344 1654v131h131v-131h-131zM49 1851v65h65v-65h-65zM1163 1818v131h131v-131h-131zM1359 2015v65h66v-65h-66zM180 1982v131h131v-131h-131zM1032 2179v65h65v-65h-65z" />
    <glyph glyph-name="paragraph" unicode="&#xb6;" 
d="M196 360v98h98v-98h-98zM1015 1998v99h99v-99h-99zM704 2015v65h66v-65h-66zM180 1818v131h131v-131h-131zM835 1654v131h131v-131h-131zM360 1507v98h98v-98h-98zM704 1196v65h66v-65h-66zM180 999v131h131v-131h-131zM1015 1015v99h99v-99h-99zM999 671v131h131v-131
h-131zM376 704v66h66v-66h-66zM1179 524v98h98v-98h-98zM688 524v98h98v-98h-98zM1032 540v66h65v-66h-65zM655 2129v-163h164v163h-164zM1146 1966v163h-163v-163h163zM327 1802v164h-164v-164h164zM983 1638v164h-164v-164h164zM491 1474v164h-164v-164h164zM819 1146v164
h-164v-164h164zM1146 983v163h-163v-163h163zM1310 491v164h-164v164h-163v-328h327zM491 655v164h-164v-164h164zM819 491v164h-164v-164h164zM327 327v164h-164v-164h164zM163 983h164v163h-164v-163zM655 2129v164h655v-164h164v-327h-164v-164h164v-164h-164v-164h164
v-1310h-164v163h-164v-163h-327v163h-328v-163h-328v163h-163v656h163v164h-163v1146h163v164h328v-164h164zM524 2162v98h98v-98h-98zM32 2162v98h99v-98h-99zM1359 2179v65h66v-65h-66zM1343 1671v98h98v-98h-98zM1359 1359v66h66v-66h-66zM49 868v65h65v-65h-65zM1163 16
v131h131v-131h-131zM16 16v131h131v-131h-131zM688 32v99h98v-99h-98zM540 49v65h66v-65h-66z" />
    <glyph glyph-name="periodcentered" unicode="&#xb7;" horiz-adv-x="655" 
d="M344 1163v131h131v-131h-131zM32 1343v98h99v-98h-99zM0 983v327h163v164h328v-164h-164v-164h164v-163h-491z" />
    <glyph glyph-name="cedilla" unicode="&#xb8;" horiz-adv-x="1146" 
d="M327 -491v164h164v327h492v-327h-164v-164h-492z" />
    <glyph glyph-name="uni00B9" unicode="&#xb9;" horiz-adv-x="819" 
d="M524 1179v98h98v-98h-98zM344 1490v132h131v-132h-131zM491 1474v164h-164v-164h164zM32 1998v99h99v-99h-99zM344 2310v131h131v-131h-131zM163 983v1146h-163v328h327v-164h164v164h164v-1147h-164v-164h164v-163h-492z" />
    <glyph glyph-name="ordmasculine" unicode="&#xba;" 
d="M688 1998v99h98v-99h-98zM1179 1998v99h98v-99h-98zM180 1982v131h131v-131h-131zM327 1966v163h-164v-163h164zM983 1474v492h-164v163h-164v-163h-164v-492h492zM1310 1966v163h-164v-163h164zM360 2326v98h98v-98h-98zM999 2310v131h131v-131h-131zM49 2506v66h65v-66
h-65zM1179 2490v98h98v-98h-98zM163 983v163h-163v1147h163v164h164v-164h164v164h164v164h164v-164h164v-164h163v164h164v-164h164v-1147h-164v-163h-1147zM180 2637v131h131v-131h-131zM1343 2818v98h98v-98h-98zM540 2998v65h66v-65h-66zM835 2965v131h131v-131h-131z
M1196 3162v65h65v-65h-65zM196 3145v99h98v-99h-98z" />
    <glyph glyph-name="guillemotright" unicode="&#xbb;" 
d="M196 360v98h98v-98h-98zM1015 1998v99h99v-99h-99zM704 2015v65h66v-65h-66zM180 1818v131h131v-131h-131zM835 1654v131h131v-131h-131zM360 1507v98h98v-98h-98zM704 1196v65h66v-65h-66zM180 999v131h131v-131h-131zM1015 1015v99h99v-99h-99zM999 671v131h131v-131
h-131zM376 704v66h66v-66h-66zM1179 524v98h98v-98h-98zM688 524v98h98v-98h-98zM1032 540v66h65v-66h-65zM655 2129v-163h164v163h-164zM1146 1966v163h-163v-163h163zM327 1802v164h-164v-164h164zM983 1638v164h-164v-164h164zM491 1474v164h-164v-164h164zM819 1146v164
h-164v-164h164zM1146 983v163h-163v-163h163zM1310 491v164h-164v164h-163v-328h327zM491 655v164h-164v-164h164zM819 491v164h-164v-164h164zM327 327v164h-164v-164h164zM163 983h164v163h-164v-163zM655 2129v164h655v-164h164v-327h-164v-164h164v-164h-164v-164h164
v-1310h-164v163h-164v-163h-327v163h-328v-163h-328v163h-163v656h163v164h-163v1146h163v164h328v-164h164zM524 2162v98h98v-98h-98zM32 2162v98h99v-98h-99zM1359 2179v65h66v-65h-66zM1343 1671v98h98v-98h-98zM1359 1359v66h66v-66h-66zM49 868v65h65v-65h-65zM1163 16
v131h131v-131h-131zM16 16v131h131v-131h-131zM688 32v99h98v-99h-98zM540 49v65h66v-65h-66z" />
    <glyph glyph-name="onequarter" unicode="&#xbc;" 
d="M196 360v98h98v-98h-98zM1015 1998v99h99v-99h-99zM704 2015v65h66v-65h-66zM180 1818v131h131v-131h-131zM835 1654v131h131v-131h-131zM360 1507v98h98v-98h-98zM704 1196v65h66v-65h-66zM180 999v131h131v-131h-131zM1015 1015v99h99v-99h-99zM999 671v131h131v-131
h-131zM376 704v66h66v-66h-66zM1179 524v98h98v-98h-98zM688 524v98h98v-98h-98zM1032 540v66h65v-66h-65zM655 2129v-163h164v163h-164zM1146 1966v163h-163v-163h163zM327 1802v164h-164v-164h164zM983 1638v164h-164v-164h164zM491 1474v164h-164v-164h164zM819 1146v164
h-164v-164h164zM1146 983v163h-163v-163h163zM1310 491v164h-164v164h-163v-328h327zM491 655v164h-164v-164h164zM819 491v164h-164v-164h164zM327 327v164h-164v-164h164zM163 983h164v163h-164v-163zM655 2129v164h655v-164h164v-327h-164v-164h164v-164h-164v-164h164
v-1310h-164v163h-164v-163h-327v163h-328v-163h-328v163h-163v656h163v164h-163v1146h163v164h328v-164h164zM524 2162v98h98v-98h-98zM32 2162v98h99v-98h-99zM1359 2179v65h66v-65h-66zM1343 1671v98h98v-98h-98zM1359 1359v66h66v-66h-66zM49 868v65h65v-65h-65zM1163 16
v131h131v-131h-131zM16 16v131h131v-131h-131zM688 32v99h98v-99h-98zM540 49v65h66v-65h-66z" />
    <glyph glyph-name="onehalf" unicode="&#xbd;" 
d="M196 360v98h98v-98h-98zM1015 1998v99h99v-99h-99zM704 2015v65h66v-65h-66zM180 1818v131h131v-131h-131zM835 1654v131h131v-131h-131zM360 1507v98h98v-98h-98zM704 1196v65h66v-65h-66zM180 999v131h131v-131h-131zM1015 1015v99h99v-99h-99zM999 671v131h131v-131
h-131zM376 704v66h66v-66h-66zM1179 524v98h98v-98h-98zM688 524v98h98v-98h-98zM1032 540v66h65v-66h-65zM655 2129v-163h164v163h-164zM1146 1966v163h-163v-163h163zM327 1802v164h-164v-164h164zM983 1638v164h-164v-164h164zM491 1474v164h-164v-164h164zM819 1146v164
h-164v-164h164zM1146 983v163h-163v-163h163zM1310 491v164h-164v164h-163v-328h327zM491 655v164h-164v-164h164zM819 491v164h-164v-164h164zM327 327v164h-164v-164h164zM163 983h164v163h-164v-163zM655 2129v164h655v-164h164v-327h-164v-164h164v-164h-164v-164h164
v-1310h-164v163h-164v-163h-327v163h-328v-163h-328v163h-163v656h163v164h-163v1146h163v164h328v-164h164zM524 2162v98h98v-98h-98zM32 2162v98h99v-98h-99zM1359 2179v65h66v-65h-66zM1343 1671v98h98v-98h-98zM1359 1359v66h66v-66h-66zM49 868v65h65v-65h-65zM1163 16
v131h131v-131h-131zM16 16v131h131v-131h-131zM688 32v99h98v-99h-98zM540 49v65h66v-65h-66z" />
    <glyph glyph-name="threequarters" unicode="&#xbe;" 
d="M196 360v98h98v-98h-98zM1015 1998v99h99v-99h-99zM704 2015v65h66v-65h-66zM180 1818v131h131v-131h-131zM835 1654v131h131v-131h-131zM360 1507v98h98v-98h-98zM704 1196v65h66v-65h-66zM180 999v131h131v-131h-131zM1015 1015v99h99v-99h-99zM999 671v131h131v-131
h-131zM376 704v66h66v-66h-66zM1179 524v98h98v-98h-98zM688 524v98h98v-98h-98zM1032 540v66h65v-66h-65zM655 2129v-163h164v163h-164zM1146 1966v163h-163v-163h163zM327 1802v164h-164v-164h164zM983 1638v164h-164v-164h164zM491 1474v164h-164v-164h164zM819 1146v164
h-164v-164h164zM1146 983v163h-163v-163h163zM1310 491v164h-164v164h-163v-328h327zM491 655v164h-164v-164h164zM819 491v164h-164v-164h164zM327 327v164h-164v-164h164zM163 983h164v163h-164v-163zM655 2129v164h655v-164h164v-327h-164v-164h164v-164h-164v-164h164
v-1310h-164v163h-164v-163h-327v163h-328v-163h-328v163h-163v656h163v164h-163v1146h163v164h328v-164h164zM524 2162v98h98v-98h-98zM32 2162v98h99v-98h-99zM1359 2179v65h66v-65h-66zM1343 1671v98h98v-98h-98zM1359 1359v66h66v-66h-66zM49 868v65h65v-65h-65zM1163 16
v131h131v-131h-131zM16 16v131h131v-131h-131zM688 32v99h98v-99h-98zM540 49v65h66v-65h-66z" />
    <glyph glyph-name="questiondown" unicode="&#xbf;" 
d="M851 1179v98h99v-98h-99zM983 1146v164h-164v-164h164zM344 1327v131h131v-131h-131zM376 1687v66h66v-66h-66zM16 1654v131h131v-131h-131zM163 0v163h-163v1147h163v164h164v-164h164v164h164v328h491v-819h-655v-492h492v164h491v-492h-164v-163h-1147zM212 2015v65
h66v-65h-66zM688 1998v99h98v-99h-98zM360 2162v98h98v-98h-98zM835 2310v131h131v-131h-131zM819 1966v163h-164v328h164v-164h164v164h163v-491h-327zM999 2473v132h131v-132h-131zM851 2654v98h99v-98h-99zM704 2834v65h66v-65h-66zM1032 2998v65h65v-65h-65zM851 3145
v99h99v-99h-99z" />
    <glyph glyph-name="Agrave" unicode="&#xc0;" 
d="M1179 1179v98h98v-98h-98zM196 1507v98h98v-98h-98zM180 1982v131h131v-131h-131zM851 2162v98h99v-98h-99zM524 2981v99h98v-99h-98zM983 2293h-164v-164h164v164zM1310 1146v164h-164v-164h164zM327 1474v164h-164v-164h164zM983 1474v492h-492v-492h492zM327 1966v163
h-164v-163h164zM655 2949v163h-164v-163h164zM983 2293h163v164h164v-164h164v-327h-164v-164h164v-1802h-491v983h-492v-983h-491v2293h163v164h164v-164h164v164h492v-164zM1327 1818v131h131v-131h-131zM360 2326v98h98v-98h-98zM999 2310v131h131v-131h-131zM524 2654
v98h98v-98h-98zM16 2637v131h131v-131h-131zM999 2637v131h131v-131h-131zM212 2998v65h66v-65h-66zM868 2998v65h65v-65h-65zM1146 2949v163h164v-163h-164zM1032 3162v65h65v-65h-65zM655 2621v164h-328v491h492v-327h164v-328h-328z" />
    <glyph glyph-name="Aacute" unicode="&#xc1;" 
d="M1179 1179v98h98v-98h-98zM196 1507v98h98v-98h-98zM180 1982v131h131v-131h-131zM851 2162v98h99v-98h-99zM983 2293h-164v-164h164v164zM1310 1146v164h-164v-164h164zM327 1474v164h-164v-164h164zM983 1474v492h-492v-492h492zM327 1966v163h-164v-163h164zM983 2293
h163v164h164v-164h164v-327h-164v-164h164v-1802h-491v983h-492v-983h-491v2293h163v164h164v-164h164v164h492v-164zM1327 1818v131h131v-131h-131zM360 2326v98h98v-98h-98zM999 2310v131h131v-131h-131zM16 2637v131h131v-131h-131zM835 2637v131h131v-131h-131z
M212 2998v65h66v-65h-66zM524 2981v99h98v-99h-98zM851 3145v99h99v-99h-99zM491 2621v328h164v327h164v-164h164v164h163v-491h-327v-164h-328z" />
    <glyph glyph-name="Acircumflex" unicode="&#xc2;" 
d="M1179 1179v98h98v-98h-98zM851 2162v98h99v-98h-99zM180 1982v131h131v-131h-131zM196 1507v98h98v-98h-98zM983 2293h-164v-164h164v164zM327 1966v163h-164v-163h164zM983 1474v492h-492v-492h492zM327 1474v164h-164v-164h164zM1310 1146v164h-164v-164h164zM983 2293
h163v164h164v-164h164v-327h-164v-164h164v-1802h-491v983h-492v-983h-491v2293h163v164h164v-164h164v164h492v-164zM327 2621v328h164v163h164v164h164v-164h164v-163h163v-328h-327v164h-164v-164h-328zM1032 3162v65h65v-65h-65zM1146 2949v163h164v-163h-164zM212 2998
v65h66v-65h-66zM16 2637v131h131v-131h-131zM999 2310v131h131v-131h-131zM360 2326v98h98v-98h-98zM1327 1818v131h131v-131h-131z" />
    <glyph glyph-name="Atilde" unicode="&#xc3;" 
d="M1179 1179v98h98v-98h-98zM851 2162v98h99v-98h-99zM180 1982v131h131v-131h-131zM196 1507v98h98v-98h-98zM983 2293h-164v-164h164v164zM327 1966v163h-164v-163h164zM983 1474v492h-492v-492h492zM327 1474v164h-164v-164h164zM1310 1146v164h-164v-164h164zM983 2293
h163v164h164v-164h164v-327h-164v-164h164v-1802h-491v983h-492v-983h-491v2293h163v164h164v-164h164v164h492v-164zM1032 3162v65h65v-65h-65zM163 2621v164h-163v164h163v163h328v-163h164v163h164v-163h164v163h491v-327h-164v-164h-164v164h-163v-164h-328v164h-164
v-164h-328zM507 2965v131h131v-131h-131zM999 2637v131h131v-131h-131zM16 2637v131h131v-131h-131zM540 2670v66h66v-66h-66zM999 2310v131h131v-131h-131zM360 2326v98h98v-98h-98zM1327 1818v131h131v-131h-131z" />
    <glyph glyph-name="Adieresis" unicode="&#xc4;" 
d="M1179 1179v98h98v-98h-98zM851 2162v98h99v-98h-99zM180 1982v131h131v-131h-131zM196 1507v98h98v-98h-98zM983 2293h-164v-164h164v164zM327 1966v163h-164v-163h164zM983 1474v492h-492v-492h492zM327 1474v164h-164v-164h164zM1310 1146v164h-164v-164h164zM983 2293
h163v164h164v-164h164v-327h-164v-164h164v-1802h-491v983h-492v-983h-491v2293h163v164h164v-164h164v164h492v-164zM1032 3162v65h65v-65h-65zM819 2621v491h164v-163h163v163h164v-491h-164v164h-163v-164h-164zM327 2621v164h-164v327h164v-163h164v163h164v-327h-164
v-164h-164zM344 2965v131h131v-131h-131zM1015 2981v99h99v-99h-99zM999 2637v131h131v-131h-131zM180 2637v131h131v-131h-131zM16 2637v131h131v-131h-131zM524 2654v98h98v-98h-98zM999 2310v131h131v-131h-131zM360 2326v98h98v-98h-98zM1327 1818v131h131v-131h-131z
" />
    <glyph glyph-name="Aring" unicode="&#xc5;" 
d="M1179 1179v98h98v-98h-98zM851 2162v98h99v-98h-99zM180 1982v131h131v-131h-131zM196 1507v98h98v-98h-98zM983 2293h-164v-164h164v164zM819 2785v327h-164v-327h164zM327 1966v163h-164v-163h164zM983 1474v492h-492v-492h492zM327 1474v164h-164v-164h164zM1310 1146
v164h-164v-164h164zM983 2293h163v164h164v-164h164v-327h-164v-164h164v-1802h-491v983h-492v-983h-491v2293h163v164h164v-164h164v164h492v-164zM491 2621v164h-164v327h164v164h492v-164h327v-163h-164v-164h-163v-164h-492zM1032 3162v65h65v-65h-65zM212 2998v65h66
v-65h-66zM999 2637v131h131v-131h-131zM16 2637v131h131v-131h-131zM999 2310v131h131v-131h-131zM360 2326v98h98v-98h-98zM1327 1818v131h131v-131h-131z" />
    <glyph glyph-name="AE" unicode="&#xc6;" horiz-adv-x="2621" 
d="M196 1507v98h98v-98h-98zM851 2162v98h99v-98h-99zM180 1982v131h131v-131h-131zM1179 1835v98h98v-98h-98zM1163 1490v132h131v-132h-131zM983 2293h-164v-164h164v164zM327 1966v163h-164v-163h164zM1310 1802v164h-164v-164h164zM983 1474v492h-492v-492h492z
M1310 1474v164h-164v-164h164zM327 1474v164h-164v-164h164zM983 2293h163v164h328v-164h164v164h164v164h164v-164h163v-164h164v164h164v-491h-491v163h-164v-163h-328v-492h328v-164h164v164h163v-491h-655v-492h983v-491h-1474v983h-492v-983h-491v2293h163v164h164
v-164h164v164h492v-164zM1851 3162v65h65v-65h-65zM1032 3162v65h65v-65h-65zM1146 2949v163h164v-163h-164zM507 2965v131h131v-131h-131zM212 2998v65h66v-65h-66zM1474 2785v164h164v-164h-164zM1982 2801v131h131v-131h-131zM999 2637v131h131v-131h-131zM16 2637v131
h131v-131h-131zM2326 2654v98h98v-98h-98zM540 2670v66h66v-66h-66zM1163 2473v132h131v-132h-131zM2146 2310v131h131v-131h-131zM999 2310v131h131v-131h-131zM1507 2326v98h98v-98h-98zM360 2326v98h98v-98h-98zM1818 1982v131h131v-131h-131zM1835 1343v98h98v-98h-98z
" />
    <glyph glyph-name="Ccedilla" unicode="&#xc7;" 
d="M16 1490v132h131v-132h-131zM196 1835v98h98v-98h-98zM1343 1835v98h98v-98h-98zM327 1802v164h-164v-164h164zM16 2146v131h131v-131h-131zM360 2326v98h98v-98h-98zM999 2310v131h131v-131h-131zM327 -491v164h164v327h-328v163h-163v1311h163v164h-163v491h163v328
h164v-164h164v164h492v-164h163v164h164v-164h164v-327h-164v-164h-327v164h-492v-1475h492v164h491v-492h-164v-163h-327v-327h-164v-164h-492zM835 2473v132h131v-132h-131zM1196 2670v66h65v-66h-65zM524 2654v98h98v-98h-98zM163 2621v164h164v-164h-164zM212 2998v65
h66v-65h-66zM851 2981v99h99v-99h-99zM1146 2949v163h164v-163h-164zM540 3162v65h66v-65h-66z" />
    <glyph glyph-name="Egrave" unicode="&#xc8;" 
d="M851 1343v98h99v-98h-99zM180 1490v132h131v-132h-131zM327 1474v164h-164v-164h164zM196 1835v98h98v-98h-98zM327 1802v164h-164v-164h164zM835 1982v131h131v-131h-131zM524 2326v98h98v-98h-98zM16 2310v131h131v-131h-131zM1163 2310v131h131v-131h-131zM0 0v2293
h163v164h328v-164h164v164h491v-164h164v164h164v-491h-491v163h-164v-163h-328v-492h328v-164h164v164h163v-491h-655v-492h983v-491h-1474zM524 2654v98h98v-98h-98zM1343 2654v98h98v-98h-98zM180 2637v131h131v-131h-131zM999 2801v131h131v-131h-131zM868 2998v65h65
v-65h-65zM524 2981v99h98v-99h-98zM655 2949v163h-164v-163h164zM868 3162v65h65v-65h-65zM655 2621v164h-328v491h492v-327h164v-328h-328z" />
    <glyph glyph-name="Eacute" unicode="&#xc9;" 
d="M851 1343v98h99v-98h-99zM180 1490v132h131v-132h-131zM327 1474v164h-164v-164h164zM196 1835v98h98v-98h-98zM327 1802v164h-164v-164h164zM835 1982v131h131v-131h-131zM524 2326v98h98v-98h-98zM16 2310v131h131v-131h-131zM1163 2310v131h131v-131h-131zM0 0v2293
h163v164h328v-164h164v164h491v-164h164v164h164v-491h-491v163h-164v-163h-328v-492h328v-164h164v164h163v-491h-655v-492h983v-491h-1474zM1343 2654v98h98v-98h-98zM180 2637v131h131v-131h-131zM835 2637v131h131v-131h-131zM360 2981v99h98v-99h-98zM524 2981v99h98
v-99h-98zM851 3145v99h99v-99h-99zM491 2621v328h164v327h164v-164h164v164h163v-491h-327v-164h-328z" />
    <glyph glyph-name="Ecircumflex" unicode="&#xca;" 
d="M851 1343v98h99v-98h-99zM180 1490v132h131v-132h-131zM327 1474v164h-164v-164h164zM196 1835v98h98v-98h-98zM327 1802v164h-164v-164h164zM835 1982v131h131v-131h-131zM524 2326v98h98v-98h-98zM16 2310v131h131v-131h-131zM1163 2310v131h131v-131h-131zM0 0v2293
h163v164h328v-164h164v164h491v-164h164v164h164v-491h-491v163h-164v-163h-328v-492h328v-164h164v164h163v-491h-655v-492h983v-491h-1474zM1343 2654v98h98v-98h-98zM180 2637v131h131v-131h-131zM360 2981v99h98v-99h-98zM327 2621v328h164v163h164v164h164v-164h164
v-163h163v-328h-327v164h-164v-164h-328z" />
    <glyph glyph-name="Edieresis" unicode="&#xcb;" 
d="M851 1343v98h99v-98h-99zM180 1490v132h131v-132h-131zM327 1474v164h-164v-164h164zM196 1835v98h98v-98h-98zM327 1802v164h-164v-164h164zM835 1982v131h131v-131h-131zM524 2326v98h98v-98h-98zM16 2310v131h131v-131h-131zM1163 2310v131h131v-131h-131zM0 0v2293
h163v164h328v-164h164v164h491v-164h164v164h164v-491h-491v163h-164v-163h-328v-492h328v-164h164v164h163v-491h-655v-492h983v-491h-1474zM524 2654v98h98v-98h-98zM1343 2654v98h98v-98h-98zM180 2637v131h131v-131h-131zM999 2637v131h131v-131h-131zM1015 2981v99h99
v-99h-99zM344 2965v131h131v-131h-131zM327 2621v164h-164v327h164v-163h164v163h164v-327h-164v-164h-164zM819 2621v491h164v-163h163v163h164v-491h-164v164h-163v-164h-164zM868 3162v65h65v-65h-65z" />
    <glyph glyph-name="Igrave" unicode="&#xcc;" horiz-adv-x="655" 
d="M344 1327v131h131v-131h-131zM360 1671v98h98v-98h-98zM16 1818v131h131v-131h-131zM180 2310v131h131v-131h-131zM0 0v1802h163v164h-163v491h163v-164h164v164h164v-655h-164v-164h164v-164h-164v-164h164v-1310h-491zM344 2473v132h131v-132h-131zM32 2654v98h99v-98
h-99zM376 2998v65h66v-65h-66zM32 2981v99h99v-99h-99zM163 2949v163h-163v-163h163zM163 2621v164h-326v491h490v-327h164v-328h-328z" />
    <glyph glyph-name="Iacute" unicode="&#xcd;" horiz-adv-x="655" 
d="M344 1327v131h131v-131h-131zM360 1671v98h98v-98h-98zM16 1818v131h131v-131h-131zM180 2310v131h131v-131h-131zM0 0v1802h163v164h-163v491h163v-164h164v164h164v-655h-164v-164h164v-164h-164v-164h164v-1310h-491zM344 2473v132h131v-132h-131zM344 2637v131h131
v-131h-131zM32 2981v99h99v-99h-99zM360 3145v99h98v-99h-98zM0 2621v328h163v327h164v-164h164v164h164v-491h-328v-164h-327z" />
    <glyph glyph-name="Icircumflex" unicode="&#xce;" horiz-adv-x="655" 
d="M344 1327v131h131v-131h-131zM360 1671v98h98v-98h-98zM16 1818v131h131v-131h-131zM180 2310v131h131v-131h-131zM0 0v1802h163v164h-163v491h163v-164h164v164h164v-655h-164v-164h164v-164h-164v-164h164v-1310h-491zM344 2473v132h131v-132h-131zM-163 2621v328h163
v163h163v164h164v-164h164v-163h164v-328h-328v164h-164v-164h-326z" />
    <glyph glyph-name="Idieresis" unicode="&#xcf;" horiz-adv-x="655" 
d="M344 1327v131h131v-131h-131zM360 1671v98h98v-98h-98zM16 1818v131h131v-131h-131zM180 2310v131h131v-131h-131zM0 0v1802h163v164h-163v491h163v-164h164v164h164v-655h-164v-164h164v-164h-164v-164h164v-1310h-491zM344 2473v132h131v-132h-131zM32 2654v98h99v-98
h-99zM-311 2637v131h131v-131h-131zM507 2637v131h131v-131h-131zM524 2981v99h98v-99h-98zM-147 2965v131h131v-131h-131zM-163 2621v164h-164v327h164v-163h163v163h163v-327h-163v-164h-163zM327 2621v491h164v-163h164v163h164v-491h-164v164h-164v-164h-164zM212 3162
v65h66v-65h-66z" />
    <glyph glyph-name="Eth" unicode="&#xd0;" horiz-adv-x="1802" 
d="M1327 1327v131h131v-131h-131zM1474 1310v164h-164v-164h164zM524 1507v98h98v-98h-98zM180 1818v131h131v-131h-131zM1146 491v1475h-491v-328h-164v-164h492v-491h-328v-492h491zM1327 1982v131h131v-131h-131zM1474 1966v163h-164v-163h164zM851 2162v98h99v-98h-99z
M507 2146v131h131v-131h-131zM655 2129v164h-164v-164h164zM983 2129v164h-164v-164h164zM196 2326v98h98v-98h-98zM1163 2473v132h131v-132h-131zM163 0v983h-163v491h163v328h164v164h-164v327h164v164h492v164h164v-164h491v-164h164v-2130h-164v-163h-1311zM1015 2654
v98h99v-98h-99zM327 2621v164h164v-164h-164zM671 2801v131h131v-131h-131zM360 2981v99h98v-99h-98zM1146 2949v163h164v-163h-164zM868 3162v65h65v-65h-65z" />
    <glyph glyph-name="Ntilde" unicode="&#xd1;" 
d="M32 1343v98h99v-98h-99zM1179 1343v98h98v-98h-98zM1310 1310v164h-164v-164h164zM180 1654v131h131v-131h-131zM327 1638v164h-164v-164h164zM1179 1998v99h98v-99h-98zM1310 1966v163h-164v-163h164zM16 2310v131h131v-131h-131zM671 2310v131h131v-131h-131zM0 0v1310
h163v164h-163v819h163v164h492v-164h164v164h491v-164h164v-2293h-491v1966h-492v-1966h-491zM32 2490v98h99v-98h-99zM1343 2490v98h98v-98h-98zM999 2473v132h131v-132h-131zM540 2670v66h66v-66h-66zM16 2637v131h131v-131h-131zM999 2637v131h131v-131h-131zM507 2965
v131h131v-131h-131zM163 2621v164h-163v164h163v163h328v-163h164v163h164v-163h164v163h491v-327h-164v-164h-164v164h-163v-164h-328v164h-164v-164h-328zM540 3162v65h66v-65h-66zM1196 3162v65h65v-65h-65z" />
    <glyph glyph-name="Ograve" unicode="&#xd2;" 
d="M180 1654v131h131v-131h-131zM1327 1654v131h131v-131h-131zM327 1638v164h-164v-164h164zM32 1998v99h99v-99h-99zM507 1982v131h131v-131h-131zM983 491v1475h-328v163h-164v-1638h492zM999 2146v131h131v-131h-131zM1146 2129v164h-163v-164h163zM360 2326v98h98v-98
h-98zM688 2326v98h98v-98h-98zM163 0v163h-163v1803h163v163h-163v164h163v164h164v-164h164v164h164v-164h164v164h491v-164h164v-491h-164v-164h164v-1475h-164v-163h-1147zM540 2506v66h66v-66h-66zM524 2654v98h98v-98h-98zM163 2621v164h164v-164h-164zM1146 2621v164
h164v-164h-164zM212 2998v65h66v-65h-66zM868 2998v65h65v-65h-65zM1359 2998v65h66v-65h-66zM524 2981v99h98v-99h-98zM655 2949v163h-164v-163h164zM32 3145v99h99v-99h-99zM999 3129v131h131v-131h-131zM655 2621v164h-328v491h492v-327h164v-328h-328z" />
    <glyph glyph-name="Oacute" unicode="&#xd3;" 
d="M180 1654v131h131v-131h-131zM1327 1654v131h131v-131h-131zM327 1638v164h-164v-164h164zM32 1998v99h99v-99h-99zM507 1982v131h131v-131h-131zM983 491v1475h-328v163h-164v-1638h492zM999 2146v131h131v-131h-131zM1146 2129v164h-163v-164h163zM360 2326v98h98v-98
h-98zM688 2326v98h98v-98h-98zM163 0v163h-163v1803h163v163h-163v164h163v164h164v-164h164v164h164v-164h164v164h491v-164h164v-491h-164v-164h164v-1475h-164v-163h-1147zM540 2506v66h66v-66h-66zM835 2637v131h131v-131h-131zM163 2621v164h164v-164h-164zM1146 2621
v164h164v-164h-164zM212 2998v65h66v-65h-66zM1359 2998v65h66v-65h-66zM524 2981v99h98v-99h-98zM32 3145v99h99v-99h-99zM851 3145v99h99v-99h-99zM491 2621v328h164v327h164v-164h164v164h163v-491h-327v-164h-328z" />
    <glyph glyph-name="Ocircumflex" unicode="&#xd4;" 
d="M180 1654v131h131v-131h-131zM1327 1654v131h131v-131h-131zM327 1638v164h-164v-164h164zM32 1998v99h99v-99h-99zM507 1982v131h131v-131h-131zM983 491v1475h-328v163h-164v-1638h492zM999 2146v131h131v-131h-131zM1146 2129v164h-163v-164h163zM360 2326v98h98v-98
h-98zM688 2326v98h98v-98h-98zM163 0v163h-163v1803h163v163h-163v164h163v164h164v-164h164v164h164v-164h164v164h491v-164h164v-491h-164v-164h164v-1475h-164v-163h-1147zM540 2506v66h66v-66h-66zM212 2998v65h66v-65h-66zM1359 2998v65h66v-65h-66zM32 3145v99h99v-99
h-99zM999 3129v131h131v-131h-131zM327 2621v328h164v163h164v164h164v-164h164v-163h163v-328h-327v164h-164v-164h-328z" />
    <glyph glyph-name="Otilde" unicode="&#xd5;" 
d="M180 1654v131h131v-131h-131zM1327 1654v131h131v-131h-131zM327 1638v164h-164v-164h164zM32 1998v99h99v-99h-99zM507 1982v131h131v-131h-131zM983 491v1475h-328v163h-164v-1638h492zM999 2146v131h131v-131h-131zM1146 2129v164h-163v-164h163zM360 2326v98h98v-98
h-98zM688 2326v98h98v-98h-98zM163 0v163h-163v1803h163v163h-163v164h163v164h164v-164h164v164h164v-164h164v164h491v-164h164v-491h-164v-164h164v-1475h-164v-163h-1147zM540 2506v66h66v-66h-66zM540 2670v66h66v-66h-66zM16 2637v131h131v-131h-131zM999 2637v131
h131v-131h-131zM507 2965v131h131v-131h-131zM163 2621v164h-163v164h163v163h328v-163h164v163h164v-163h164v163h491v-327h-164v-164h-164v164h-163v-164h-328v164h-164v-164h-328zM32 3145v99h99v-99h-99zM999 3129v131h131v-131h-131z" />
    <glyph glyph-name="Odieresis" unicode="&#xd6;" 
d="M180 1654v131h131v-131h-131zM1327 1654v131h131v-131h-131zM327 1638v164h-164v-164h164zM32 1998v99h99v-99h-99zM507 1982v131h131v-131h-131zM983 491v1475h-328v163h-164v-1638h492zM999 2146v131h131v-131h-131zM1146 2129v164h-163v-164h163zM360 2326v98h98v-98
h-98zM688 2326v98h98v-98h-98zM163 0v163h-163v1803h163v163h-163v164h163v164h164v-164h164v164h164v-164h164v164h491v-164h164v-491h-164v-164h164v-1475h-164v-163h-1147zM540 2506v66h66v-66h-66zM524 2654v98h98v-98h-98zM180 2637v131h131v-131h-131zM999 2637v131
h131v-131h-131zM1359 2998v65h66v-65h-66zM1015 2981v99h99v-99h-99zM344 2965v131h131v-131h-131zM327 2621v164h-164v327h164v-163h164v163h164v-327h-164v-164h-164zM819 2621v491h164v-163h163v163h164v-491h-164v164h-163v-164h-164zM32 3145v99h99v-99h-99zM999 3129
v131h131v-131h-131z" />
    <glyph glyph-name="multiply" unicode="&#xd7;" 
d="M196 360v98h98v-98h-98zM1015 1998v99h99v-99h-99zM704 2015v65h66v-65h-66zM180 1818v131h131v-131h-131zM835 1654v131h131v-131h-131zM360 1507v98h98v-98h-98zM704 1196v65h66v-65h-66zM180 999v131h131v-131h-131zM1015 1015v99h99v-99h-99zM999 671v131h131v-131
h-131zM376 704v66h66v-66h-66zM1179 524v98h98v-98h-98zM688 524v98h98v-98h-98zM1032 540v66h65v-66h-65zM655 2129v-163h164v163h-164zM1146 1966v163h-163v-163h163zM327 1802v164h-164v-164h164zM983 1638v164h-164v-164h164zM491 1474v164h-164v-164h164zM819 1146v164
h-164v-164h164zM1146 983v163h-163v-163h163zM1310 491v164h-164v164h-163v-328h327zM491 655v164h-164v-164h164zM819 491v164h-164v-164h164zM327 327v164h-164v-164h164zM163 983h164v163h-164v-163zM655 2129v164h655v-164h164v-327h-164v-164h164v-164h-164v-164h164
v-1310h-164v163h-164v-163h-327v163h-328v-163h-328v163h-163v656h163v164h-163v1146h163v164h328v-164h164zM524 2162v98h98v-98h-98zM32 2162v98h99v-98h-99zM1359 2179v65h66v-65h-66zM1343 1671v98h98v-98h-98zM1359 1359v66h66v-66h-66zM49 868v65h65v-65h-65zM1163 16
v131h131v-131h-131zM16 16v131h131v-131h-131zM688 32v99h98v-99h-98zM540 49v65h66v-65h-66z" />
    <glyph glyph-name="Oslash" unicode="&#xd8;" 
d="M983 491v492h-492v-492h492zM180 1654v131h131v-131h-131zM1327 1654v131h131v-131h-131zM327 1638v164h-164v-164h164zM32 1998v99h99v-99h-99zM507 1982v131h131v-131h-131zM983 1474v492h-328v163h-164v-655h492zM999 2146v131h131v-131h-131zM1146 2129v164h-163
v-164h163zM360 2326v98h98v-98h-98zM688 2326v98h98v-98h-98zM163 0v163h-163v1803h163v163h-163v164h163v164h164v-164h164v164h164v-164h164v164h491v-164h164v-491h-164v-164h164v-1475h-164v-163h-1147zM540 2506v66h66v-66h-66zM868 2670v66h65v-66h-65zM163 2621v164
h164v-164h-164zM1146 2621v164h164v-164h-164zM212 2998v65h66v-65h-66zM1359 2998v65h66v-65h-66zM507 2965v131h131v-131h-131zM32 3145v99h99v-99h-99zM999 3129v131h131v-131h-131z" />
    <glyph glyph-name="Ugrave" unicode="&#xd9;" 
d="M16 1490v132h131v-132h-131zM1163 1490v132h131v-132h-131zM1310 1474v164h-164v-164h164zM1343 1835v98h98v-98h-98zM32 1998v99h99v-99h-99zM344 2146v131h131v-131h-131zM999 2146v131h131v-131h-131zM163 0v163h-163v1311h163v164h-163v328h163v163h-163v328h491
v-164h-164v-164h164v-1638h492v1638h163v164h-163v164h491v-491h-164v-164h164v-1639h-164v-163h-1147zM49 2506v66h65v-66h-65zM1015 2490v98h99v-98h-99zM1359 2670v66h66v-66h-66zM524 2654v98h98v-98h-98zM180 2637v131h131v-131h-131zM32 2818v98h99v-98h-99zM868 2998
v65h65v-65h-65zM524 2981v99h98v-99h-98zM1163 2965v131h131v-131h-131zM655 2949v163h-164v-163h164zM49 3162v65h65v-65h-65zM1032 3162v65h65v-65h-65zM655 2621v164h-328v491h492v-327h164v-328h-328z" />
    <glyph glyph-name="Uacute" unicode="&#xda;" 
d="M16 1490v132h131v-132h-131zM1163 1490v132h131v-132h-131zM1310 1474v164h-164v-164h164zM1343 1835v98h98v-98h-98zM32 1998v99h99v-99h-99zM344 2146v131h131v-131h-131zM999 2146v131h131v-131h-131zM163 0v163h-163v1311h163v164h-163v328h163v163h-163v328h491
v-164h-164v-164h164v-1638h492v1638h163v164h-163v164h491v-491h-164v-164h164v-1639h-164v-163h-1147zM49 2506v66h65v-66h-65zM1015 2490v98h99v-98h-99zM1359 2670v66h66v-66h-66zM180 2637v131h131v-131h-131zM835 2637v131h131v-131h-131zM32 2818v98h99v-98h-99z
M524 2981v99h98v-99h-98zM1163 2965v131h131v-131h-131zM49 3162v65h65v-65h-65zM360 3145v99h98v-99h-98zM851 3145v99h99v-99h-99zM491 2621v328h164v327h164v-164h164v164h163v-491h-327v-164h-328z" />
    <glyph glyph-name="Ucircumflex" unicode="&#xdb;" 
d="M16 1490v132h131v-132h-131zM1163 1490v132h131v-132h-131zM1310 1474v164h-164v-164h164zM1343 1835v98h98v-98h-98zM32 1998v99h99v-99h-99zM344 2146v131h131v-131h-131zM999 2146v131h131v-131h-131zM163 0v163h-163v1311h163v164h-163v328h163v163h-163v328h491
v-164h-164v-164h164v-1638h492v1638h163v164h-163v164h491v-491h-164v-164h164v-1639h-164v-163h-1147zM49 2506v66h65v-66h-65zM1015 2490v98h99v-98h-99zM1359 2670v66h66v-66h-66zM180 2637v131h131v-131h-131zM32 2818v98h99v-98h-99zM1163 2965v131h131v-131h-131z
M49 3162v65h65v-65h-65zM1032 3162v65h65v-65h-65zM360 3145v99h98v-99h-98zM327 2621v328h164v163h164v164h164v-164h164v-163h163v-328h-327v164h-164v-164h-328z" />
    <glyph glyph-name="Udieresis" unicode="&#xdc;" 
d="M16 1490v132h131v-132h-131zM1163 1490v132h131v-132h-131zM1310 1474v164h-164v-164h164zM1343 1835v98h98v-98h-98zM32 1998v99h99v-99h-99zM344 2146v131h131v-131h-131zM999 2146v131h131v-131h-131zM163 0v163h-163v1311h163v164h-163v328h163v163h-163v328h491
v-164h-164v-164h164v-1638h492v1638h163v164h-163v164h491v-491h-164v-164h164v-1639h-164v-163h-1147zM49 2506v66h65v-66h-65zM1015 2490v98h99v-98h-99zM1359 2670v66h66v-66h-66zM524 2654v98h98v-98h-98zM180 2637v131h131v-131h-131zM999 2637v131h131v-131h-131z
M32 2818v98h99v-98h-99zM1015 2981v99h99v-99h-99zM344 2965v131h131v-131h-131zM327 2621v164h-164v327h164v-163h164v163h164v-327h-164v-164h-164zM819 2621v491h164v-163h163v163h164v-491h-164v164h-163v-164h-164zM49 3162v65h65v-65h-65zM1032 3162v65h65v-65h-65z
M360 3145v99h98v-99h-98z" />
    <glyph glyph-name="Yacute" unicode="&#xdd;" 
d="M32 1343v98h99v-98h-99zM1163 1490v132h131v-132h-131zM1310 1474v164h-164v-164h164zM180 1654v131h131v-131h-131zM327 1638v164h-164v-164h164zM1179 1835v98h98v-98h-98zM1310 1802v164h-164v-164h164zM360 2162v98h98v-98h-98zM16 2310v131h131v-131h-131z
M1163 2310v131h131v-131h-131zM491 0v983h-328v163h-163v164h163v164h-163v819h163v164h328v-164h-164v-164h164v-655h492v983h163v-164h164v164h164v-1311h-164v-163h-327v-983h-492zM376 2506v66h66v-66h-66zM999 2473v132h131v-132h-131zM1343 2654v98h98v-98h-98z
M180 2637v131h131v-131h-131zM835 2637v131h131v-131h-131zM524 2981v99h98v-99h-98zM1179 2981v99h98v-99h-98zM344 2965v131h131v-131h-131zM32 3145v99h99v-99h-99zM851 3145v99h99v-99h-99zM491 2621v328h164v327h164v-164h164v164h163v-491h-327v-164h-328z" />
    <glyph glyph-name="Thorn" unicode="&#xde;" 
d="M1327 999v131h131v-131h-131zM32 1343v98h99v-98h-99zM1179 1343v98h98v-98h-98zM983 983v491h-492v-491h492zM1310 1310v164h-164v-164h164zM180 1654v131h131v-131h-131zM671 1654v131h131v-131h-131zM327 1638v164h-164v-164h164zM819 1638v164h-164v-164h164z
M1015 1835v98h99v-98h-99zM835 1982v131h131v-131h-131zM1179 2162v98h98v-98h-98zM868 2342v66h65v-66h-65zM16 2310v131h131v-131h-131zM0 0v1310h163v164h-163v819h163v164h328v-491h492v-164h163v164h164v-164h164v-656h-164v-163h164v-328h-164v-164h-819v-491h-491z
M212 2506v66h66v-66h-66zM524 2490v98h98v-98h-98zM1163 2473v132h131v-132h-131zM868 2670v66h65v-66h-65zM32 2654v98h99v-98h-99zM327 2621v164h164v-164h-164zM180 3129v131h131v-131h-131z" />
    <glyph glyph-name="germandbls" unicode="&#xdf;" 
d="M1179 1507v98h98v-98h-98zM1310 1474v164h-164v-164h164zM196 1671v98h98v-98h-98zM327 1638v164h-164v-164h164zM983 1474v492h-492v-492h492zM1179 1998v99h98v-99h-98zM180 1982v131h131v-131h-131zM327 1966v163h-164v-163h164zM1310 1966v163h-164v-163h164z
M671 2146v131h131v-131h-131zM819 2129v164h-164v-164h164zM360 2326v98h98v-98h-98zM999 2310v131h131v-131h-131zM0 0v2293h163v164h164v-164h164v164h492v-164h163v164h164v-164h164v-983h-164v-164h164v-983h-164v-163h-655v491h328v492h-492v-983h-491zM344 2473v132
h131v-132h-131zM196 2654v98h98v-98h-98zM983 2621v164h163v-164h-163zM671 2801v131h131v-131h-131zM1015 2981v99h99v-99h-99zM163 2949v163h164v-163h-164zM540 3162v65h66v-65h-66z" />
    <glyph glyph-name="agrave" unicode="&#xe0;" 
d="M1179 851v99h98v-99h-98zM983 491v492h-492v-492h492zM1310 819v164h-164v-164h164zM180 999v131h131v-131h-131zM327 983v163h-164v-163h164zM360 1343v98h98v-98h-98zM835 1327v131h131v-131h-131zM163 0v163h-163v1147h163v164h164v-164h164v164h328v-164h164v164h491
v-1474h-1311zM1032 1523v66h65v-66h-65zM1179 1507v98h98v-98h-98zM507 1490v132h131v-132h-131zM376 1687v66h66v-66h-66zM524 1671v98h98v-98h-98zM0 1638v164h163v-164h-163zM868 2015v65h65v-65h-65zM524 1998v99h98v-99h-98zM1343 1998v99h98v-99h-98zM999 1982v131
h131v-131h-131zM655 1966v163h-164v-163h164zM49 2179v65h65v-65h-65zM655 1638v164h-328v491h492v-327h164v-328h-328z" />
    <glyph glyph-name="aacute" unicode="&#xe1;" 
d="M1179 851v99h98v-99h-98zM983 491v492h-492v-492h492zM1310 819v164h-164v-164h164zM180 999v131h131v-131h-131zM327 983v163h-164v-163h164zM360 1343v98h98v-98h-98zM835 1327v131h131v-131h-131zM163 0v163h-163v1147h163v164h164v-164h164v164h328v-164h164v164h491
v-1474h-1311zM1032 1523v66h65v-66h-65zM1179 1507v98h98v-98h-98zM376 1687v66h66v-66h-66zM835 1654v131h131v-131h-131zM0 1638v164h163v-164h-163zM524 1998v99h98v-99h-98zM1343 1998v99h98v-99h-98zM49 2179v65h65v-65h-65zM851 2162v98h99v-98h-99zM491 1638v328h164
v327h164v-164h164v164h163v-491h-327v-164h-328z" />
    <glyph glyph-name="acircumflex" unicode="&#xe2;" 
d="M1179 851v99h98v-99h-98zM983 491v492h-492v-492h492zM1310 819v164h-164v-164h164zM180 999v131h131v-131h-131zM327 983v163h-164v-163h164zM360 1343v98h98v-98h-98zM835 1327v131h131v-131h-131zM163 0v163h-163v1147h163v164h164v-164h164v164h328v-164h164v164h491
v-1474h-1311zM1032 1523v66h65v-66h-65zM1179 1507v98h98v-98h-98zM507 1490v132h131v-132h-131zM0 1638v164h163v-164h-163zM1343 1998v99h98v-99h-98zM344 1982v131h131v-131h-131zM49 2179v65h65v-65h-65zM327 1638v328h164v163h164v164h164v-164h164v-163h163v-328h-327
v164h-164v-164h-328z" />
    <glyph glyph-name="atilde" unicode="&#xe3;" 
d="M1179 851v99h98v-99h-98zM983 491v492h-492v-492h492zM1310 819v164h-164v-164h164zM180 999v131h131v-131h-131zM327 983v163h-164v-163h164zM360 1343v98h98v-98h-98zM835 1327v131h131v-131h-131zM163 0v163h-163v1147h163v164h164v-164h164v164h328v-164h164v164h491
v-1474h-1311zM1032 1523v66h65v-66h-65zM1179 1507v98h98v-98h-98zM507 1490v132h131v-132h-131zM540 1687v66h66v-66h-66zM16 1654v131h131v-131h-131zM999 1654v131h131v-131h-131zM507 1982v131h131v-131h-131zM163 1638v164h-163v164h163v163h328v-163h164v163h164v-163
h164v163h491v-327h-164v-164h-164v164h-163v-164h-328v164h-164v-164h-328zM49 2179v65h65v-65h-65zM704 2179v65h66v-65h-66z" />
    <glyph glyph-name="adieresis" unicode="&#xe4;" 
d="M1179 851v99h98v-99h-98zM983 491v492h-492v-492h492zM1310 819v164h-164v-164h164zM180 999v131h131v-131h-131zM327 983v163h-164v-163h164zM360 1343v98h98v-98h-98zM835 1327v131h131v-131h-131zM163 0v163h-163v1147h163v164h164v-164h164v164h328v-164h164v164h491
v-1474h-1311zM1032 1523v66h65v-66h-65zM1179 1507v98h98v-98h-98zM507 1490v132h131v-132h-131zM524 1671v98h98v-98h-98zM180 1654v131h131v-131h-131zM999 1654v131h131v-131h-131zM1015 1998v99h99v-99h-99zM1343 1998v99h98v-99h-98zM344 1982v131h131v-131h-131z
M327 1638v164h-164v327h164v-163h164v163h164v-327h-164v-164h-164zM819 1638v491h164v-163h163v163h164v-491h-164v164h-163v-164h-164zM49 2179v65h65v-65h-65zM704 2179v65h66v-65h-66z" />
    <glyph glyph-name="aring" unicode="&#xe5;" 
d="M1179 851v99h98v-99h-98zM983 491v492h-492v-492h492zM1310 819v164h-164v-164h164zM180 999v131h131v-131h-131zM327 983v163h-164v-163h164zM360 1343v98h98v-98h-98zM835 1327v131h131v-131h-131zM163 0v163h-163v1147h163v164h164v-164h164v164h328v-164h164v164h491
v-1474h-1311zM1032 1523v66h65v-66h-65zM1179 1507v98h98v-98h-98zM507 1490v132h131v-132h-131zM376 1687v66h66v-66h-66zM999 1654v131h131v-131h-131zM0 1638v164h163v-164h-163zM1343 1998v99h98v-99h-98zM819 1802v327h-164v-327h164zM49 2179v65h65v-65h-65z
M1032 2179v65h65v-65h-65zM491 1638v164h-164v327h164v164h492v-164h163v-327h-163v-164h-492z" />
    <glyph glyph-name="ae" unicode="&#xe6;" horiz-adv-x="2621" 
d="M180 999v131h131v-131h-131zM2146 999v131h131v-131h-131zM1163 999v131h131v-131h-131zM2293 983v163h-164v-163h164zM1310 983v163h-164v-163h164zM327 983v163h-164v-163h164zM1966 819v164h-492v-164h492zM983 491v492h-492v-492h492zM2293 983v-164h164v-164h-983
v-164h983v-328h-164v-163h-2130v163h-163v1147h163v164h164v-164h164v164h328v-164h164v164h327v-164h164v164h164v-164h164v164h164v164h163v-164h164v-164h164v-327h-164zM1687 2179v65h66v-65h-66zM704 2179v65h66v-65h-66zM49 2179v65h65v-65h-65zM2146 1982v131h131
v-131h-131zM999 1982v131h131v-131h-131zM344 1982v131h131v-131h-131zM1835 1998v99h98v-99h-98zM1343 1998v99h98v-99h-98zM1490 1818v131h132v-131h-132zM851 1835v98h99v-98h-99zM0 1638v164h163v-164h-163zM1851 1687v66h65v-66h-65zM376 1687v66h66v-66h-66zM507 1490
v132h131v-132h-131zM2326 1507v98h98v-98h-98zM1507 1507v98h98v-98h-98zM1179 1507v98h98v-98h-98zM1654 1327v131h131v-131h-131zM835 1327v131h131v-131h-131zM1343 1343v98h98v-98h-98zM360 1343v98h98v-98h-98zM2326 851v99h98v-99h-98z" />
    <glyph glyph-name="ccedilla" unicode="&#xe7;" 
d="M688 1015v99h98v-99h-98zM180 999v131h131v-131h-131zM1163 999v131h131v-131h-131zM327 983v163h-164v-163h164zM1310 983v163h-164v-163h164zM507 1327v131h131v-131h-131zM327 -491v164h164v327h-328v163h-163v1147h163v164h328v-164h164v164h655v-164h164v-491h-491
v164h-164v163h-164v-163h-164v-492h492v164h491v-492h-164v-163h-327v-327h-164v-164h-492zM704 1523v66h66v-66h-66zM32 1507v98h99v-98h-99zM851 1671v98h99v-98h-99zM344 1654v131h131v-131h-131zM1163 1654v131h131v-131h-131zM212 1851v65h66v-65h-66zM1359 1851v65h66
v-65h-66zM1015 1998v99h99v-99h-99zM507 1982v131h131v-131h-131zM868 2179v65h65v-65h-65zM32 2162v98h99v-98h-99z" />
    <glyph glyph-name="egrave" unicode="&#xe8;" 
d="M180 999v131h131v-131h-131zM524 1998v99h98v-99h-98zM1163 999v131h131v-131h-131zM1310 983v163h-164v-163h164zM655 1966v163h-164v-163h164zM327 983v163h-164v-163h164zM983 819v164h-492v-164h492zM1310 983v-164h164v-164h-983v-164h983v-328h-164v-163h-1147v163
h-163v1147h163v164h164v-164h164v164h164v-164h164v164h164v164h163v-164h164v-164h164v-327h-164zM655 1638v164h-328v491h492v-327h164v-328h-328zM212 2179v65h66v-65h-66zM1163 1982v131h131v-131h-131zM868 2015v65h65v-65h-65zM196 1835v98h98v-98h-98zM524 1671v98
h98v-98h-98zM16 1490v132h131v-132h-131zM1343 1507v98h98v-98h-98zM524 1507v98h98v-98h-98zM671 1327v131h131v-131h-131zM360 1343v98h98v-98h-98zM1343 851v99h98v-99h-98z" />
    <glyph glyph-name="eacute" unicode="&#xe9;" 
d="M180 999v131h131v-131h-131zM1163 999v131h131v-131h-131zM1310 983v163h-164v-163h164zM327 983v163h-164v-163h164zM983 819v164h-492v-164h492zM1310 983v-164h164v-164h-983v-164h983v-328h-164v-163h-1147v163h-163v1147h163v164h164v-164h164v164h164v-164h164v164
h164v164h163v-164h164v-164h164v-327h-164zM491 1638v328h164v327h164v-164h164v164h163v-491h-327v-164h-328zM851 2162v98h99v-98h-99zM212 2179v65h66v-65h-66zM1163 1982v131h131v-131h-131zM524 1998v99h98v-99h-98zM196 1835v98h98v-98h-98zM835 1654v131h131v-131
h-131zM16 1490v132h131v-132h-131zM1343 1507v98h98v-98h-98zM524 1507v98h98v-98h-98zM671 1327v131h131v-131h-131zM360 1343v98h98v-98h-98zM1343 851v99h98v-99h-98z" />
    <glyph glyph-name="ecircumflex" unicode="&#xea;" 
d="M180 999v131h131v-131h-131zM1163 999v131h131v-131h-131zM1310 983v163h-164v-163h164zM327 983v163h-164v-163h164zM983 819v164h-492v-164h492zM1310 983v-164h164v-164h-983v-164h983v-328h-164v-163h-1147v163h-163v1147h163v164h164v-164h164v164h164v-164h164v164
h164v164h-164v164h-164v-164h-328v328h164v163h164v164h164v-164h164v-163h163v-492h164v-164h164v-327h-164zM212 2179v65h66v-65h-66zM1163 1982v131h131v-131h-131zM196 1835v98h98v-98h-98zM16 1490v132h131v-132h-131zM1343 1507v98h98v-98h-98zM524 1507v98h98v-98
h-98zM671 1327v131h131v-131h-131zM360 1343v98h98v-98h-98zM1343 851v99h98v-99h-98z" />
    <glyph glyph-name="edieresis" unicode="&#xeb;" 
d="M180 999v131h131v-131h-131zM1163 999v131h131v-131h-131zM1310 983v163h-164v-163h164zM327 983v163h-164v-163h164zM983 819v164h-492v-164h492zM1310 983v-164h164v-164h-983v-164h983v-328h-164v-163h-1147v163h-163v1147h163v164h164v-164h164v164h164v-164h164v164
h164v164h163v-164h164v-164h164v-327h-164zM704 2179v65h66v-65h-66zM212 2179v65h66v-65h-66zM819 1638v491h164v-163h163v163h164v-491h-164v164h-163v-164h-164zM327 1638v164h-164v327h164v-163h164v163h164v-327h-164v-164h-164zM344 1982v131h131v-131h-131z
M1015 1998v99h99v-99h-99zM999 1654v131h131v-131h-131zM180 1654v131h131v-131h-131zM524 1671v98h98v-98h-98zM16 1490v132h131v-132h-131zM1343 1507v98h98v-98h-98zM524 1507v98h98v-98h-98zM671 1327v131h131v-131h-131zM360 1343v98h98v-98h-98zM1343 851v99h98v-99
h-98z" />
    <glyph glyph-name="igrave" unicode="&#xec;" horiz-adv-x="655" 
d="M344 835v131h131v-131h-131zM16 1327v131h131v-131h-131zM0 0v1310h163v164h328v-491h-164v-164h164v-819h-491zM49 1523v66h65v-66h-65zM196 1671v98h98v-98h-98zM32 1835v98h99v-98h-99zM376 2179v65h66v-65h-66zM32 2162v98h99v-98h-99zM163 2129v164h-163v-164h163z
M376 2342v66h66v-66h-66zM163 1802v164h-326v491h490v-328h164v-327h-328zM32 2490v98h99v-98h-99zM360 2818v98h98v-98h-98zM49 2998v65h65v-65h-65z" />
    <glyph glyph-name="iacute" unicode="&#xed;" horiz-adv-x="655" 
d="M344 835v131h131v-131h-131zM16 1327v131h131v-131h-131zM0 0v1310h163v164h328v-491h-164v-164h164v-819h-491zM49 1523v66h65v-66h-65zM196 1671v98h98v-98h-98zM344 1818v131h131v-131h-131zM32 2162v98h99v-98h-99zM360 2326v98h98v-98h-98zM0 1802v327h163v328h164
v-164h164v164h164v-491h-328v-164h-327zM32 2490v98h99v-98h-99zM360 2818v98h98v-98h-98zM49 2998v65h65v-65h-65z" />
    <glyph glyph-name="icircumflex" unicode="&#xee;" horiz-adv-x="655" 
d="M344 835v131h131v-131h-131zM16 1327v131h131v-131h-131zM0 0v1310h163v164h328v-491h-164v-164h164v-819h-491zM49 1523v66h65v-66h-65zM196 1671v98h98v-98h-98zM-163 1802v327h163v164h163v164h164v-164h164v-164h164v-327h-328v164h-164v-164h-326zM32 2490v98h99
v-98h-99zM360 2818v98h98v-98h-98zM49 2998v65h65v-65h-65z" />
    <glyph glyph-name="idieresis" unicode="&#xef;" horiz-adv-x="655" 
d="M344 835v131h131v-131h-131zM16 1327v131h131v-131h-131zM0 0v1310h163v164h328v-491h-164v-164h164v-819h-491zM49 1523v66h65v-66h-65zM196 1671v98h98v-98h-98zM32 1835v98h99v-98h-99zM-311 1818v131h131v-131h-131zM507 1818v131h131v-131h-131zM524 2162v98h98v-98
h-98zM-147 2146v131h131v-131h-131zM-163 1802v164h-164v327h164v-164h163v164h163v-327h-163v-164h-163zM327 1802v491h164v-164h164v164h164v-491h-164v164h-164v-164h-164zM376 2342v66h66v-66h-66zM32 2490v98h99v-98h-99zM360 2818v98h98v-98h-98zM49 2998v65h65v-65
h-65z" />
    <glyph glyph-name="eth" unicode="&#xf0;" horiz-adv-x="1802" 
d="M32 851v99h99v-99h-99zM688 1015v99h98v-99h-98zM983 491v492h-164v163h-164v-163h-164v-492h492zM1327 1163v131h131v-131h-131zM524 1343v98h98v-98h-98zM868 1523v66h65v-66h-65zM360 1507v98h98v-98h-98zM524 1671v98h98v-98h-98zM49 1851v65h65v-65h-65zM671 1818
v131h131v-131h-131zM344 1982v131h131v-131h-131zM49 2179v65h65v-65h-65zM540 2179v65h66v-65h-66zM1163 2146v131h131v-131h-131zM1310 2129v164h-164v-164h164zM163 0v163h-163v656h163v164h-163v327h163v164h328v-164h164v164h328v328h-164v327h164v328h491v-328h164
v-327h-164v-492h-164v-164h164v-1146h-1311zM1359 2670v66h66v-66h-66zM1015 2654v98h99v-98h-99zM1163 2801v131h131v-131h-131zM1032 2998v65h65v-65h-65z" />
    <glyph glyph-name="ntilde" unicode="&#xf1;" 
d="M32 851v99h99v-99h-99zM1163 999v131h131v-131h-131zM1310 983v163h-164v-163h164zM180 1163v131h131v-131h-131zM327 1146v164h-164v-164h164zM688 1343v98h98v-98h-98zM0 0v819h163v164h-163v491h655v-164h164v164h491v-164h164v-1310h-491v983h-492v-983h-491z
M180 1490v132h131v-132h-131zM835 1490v132h131v-132h-131zM540 1687v66h66v-66h-66zM16 1654v131h131v-131h-131zM999 1654v131h131v-131h-131zM32 1998v99h99v-99h-99zM507 1982v131h131v-131h-131zM163 1638v164h-163v164h163v163h328v-163h164v163h164v-163h164v163h491
v-327h-164v-164h-164v164h-163v-164h-328v164h-164v-164h-328zM868 2179v65h65v-65h-65z" />
    <glyph glyph-name="ograve" unicode="&#xf2;" 
d="M688 1015v99h98v-99h-98zM1179 1015v99h98v-99h-98zM180 999v131h131v-131h-131zM327 983v163h-164v-163h164zM983 491v492h-164v163h-164v-163h-164v-492h492zM1310 983v163h-164v-163h164zM360 1343v98h98v-98h-98zM999 1327v131h131v-131h-131zM163 0v163h-163v1147
h163v164h164v-164h164v164h492v-164h163v164h164v-164h164v-1147h-164v-163h-1147zM49 1523v66h65v-66h-65zM1179 1507v98h98v-98h-98zM524 1671v98h98v-98h-98zM180 1654v131h131v-131h-131zM1343 1835v98h98v-98h-98zM868 2015v65h65v-65h-65zM524 1998v99h98v-99h-98z
M655 1966v163h-164v-163h164zM1196 2179v65h65v-65h-65zM196 2162v98h98v-98h-98zM655 1638v164h-328v491h492v-327h164v-328h-328z" />
    <glyph glyph-name="oacute" unicode="&#xf3;" 
d="M688 1015v99h98v-99h-98zM1179 1015v99h98v-99h-98zM180 999v131h131v-131h-131zM327 983v163h-164v-163h164zM983 491v492h-164v163h-164v-163h-164v-492h492zM1310 983v163h-164v-163h164zM360 1343v98h98v-98h-98zM999 1327v131h131v-131h-131zM163 0v163h-163v1147
h163v164h164v-164h164v164h492v-164h163v164h164v-164h164v-1147h-164v-163h-1147zM49 1523v66h65v-66h-65zM1179 1507v98h98v-98h-98zM180 1654v131h131v-131h-131zM835 1654v131h131v-131h-131zM1343 1835v98h98v-98h-98zM524 1998v99h98v-99h-98zM196 2162v98h98v-98h-98
zM851 2162v98h99v-98h-99zM491 1638v328h164v327h164v-164h164v164h163v-491h-327v-164h-328z" />
    <glyph glyph-name="ocircumflex" unicode="&#xf4;" 
d="M688 1015v99h98v-99h-98zM1179 1015v99h98v-99h-98zM180 999v131h131v-131h-131zM327 983v163h-164v-163h164zM983 491v492h-164v163h-164v-163h-164v-492h492zM1310 983v163h-164v-163h164zM360 1343v98h98v-98h-98zM999 1327v131h131v-131h-131zM49 1523v66h65v-66h-65
zM1179 1507v98h98v-98h-98zM163 0v163h-163v1147h163v164h164v-164h164v164h164v164h164v-164h164v-164h163v164h164v-164h164v-1147h-164v-163h-1147zM180 1654v131h131v-131h-131zM1343 1835v98h98v-98h-98zM1196 2179v65h65v-65h-65zM196 2162v98h98v-98h-98zM327 1638
v328h164v163h164v164h164v-164h164v-163h163v-328h-327v164h-164v-164h-328z" />
    <glyph glyph-name="otilde" unicode="&#xf5;" 
d="M688 1015v99h98v-99h-98zM1179 1015v99h98v-99h-98zM180 999v131h131v-131h-131zM327 983v163h-164v-163h164zM983 491v492h-164v163h-164v-163h-164v-492h492zM1310 983v163h-164v-163h164zM360 1343v98h98v-98h-98zM999 1327v131h131v-131h-131zM49 1523v66h65v-66h-65
zM1179 1507v98h98v-98h-98zM540 1687v66h66v-66h-66zM16 1654v131h131v-131h-131zM999 1654v131h131v-131h-131zM507 1982v131h131v-131h-131zM835 1982v131h131v-131h-131zM163 0v163h-163v1147h163v164h164v-164h164v164h164v328h-164v-164h-328v164h-163v164h163v163h328
v-163h164v163h164v-163h164v163h491v-327h-164v-164h-164v164h-163v-164h-164v-164h164v-164h163v164h164v-164h164v-1147h-164v-163h-1147zM1196 2179v65h65v-65h-65zM196 2162v98h98v-98h-98z" />
    <glyph glyph-name="odieresis" unicode="&#xf6;" 
d="M688 1015v99h98v-99h-98zM1179 1015v99h98v-99h-98zM180 999v131h131v-131h-131zM327 983v163h-164v-163h164zM983 491v492h-164v163h-164v-163h-164v-492h492zM1310 983v163h-164v-163h164zM360 1343v98h98v-98h-98zM999 1327v131h131v-131h-131zM49 1523v66h65v-66h-65
zM1179 1507v98h98v-98h-98zM163 0v163h-163v1147h163v164h164v-164h164v164h164v164h164v-164h164v-164h163v164h164v-164h164v-1147h-164v-163h-1147zM524 1671v98h98v-98h-98zM180 1654v131h131v-131h-131zM999 1654v131h131v-131h-131zM1343 1835v98h98v-98h-98z
M1015 1998v99h99v-99h-99zM344 1982v131h131v-131h-131zM327 1638v164h-164v327h164v-163h164v163h164v-327h-164v-164h-164zM819 1638v491h164v-163h163v163h164v-491h-164v164h-163v-164h-164zM1196 2179v65h65v-65h-65zM196 2162v98h98v-98h-98z" />
    <glyph glyph-name="divide" unicode="&#xf7;" 
d="M196 360v98h98v-98h-98zM1015 1998v99h99v-99h-99zM704 2015v65h66v-65h-66zM180 1818v131h131v-131h-131zM835 1654v131h131v-131h-131zM360 1507v98h98v-98h-98zM704 1196v65h66v-65h-66zM180 999v131h131v-131h-131zM1015 1015v99h99v-99h-99zM999 671v131h131v-131
h-131zM376 704v66h66v-66h-66zM1179 524v98h98v-98h-98zM688 524v98h98v-98h-98zM1032 540v66h65v-66h-65zM655 2129v-163h164v163h-164zM1146 1966v163h-163v-163h163zM327 1802v164h-164v-164h164zM983 1638v164h-164v-164h164zM491 1474v164h-164v-164h164zM819 1146v164
h-164v-164h164zM1146 983v163h-163v-163h163zM1310 491v164h-164v164h-163v-328h327zM491 655v164h-164v-164h164zM819 491v164h-164v-164h164zM327 327v164h-164v-164h164zM163 983h164v163h-164v-163zM655 2129v164h655v-164h164v-327h-164v-164h164v-164h-164v-164h164
v-1310h-164v163h-164v-163h-327v163h-328v-163h-328v163h-163v656h163v164h-163v1146h163v164h328v-164h164zM524 2162v98h98v-98h-98zM32 2162v98h99v-98h-99zM1359 2179v65h66v-65h-66zM1343 1671v98h98v-98h-98zM1359 1359v66h66v-66h-66zM49 868v65h65v-65h-65zM1163 16
v131h131v-131h-131zM16 16v131h131v-131h-131zM688 32v99h98v-99h-98zM540 49v65h66v-65h-66z" />
    <glyph glyph-name="oslash" unicode="&#xf8;" 
d="M983 491v164h-492v-164h492zM688 1015v99h98v-99h-98zM1179 1015v99h98v-99h-98zM180 999v131h131v-131h-131zM327 983v163h-164v-163h164zM983 819v164h-164v163h-164v-163h-164v-164h492zM1310 983v163h-164v-163h164zM360 1343v98h98v-98h-98zM999 1327v131h131v-131
h-131zM49 1523v66h65v-66h-65zM1179 1507v98h98v-98h-98zM163 0v163h-163v1147h163v164h164v-164h164v164h164v164h164v-164h164v-164h163v164h164v-164h164v-1147h-164v-163h-1147zM180 1654v131h131v-131h-131zM1343 1835v98h98v-98h-98zM540 2015v65h66v-65h-66z
M835 1982v131h131v-131h-131zM1196 2179v65h65v-65h-65zM196 2162v98h98v-98h-98z" />
    <glyph glyph-name="ugrave" unicode="&#xf9;" 
d="M16 999v131h131v-131h-131zM1163 999v131h131v-131h-131zM1310 983v163h-164v-163h164zM196 1343v98h98v-98h-98zM1343 1343v98h98v-98h-98zM163 0v163h-163v820h163v163h-163v328h163v-164h164v164h164v-983h492v983h327v-164h164v-1147h-164v-163h-1147zM1359 1523v66
h66v-66h-66zM32 1507v98h99v-98h-99zM1015 1507v98h99v-98h-99zM524 1671v98h98v-98h-98zM344 1654v131h131v-131h-131zM49 1851v65h65v-65h-65zM1163 1818v131h131v-131h-131zM868 2015v65h65v-65h-65zM1359 2015v65h66v-65h-66zM524 1998v99h98v-99h-98zM180 1982v131h131
v-131h-131zM655 1966v163h-164v-163h164zM1032 2179v65h65v-65h-65zM655 1638v164h-328v491h492v-327h164v-328h-328z" />
    <glyph glyph-name="uacute" unicode="&#xfa;" 
d="M16 999v131h131v-131h-131zM1163 999v131h131v-131h-131zM1310 983v163h-164v-163h164zM196 1343v98h98v-98h-98zM1343 1343v98h98v-98h-98zM163 0v163h-163v820h163v163h-163v328h163v-164h164v164h164v-983h492v983h327v-164h164v-1147h-164v-163h-1147zM1359 1523v66
h66v-66h-66zM32 1507v98h99v-98h-99zM1015 1507v98h99v-98h-99zM344 1654v131h131v-131h-131zM835 1654v131h131v-131h-131zM49 1851v65h65v-65h-65zM1163 1818v131h131v-131h-131zM1359 2015v65h66v-65h-66zM524 1998v99h98v-99h-98zM180 1982v131h131v-131h-131zM851 2162
v98h99v-98h-99zM491 1638v328h164v327h164v-164h164v164h163v-491h-327v-164h-328z" />
    <glyph glyph-name="ucircumflex" unicode="&#xfb;" 
d="M16 999v131h131v-131h-131zM1163 999v131h131v-131h-131zM1310 983v163h-164v-163h164zM196 1343v98h98v-98h-98zM1343 1343v98h98v-98h-98zM163 0v163h-163v820h163v163h-163v328h163v-164h164v164h164v-983h492v983h327v-164h164v-1147h-164v-163h-1147zM1359 1523v66
h66v-66h-66zM32 1507v98h99v-98h-99zM1015 1507v98h99v-98h-99zM49 1851v65h65v-65h-65zM1163 1818v131h131v-131h-131zM1359 2015v65h66v-65h-66zM180 1982v131h131v-131h-131zM1032 2179v65h65v-65h-65zM327 1638v328h164v163h164v164h164v-164h164v-163h163v-328h-327
v164h-164v-164h-328z" />
    <glyph glyph-name="udieresis" unicode="&#xfc;" 
d="M16 999v131h131v-131h-131zM1163 999v131h131v-131h-131zM1310 983v163h-164v-163h164zM196 1343v98h98v-98h-98zM1343 1343v98h98v-98h-98zM163 0v163h-163v820h163v163h-163v328h163v-164h164v164h164v-983h492v983h327v-164h164v-1147h-164v-163h-1147zM1359 1523v66
h66v-66h-66zM32 1507v98h99v-98h-99zM1015 1507v98h99v-98h-99zM524 1671v98h98v-98h-98zM180 1654v131h131v-131h-131zM999 1654v131h131v-131h-131zM49 1851v65h65v-65h-65zM1359 2015v65h66v-65h-66zM1015 1998v99h99v-99h-99zM344 1982v131h131v-131h-131zM327 1638v164
h-164v327h164v-163h164v163h164v-327h-164v-164h-164zM819 1638v491h164v-163h163v163h164v-491h-164v164h-163v-164h-164zM1032 2179v65h65v-65h-65z" />
    <glyph glyph-name="yacute" unicode="&#xfd;" 
d="M32 851v99h99v-99h-99zM999 999v131h131v-131h-131zM180 1163v131h131v-131h-131zM327 1146v164h-164v-164h164zM1343 1343v98h98v-98h-98zM1015 1507v98h99v-98h-99zM163 -819v164h-163v492h491v-164h492v327h-820v163h-163v656h163v164h-163v491h163v164h164v-164h164
v-983h492v492h163v163h-163v328h327v-164h164v-1965h-164v-164h-1147zM49 1687v66h65v-66h-65zM835 1654v131h131v-131h-131zM1163 1654v131h131v-131h-131zM360 1835v98h98v-98h-98zM1359 2015v65h66v-65h-66zM524 1998v99h98v-99h-98zM16 1982v131h131v-131h-131z
M212 2179v65h66v-65h-66zM851 2162v98h99v-98h-99zM491 1638v328h164v327h164v-164h164v164h163v-491h-327v-164h-328z" />
    <glyph glyph-name="thorn" unicode="&#xfe;" 
d="M1327 507v131h131v-131h-131zM32 851v99h99v-99h-99zM1179 851v99h98v-99h-98zM983 491v492h-492v-492h492zM1310 819v164h-164v-164h164zM180 1163v131h131v-131h-131zM671 1163v131h131v-131h-131zM327 1146v164h-164v-164h164zM819 1146v164h-164v-164h164zM1015 1343
v98h99v-98h-99zM835 1490v132h131v-132h-131zM1179 1671v98h98v-98h-98zM868 1851v65h65v-65h-65zM16 1818v131h131v-131h-131zM0 -491v1310h163v164h-163v819h163v164h328v-492h492v-164h163v164h164v-164h164v-655h-164v-164h164v-328h-164v-163h-819v-491h-491zM212 2015
v65h66v-65h-66zM524 1998v99h98v-99h-98zM1163 1982v131h131v-131h-131zM868 2179v65h65v-65h-65zM32 2162v98h99v-98h-99zM327 2129v164h164v-164h-164z" />
    <glyph glyph-name="ydieresis" unicode="&#xff;" 
d="M32 851v99h99v-99h-99zM999 999v131h131v-131h-131zM180 1163v131h131v-131h-131zM327 1146v164h-164v-164h164zM1343 1343v98h98v-98h-98zM163 -819v164h-163v492h491v-164h492v327h-820v163h-163v656h163v164h-163v491h491v-983h492v492h163v163h-163v328h327v-164h164
v-1965h-164v-164h-1147zM1015 1507v98h99v-98h-99zM49 1687v66h65v-66h-65zM524 1671v98h98v-98h-98zM180 1654v131h131v-131h-131zM999 1654v131h131v-131h-131zM1359 2015v65h66v-65h-66zM1015 1998v99h99v-99h-99zM16 1982v131h131v-131h-131zM344 1982v131h131v-131
h-131zM327 1638v164h-164v327h164v-163h164v163h164v-327h-164v-164h-164zM819 1638v491h164v-163h163v163h164v-491h-164v164h-163v-164h-164zM212 2179v65h66v-65h-66z" />
    <glyph glyph-name="OE" unicode="&#x152;" horiz-adv-x="2621" 
d="M1835 1343v98h98v-98h-98zM1163 1490v132h131v-132h-131zM1310 1474v164h-164v-164h164zM180 1654v131h131v-131h-131zM327 1638v164h-164v-164h164zM1179 1835v98h98v-98h-98zM1310 1802v164h-164v-164h164zM32 1998v99h99v-99h-99zM507 1982v131h131v-131h-131z
M1818 1982v131h131v-131h-131zM983 491v1475h-328v163h-164v-1638h492zM360 2326v98h98v-98h-98zM688 2326v98h98v-98h-98zM1507 2326v98h98v-98h-98zM999 2310v131h131v-131h-131zM2146 2310v131h131v-131h-131zM540 2506v66h66v-66h-66zM163 0v163h-163v1803h163v163h-163
v164h163v164h164v-164h164v164h164v-164h164v164h164v-164h327v164h164v-164h164v164h164v164h164v-164h163v-164h164v164h164v-491h-491v163h-164v-163h-328v-492h328v-164h164v164h163v-491h-655v-492h983v-491h-1147v163h-164v-163h-983zM868 2670v66h65v-66h-65z
M2326 2654v98h98v-98h-98zM1163 2637v131h131v-131h-131zM163 2621v164h164v-164h-164zM1982 2801v131h131v-131h-131zM1474 2785v164h164v-164h-164zM212 2998v65h66v-65h-66zM1343 2981v99h98v-99h-98zM507 2965v131h131v-131h-131zM1851 3162v65h65v-65h-65zM32 3145v99
h99v-99h-99zM999 3129v131h131v-131h-131z" />
    <glyph glyph-name="oe" unicode="&#x153;" horiz-adv-x="2621" 
d="M688 1015v99h98v-99h-98zM2146 999v131h131v-131h-131zM1163 999v131h131v-131h-131zM180 999v131h131v-131h-131zM2293 983v163h-164v-163h164zM1310 983v163h-164v-163h164zM983 491v492h-164v163h-164v-163h-164v-492h492zM327 983v163h-164v-163h164zM1966 819v164
h-492v-164h492zM2293 983v-164h164v-164h-983v-164h983v-328h-164v-163h-983v163h-164v-163h-983v163h-163v1147h163v164h164v-164h164v164h164v164h164v-164h164v-164h491v164h164v-164h164v164h164v164h163v-164h164v-164h164v-327h-164zM196 2162v98h98v-98h-98z
M1687 2179v65h66v-65h-66zM1196 2179v65h65v-65h-65zM2146 1982v131h131v-131h-131zM835 1982v131h131v-131h-131zM1835 1998v99h98v-99h-98zM540 2015v65h66v-65h-66zM1490 1818v131h132v-131h-132zM1179 1835v98h98v-98h-98zM180 1654v131h131v-131h-131zM1851 1687v66h65
v-66h-65zM2326 1507v98h98v-98h-98zM1507 1507v98h98v-98h-98zM1179 1507v98h98v-98h-98zM49 1523v66h65v-66h-65zM1654 1327v131h131v-131h-131zM999 1327v131h131v-131h-131zM1343 1343v98h98v-98h-98zM360 1343v98h98v-98h-98zM2326 851v99h98v-99h-98z" />
    <glyph glyph-name="Uring" unicode="&#x16e;" 
d="M16 1490v132h131v-132h-131zM1163 1490v132h131v-132h-131zM1310 1474v164h-164v-164h164zM1343 1835v98h98v-98h-98zM32 1998v99h99v-99h-99zM344 2146v131h131v-131h-131zM999 2146v131h131v-131h-131zM163 0v163h-163v1311h163v164h-163v328h163v163h-163v328h491
v-164h-164v-164h164v-1638h492v1638h163v164h-163v164h491v-491h-164v-164h164v-1639h-164v-163h-1147zM49 2506v66h65v-66h-65zM1015 2490v98h99v-98h-99zM1359 2670v66h66v-66h-66zM180 2637v131h131v-131h-131zM999 2637v131h131v-131h-131zM32 2818v98h99v-98h-99z
M1163 2965v131h131v-131h-131zM819 2785v327h-164v-327h164zM49 3162v65h65v-65h-65zM1032 3162v65h65v-65h-65zM491 2621v164h-164v327h164v164h492v-164h163v-327h-163v-164h-492z" />
    <glyph glyph-name="uring" unicode="&#x16f;" 
d="M16 999v131h131v-131h-131zM1163 999v131h131v-131h-131zM1310 983v163h-164v-163h164zM196 1343v98h98v-98h-98zM1343 1343v98h98v-98h-98zM163 0v163h-163v820h163v163h-163v328h163v-164h164v164h164v-983h492v983h327v-164h164v-1147h-164v-163h-1147zM1359 1523v66
h66v-66h-66zM32 1507v98h99v-98h-99zM1015 1507v98h99v-98h-99zM344 1654v131h131v-131h-131zM999 1654v131h131v-131h-131zM49 1851v65h65v-65h-65zM1163 1818v131h131v-131h-131zM1359 2015v65h66v-65h-66zM180 1982v131h131v-131h-131zM819 1802v327h-164v-327h164z
M1032 2179v65h65v-65h-65zM491 1638v164h-164v327h164v164h492v-164h163v-327h-163v-164h-492z" />
    <glyph glyph-name="Ydieresis" unicode="&#x178;" 
d="M32 1343v98h99v-98h-99zM1163 1490v132h131v-132h-131zM1310 1474v164h-164v-164h164zM180 1654v131h131v-131h-131zM327 1638v164h-164v-164h164zM1179 1835v98h98v-98h-98zM1310 1802v164h-164v-164h164zM360 2162v98h98v-98h-98zM16 2310v131h131v-131h-131z
M1163 2310v131h131v-131h-131zM491 0v983h-328v163h-163v164h163v164h-163v819h163v164h328v-164h-164v-164h164v-655h492v983h163v-164h164v164h164v-1311h-164v-163h-327v-983h-492zM376 2506v66h66v-66h-66zM999 2473v132h131v-132h-131zM524 2654v98h98v-98h-98z
M1343 2654v98h98v-98h-98zM180 2637v131h131v-131h-131zM999 2637v131h131v-131h-131zM1015 2981v99h99v-99h-99zM344 2965v131h131v-131h-131zM327 2621v164h-164v327h164v-163h164v163h164v-327h-164v-164h-164zM819 2621v491h164v-163h163v163h164v-491h-164v164h-163
v-164h-164zM1032 3162v65h65v-65h-65zM32 3145v99h99v-99h-99z" />
    <glyph glyph-name="uni1E9E" unicode="&#x1e9e;" 
d="M196 360v98h98v-98h-98zM1015 1998v99h99v-99h-99zM704 2015v65h66v-65h-66zM180 1818v131h131v-131h-131zM835 1654v131h131v-131h-131zM360 1507v98h98v-98h-98zM704 1196v65h66v-65h-66zM180 999v131h131v-131h-131zM1015 1015v99h99v-99h-99zM999 671v131h131v-131
h-131zM376 704v66h66v-66h-66zM1179 524v98h98v-98h-98zM688 524v98h98v-98h-98zM1032 540v66h65v-66h-65zM655 2129v-163h164v163h-164zM1146 1966v163h-163v-163h163zM327 1802v164h-164v-164h164zM983 1638v164h-164v-164h164zM491 1474v164h-164v-164h164zM819 1146v164
h-164v-164h164zM1146 983v163h-163v-163h163zM1310 491v164h-164v164h-163v-328h327zM491 655v164h-164v-164h164zM819 491v164h-164v-164h164zM327 327v164h-164v-164h164zM163 983h164v163h-164v-163zM655 2129v164h655v-164h164v-327h-164v-164h164v-164h-164v-164h164
v-1310h-164v163h-164v-163h-327v163h-328v-163h-328v163h-163v656h163v164h-163v1146h163v164h328v-164h164zM524 2162v98h98v-98h-98zM32 2162v98h99v-98h-99zM1359 2179v65h66v-65h-66zM1343 1671v98h98v-98h-98zM1359 1359v66h66v-66h-66zM49 868v65h65v-65h-65zM1163 16
v131h131v-131h-131zM16 16v131h131v-131h-131zM688 32v99h98v-99h-98zM540 49v65h66v-65h-66z" />
    <glyph glyph-name="emdash" unicode="&#x2014;" horiz-adv-x="2293" 
d="M180 999v131h131v-131h-131zM1490 999v131h132v-131h-132zM1179 1179v98h98v-98h-98zM1310 1146v164h-164v-164h164zM32 1343v98h99v-98h-99zM507 1327v131h131v-131h-131zM1818 1327v131h131v-131h-131zM0 983v327h163v164h328v-164h164v164h1147v-164h164v164h163v-491
h-491v163h-164v-163h-1147v163h-164v-163h-163zM196 1507v98h98v-98h-98zM999 1490v132h131v-132h-131zM1851 1687v66h65v-66h-65zM1179 1671v98h98v-98h-98zM507 1818v131h131v-131h-131zM1523 2015v65h66v-65h-66zM540 2179v65h66v-65h-66zM32 2162v98h99v-98h-99z
M1163 2146v131h131v-131h-131zM868 2342v66h65v-66h-65zM1835 2326v98h98v-98h-98z" />
    <glyph glyph-name="quoteleft" unicode="&#x2018;" horiz-adv-x="655" 
d="M360 1671v98h98v-98h-98zM32 1998v99h99v-99h-99zM0 1638v328h163v163h-163v164h163v164h328v-164h-164v-164h164v-327h-164v-164h-327z" />
    <glyph glyph-name="quoteright" unicode="&#x2019;" horiz-adv-x="655" 
d="M360 1835v98h98v-98h-98zM16 2146v131h131v-131h-131zM344 2310v131h131v-131h-131zM0 1638v164h163v164h-163v163h163v164h-163v164h327v-164h164v-327h-164v-328h-327z" />
    <glyph glyph-name="quotesinglbase" unicode="&#x201a;" horiz-adv-x="655" 
d="M344 180v131h131v-131h-131zM32 360v98h99v-98h-99zM0 -327v164h163v163h-163v327h163v164h328v-164h-164v-164h164v-326h-164v-164h-327z" />
    <glyph glyph-name="quotereversed" unicode="&#x201b;" horiz-adv-x="655" 
d="M16 2146v131h131v-131h-131zM360 2326v98h98v-98h-98zM163 1638v164h-163v327h163v164h-163v164h327v-164h164v-327h-164v-164h164v-164h-328z" />
    <glyph glyph-name="quotedblleft" unicode="&#x201c;" horiz-adv-x="1310" 
d="M999 1654v131h131v-131h-131zM196 1835v98h98v-98h-98zM327 1802v164h-164v-164h164zM671 2146v131h131v-131h-131zM0 1638v655h163v164h328v-164h-164v-164h164v-491h-491zM655 1638v491h164v328h327v-164h-163v-164h163v-327h-163v-164h-328z" />
    <glyph glyph-name="quotedblright" unicode="&#x201d;" horiz-adv-x="1310" 
d="M180 2146v131h131v-131h-131zM835 2146v131h131v-131h-131zM163 2293v-164h164v164h-164zM983 2129v164h-164v-164h164zM163 2293v164h328v-491h-164v-328h-327v164h163v164h-163v327h163zM655 1638v164h164v164h-164v491h491v-655h-163v-164h-328zM32 2326v98h99v-98
h-99zM344 1818v131h131v-131h-131z" />
    <glyph glyph-name="quotedblbase" unicode="&#x201e;" horiz-adv-x="1310" 
d="M344 180v131h131v-131h-131zM999 180v131h131v-131h-131zM32 360v98h99v-98h-99zM688 360v98h98v-98h-98zM0 -327v164h163v163h-163v327h163v164h328v-164h-164v-164h164v-326h-164v-164h-327zM655 -327v164h164v163h-164v327h164v164h327v-164h-163v-164h163v-326h-163
v-164h-328z" />
    <glyph glyph-name="dagger" unicode="&#x2020;" 
d="M196 360v98h98v-98h-98zM1015 1998v99h99v-99h-99zM704 2015v65h66v-65h-66zM180 1818v131h131v-131h-131zM835 1654v131h131v-131h-131zM360 1507v98h98v-98h-98zM704 1196v65h66v-65h-66zM180 999v131h131v-131h-131zM1015 1015v99h99v-99h-99zM999 671v131h131v-131
h-131zM376 704v66h66v-66h-66zM1179 524v98h98v-98h-98zM688 524v98h98v-98h-98zM1032 540v66h65v-66h-65zM655 2129v-163h164v163h-164zM1146 1966v163h-163v-163h163zM327 1802v164h-164v-164h164zM983 1638v164h-164v-164h164zM491 1474v164h-164v-164h164zM819 1146v164
h-164v-164h164zM1146 983v163h-163v-163h163zM1310 491v164h-164v164h-163v-328h327zM491 655v164h-164v-164h164zM819 491v164h-164v-164h164zM327 327v164h-164v-164h164zM163 983h164v163h-164v-163zM655 2129v164h655v-164h164v-327h-164v-164h164v-164h-164v-164h164
v-1310h-164v163h-164v-163h-327v163h-328v-163h-328v163h-163v656h163v164h-163v1146h163v164h328v-164h164zM524 2162v98h98v-98h-98zM32 2162v98h99v-98h-99zM1359 2179v65h66v-65h-66zM1343 1671v98h98v-98h-98zM1359 1359v66h66v-66h-66zM49 868v65h65v-65h-65zM1163 16
v131h131v-131h-131zM16 16v131h131v-131h-131zM688 32v99h98v-99h-98zM540 49v65h66v-65h-66z" />
    <glyph glyph-name="bullet" unicode="&#x2022;" horiz-adv-x="819" 
d="M180 999v131h131v-131h-131zM163 983h164v163h-164v-163zM163 983h-163v327h163v164h328v-164h164v-327h-164v-164h-328v164zM507 1327v131h131v-131h-131zM16 1327v131h131v-131h-131zM507 835v131h131v-131h-131zM49 868v65h65v-65h-65z" />
    <glyph glyph-name="ellipsis" unicode="&#x2026;" horiz-adv-x="1966" 
d="M344 180v131h131v-131h-131zM999 180v131h131v-131h-131zM1654 180v131h131v-131h-131zM32 360v98h99v-98h-99zM688 360v98h98v-98h-98zM1343 360v98h98v-98h-98zM0 0v327h163v164h328v-164h-164v-164h164v-163h-491zM655 0v327h164v164h327v-164h-163v-164h163v-163
h-491zM1310 0v327h164v164h328v-164h-164v-164h164v-163h-492zM1507 524v98h98v-98h-98zM32 688v98h99v-98h-99zM688 688v98h98v-98h-98zM344 671v131h131v-131h-131zM851 851v99h99v-99h-99zM1654 835v131h131v-131h-131zM704 1032v65h66v-65h-66zM196 1015v99h98v-99h-98z
M1507 1179v98h98v-98h-98zM999 1163v131h131v-131h-131zM49 1359v66h65v-66h-65zM1687 1359v66h66v-66h-66z" />
    <glyph glyph-name="guilsinglleft" unicode="&#x2039;" 
d="M196 360v98h98v-98h-98zM1015 1998v99h99v-99h-99zM704 2015v65h66v-65h-66zM180 1818v131h131v-131h-131zM835 1654v131h131v-131h-131zM360 1507v98h98v-98h-98zM704 1196v65h66v-65h-66zM180 999v131h131v-131h-131zM1015 1015v99h99v-99h-99zM999 671v131h131v-131
h-131zM376 704v66h66v-66h-66zM1179 524v98h98v-98h-98zM688 524v98h98v-98h-98zM1032 540v66h65v-66h-65zM655 2129v-163h164v163h-164zM1146 1966v163h-163v-163h163zM327 1802v164h-164v-164h164zM983 1638v164h-164v-164h164zM491 1474v164h-164v-164h164zM819 1146v164
h-164v-164h164zM1146 983v163h-163v-163h163zM1310 491v164h-164v164h-163v-328h327zM491 655v164h-164v-164h164zM819 491v164h-164v-164h164zM327 327v164h-164v-164h164zM163 983h164v163h-164v-163zM655 2129v164h655v-164h164v-327h-164v-164h164v-164h-164v-164h164
v-1310h-164v163h-164v-163h-327v163h-328v-163h-328v163h-163v656h163v164h-163v1146h163v164h328v-164h164zM524 2162v98h98v-98h-98zM32 2162v98h99v-98h-99zM1359 2179v65h66v-65h-66zM1343 1671v98h98v-98h-98zM1359 1359v66h66v-66h-66zM49 868v65h65v-65h-65zM1163 16
v131h131v-131h-131zM16 16v131h131v-131h-131zM688 32v99h98v-99h-98zM540 49v65h66v-65h-66z" />
    <glyph glyph-name="guilsinglright" unicode="&#x203a;" 
d="M196 360v98h98v-98h-98zM1015 1998v99h99v-99h-99zM704 2015v65h66v-65h-66zM180 1818v131h131v-131h-131zM835 1654v131h131v-131h-131zM360 1507v98h98v-98h-98zM704 1196v65h66v-65h-66zM180 999v131h131v-131h-131zM1015 1015v99h99v-99h-99zM999 671v131h131v-131
h-131zM376 704v66h66v-66h-66zM1179 524v98h98v-98h-98zM688 524v98h98v-98h-98zM1032 540v66h65v-66h-65zM655 2129v-163h164v163h-164zM1146 1966v163h-163v-163h163zM327 1802v164h-164v-164h164zM983 1638v164h-164v-164h164zM491 1474v164h-164v-164h164zM819 1146v164
h-164v-164h164zM1146 983v163h-163v-163h163zM1310 491v164h-164v164h-163v-328h327zM491 655v164h-164v-164h164zM819 491v164h-164v-164h164zM327 327v164h-164v-164h164zM163 983h164v163h-164v-163zM655 2129v164h655v-164h164v-327h-164v-164h164v-164h-164v-164h164
v-1310h-164v163h-164v-163h-327v163h-328v-163h-328v163h-163v656h163v164h-163v1146h163v164h328v-164h164zM524 2162v98h98v-98h-98zM32 2162v98h99v-98h-99zM1359 2179v65h66v-65h-66zM1343 1671v98h98v-98h-98zM1359 1359v66h66v-66h-66zM49 868v65h65v-65h-65zM1163 16
v131h131v-131h-131zM16 16v131h131v-131h-131zM688 32v99h98v-99h-98zM540 49v65h66v-65h-66z" />
    <glyph glyph-name="Euro" unicode="&#x20ac;" 
d="M344 1327v131h131v-131h-131zM1163 2146v131h131v-131h-131zM688 2162v98h98v-98h-98zM360 1671v98h98v-98h-98zM1310 2293h-164v-164h164v164zM491 1638v164h-164v-164h164zM491 1310v164h-164v-164h164zM655 2293v-164h164v164h-164zM1310 2293h164v-491h-164v164h-164
v-164h-163v164h-328v-328h491v-328h-491v-164h491v-327h-491v-328h328v164h491v-492h-164v-163h-983v163h-164v656h-163v327h163v164h-163v328h163v491h164v328h164v-164h164v164h655v-164zM196 3145v99h98v-99h-98zM1359 3162v65h66v-65h-66zM507 2965v131h131v-131h-131z
M868 2998v65h65v-65h-65zM1163 2801v131h131v-131h-131zM180 2637v131h131v-131h-131zM524 2654v98h98v-98h-98zM835 2473v132h131v-132h-131zM376 2506v66h66v-66h-66zM507 2310v131h131v-131h-131zM180 2146v131h131v-131h-131zM1163 1818v131h131v-131h-131z" />
    <glyph glyph-name="trademark" unicode="&#x2122;" 
d="M196 360v98h98v-98h-98zM1015 1998v99h99v-99h-99zM704 2015v65h66v-65h-66zM180 1818v131h131v-131h-131zM835 1654v131h131v-131h-131zM360 1507v98h98v-98h-98zM704 1196v65h66v-65h-66zM180 999v131h131v-131h-131zM1015 1015v99h99v-99h-99zM999 671v131h131v-131
h-131zM376 704v66h66v-66h-66zM1179 524v98h98v-98h-98zM688 524v98h98v-98h-98zM1032 540v66h65v-66h-65zM655 2129v-163h164v163h-164zM1146 1966v163h-163v-163h163zM327 1802v164h-164v-164h164zM983 1638v164h-164v-164h164zM491 1474v164h-164v-164h164zM819 1146v164
h-164v-164h164zM1146 983v163h-163v-163h163zM1310 491v164h-164v164h-163v-328h327zM491 655v164h-164v-164h164zM819 491v164h-164v-164h164zM327 327v164h-164v-164h164zM163 983h164v163h-164v-163zM655 2129v164h655v-164h164v-327h-164v-164h164v-164h-164v-164h164
v-1310h-164v163h-164v-163h-327v163h-328v-163h-328v163h-163v656h163v164h-163v1146h163v164h328v-164h164zM524 2162v98h98v-98h-98zM32 2162v98h99v-98h-99zM1359 2179v65h66v-65h-66zM1343 1671v98h98v-98h-98zM1359 1359v66h66v-66h-66zM49 868v65h65v-65h-65zM1163 16
v131h131v-131h-131zM16 16v131h131v-131h-131zM688 32v99h98v-99h-98zM540 49v65h66v-65h-66z" />
  </font>
</defs>
</svg>
